<?xml version="1.0" encoding="utf-8"?>
<svg width="18" height="18" viewBox="0 0 18 18" fill="none" xmlns="http://www.w3.org/2000/svg">
<path d="M2.40002 0.933594C1.58968 0.933594 0.93335 1.58993 0.93335 2.40026V15.6003C0.93335 16.4106 1.58968 17.0669 2.40002 17.0669H15.6C16.4104 17.0669 17.0667 16.4106 17.0667 15.6003V2.40026C17.0667 1.58993 16.4104 0.933594 15.6 0.933594H2.40002ZM10.8334 6.06693H12.7082C12.9106 6.06693 13.0749 6.23119 13.0749 6.43359C13.0749 6.63599 12.9106 6.80026 12.7082 6.80026H10.8334C10.631 6.80026 10.4667 6.63599 10.4667 6.43359C10.4667 6.23119 10.631 6.06693 10.8334 6.06693ZM4.54129 6.34909H6.58374C7.78934 6.34909 8.50874 6.9389 8.50874 7.89883C8.50874 8.55736 8.02166 9.13196 7.38439 9.22656V9.30391C8.20719 9.36404 8.80523 9.9841 8.80523 10.7849C8.80596 11.8739 7.98339 12.5638 6.65679 12.5638H4.54129C4.16876 12.5638 3.86668 12.2617 3.86668 11.8892V7.0237C3.86668 6.65117 4.16876 6.34909 4.54129 6.34909ZM5.1672 7.3431V8.92435H6.14403C6.84656 8.92508 7.2297 8.63599 7.22971 8.13659C7.22971 7.64159 6.87328 7.3431 6.25288 7.3431H5.1672ZM11.9061 7.70977C13.3061 7.70977 14.1319 8.60185 14.1319 10.1089V10.4913H10.8735V10.5557C10.8903 11.2619 11.3043 11.7016 11.9591 11.7016C12.4541 11.7016 12.7939 11.5256 12.9274 11.2117H14.0947C13.9055 12.1079 13.0864 12.6669 11.9233 12.6669C10.4765 12.6669 9.6245 11.7534 9.6245 10.212C9.6245 8.66611 10.4937 7.70977 11.9061 7.70977ZM11.9119 8.67083C11.3303 8.67083 10.9203 9.07463 10.8778 9.69063H12.9016C12.8752 9.06216 12.4971 8.67083 11.9119 8.67083ZM5.1672 9.80378V11.5698H6.32593C7.0754 11.5698 7.48036 11.254 7.48036 10.6732C7.48036 10.1041 7.06218 9.80378 6.29585 9.80378H5.1672Z" fill="white"/>
</svg>
