<?xml version="1.0" encoding="utf-8"?>
<svg width="18" height="18" viewBox="0 0 18 18" fill="none" xmlns="http://www.w3.org/2000/svg">
<path d="M15.6 0.933594H2.40002C1.58968 0.933594 0.93335 1.58993 0.93335 2.40026V15.6003C0.93335 16.4106 1.58968 17.0669 2.40002 17.0669H9.73335V10.4669H7.53335V8.26693H9.73335V7.08553C9.73335 4.84886 10.8231 3.86693 12.6821 3.86693C13.5724 3.86693 14.0431 3.93293 14.2661 3.96299V6.06693H12.9982C12.2091 6.06693 11.9334 6.48346 11.9334 7.32679V8.26693H14.2463L13.9324 10.4669H11.9334V17.0669H15.6C16.4104 17.0669 17.0667 16.4106 17.0667 15.6003V2.40026C17.0667 1.58993 16.4096 0.933594 15.6 0.933594Z" fill="white"/>
</svg>
