<?xml version="1.0" encoding="UTF-8" ?>
<svg width="30" height="30" viewBox="0 0 30 30" fill="none" xmlns="http://www.w3.org/2000/svg">
<g opacity="0.6">
<path d="M13.4377 21.0749V23.6124C13.4377 25.7624 11.4376 27.4999 8.97514 27.4999C6.51264 27.4999 4.50012 25.7624 4.50012 23.6124V21.0749C4.50012 23.2249 6.50014 24.7499 8.97514 24.7499C11.4376 24.7499 13.4377 23.2124 13.4377 21.0749Z" stroke="#ED1B24" stroke-width="2" stroke-linecap="round" stroke-linejoin="round"/>
<path d="M13.4373 17.6375C13.4373 18.2625 13.2623 18.8375 12.9623 19.3375C12.2248 20.55 10.7122 21.3125 8.96225 21.3125C7.21225 21.3125 5.69973 20.5375 4.96223 19.3375C4.66223 18.8375 4.4873 18.2625 4.4873 17.6375C4.4873 16.5625 4.98728 15.6 5.78728 14.9C6.59978 14.1875 7.71224 13.7626 8.94974 13.7626C10.1872 13.7626 11.2998 14.2 12.1123 14.9C12.9373 15.5875 13.4373 16.5625 13.4373 17.6375Z" stroke="#ED1B24" stroke-width="2" stroke-linecap="round" stroke-linejoin="round"/>
<path d="M13.4377 17.6375V21.075C13.4377 23.225 11.4376 24.75 8.97514 24.75C6.51264 24.75 4.50012 23.2125 4.50012 21.075V17.6375C4.50012 15.4875 6.50014 13.7501 8.97514 13.7501C10.2126 13.7501 11.3252 14.1875 12.1377 14.8875C12.9377 15.5875 13.4377 16.5625 13.4377 17.6375Z" stroke="#ED1B24" stroke-width="2" stroke-linecap="round" stroke-linejoin="round"/>
</g>
<path d="M27.5001 13.7124V16.2875C27.5001 16.975 26.9501 17.5375 26.2501 17.5625H23.8001C22.4501 17.5625 21.2126 16.575 21.1001 15.225C21.0251 14.4375 21.3251 13.7 21.8501 13.1875C22.3126 12.7125 22.9501 12.4375 23.6501 12.4375H26.2501C26.9501 12.4625 27.5001 13.0249 27.5001 13.7124Z" stroke="#292D32" stroke-width="2" stroke-linecap="round" stroke-linejoin="round"/>
<path d="M2.5 13.1251V10.6251C2.5 7.22505 4.55 4.85005 7.7375 4.45005C8.0625 4.40005 8.4 4.37505 8.75 4.37505H20C20.325 4.37505 20.6375 4.38754 20.9375 4.43754C24.1625 4.81254 26.25 7.20005 26.25 10.6251V12.4376H23.65C22.95 12.4376 22.3125 12.7125 21.85 13.1875C21.325 13.7 21.025 14.4375 21.1 15.225C21.2125 16.575 22.45 17.5625 23.8 17.5625H26.25V19.3751C26.25 23.1251 23.75 25.6251 20 25.6251H16.875" stroke="#292D32" stroke-width="2" stroke-linecap="round" stroke-linejoin="round"/>
</svg>
