<?xml version="1.0" encoding="utf-8"?>
<svg width="18" height="18" viewBox="0 0 18 18" fill="none" xmlns="http://www.w3.org/2000/svg">
<path d="M3.33185 0.200195C0.501919 0.200195 0.199951 0.504294 0.199951 3.33496V14.6683C0.199951 17.4982 0.50405 17.8002 3.33472 17.8002H14.668C17.498 17.8002 17.7999 17.4961 17.7999 14.6654V3.3321C17.7999 0.502163 17.4959 0.200195 14.6652 0.200195H3.33185ZM14.1333 3.13353C14.5381 3.13353 14.8666 3.46206 14.8666 3.86686C14.8666 4.27166 14.5381 4.60019 14.1333 4.60019C13.7285 4.60019 13.4 4.27166 13.4 3.86686C13.4 3.46206 13.7285 3.13353 14.1333 3.13353ZM8.99995 4.60019C11.4265 4.60019 13.4 6.57359 13.4 9.00019C13.4 11.4268 11.4265 13.4002 8.99995 13.4002C6.57335 13.4002 4.59995 11.4268 4.59995 9.00019C4.59995 6.57359 6.57335 4.60019 8.99995 4.60019ZM8.99995 6.06686C8.22198 6.06686 7.47588 6.37591 6.92577 6.92601C6.37566 7.47612 6.06662 8.22223 6.06662 9.00019C6.06662 9.77816 6.37566 10.5243 6.92577 11.0744C7.47588 11.6245 8.22198 11.9335 8.99995 11.9335C9.77792 11.9335 10.524 11.6245 11.0741 11.0744C11.6242 10.5243 11.9333 9.77816 11.9333 9.00019C11.9333 8.22223 11.6242 7.47612 11.0741 6.92601C10.524 6.37591 9.77792 6.06686 8.99995 6.06686Z" fill="white"/>
</svg>
