<?xml version="1.0" encoding="utf-8"?>
<svg width="18" height="18" viewBox="0 0 18 18" fill="none" xmlns="http://www.w3.org/2000/svg">
<path d="M15.6 0.933594H2.40002C1.58968 0.933594 0.93335 1.58993 0.93335 2.40026V15.6003C0.93335 16.4106 1.58968 17.0669 2.40002 17.0669H15.6C16.4104 17.0669 17.0667 16.4106 17.0667 15.6003V2.40026C17.0667 1.58993 16.4104 0.933594 15.6 0.933594ZM6.03295 14.1336H3.86962V7.17279H6.03295V14.1336ZM4.92928 6.17766C4.23188 6.17766 3.66795 5.61226 3.66795 4.91633C3.66795 4.22039 4.23262 3.65573 4.92928 3.65573C5.62448 3.65573 6.18988 4.22113 6.18988 4.91633C6.18988 5.61226 5.62448 6.17766 4.92928 6.17766ZM14.1363 14.1336H11.9744V10.7485C11.9744 9.94113 11.9598 8.90273 10.8502 8.90273C9.72455 8.90273 9.55148 9.78199 9.55148 10.6899V14.1336H7.38962V7.17279H9.46495V8.12393H9.49428C9.78322 7.57686 10.4887 6.99973 11.541 6.99973C13.7315 6.99973 14.1363 8.44146 14.1363 10.3159V14.1336Z" fill="white"/>
</svg>
