<?xml version="1.0" encoding="utf-8"?>
<svg width="116" height="15" viewBox="0 0 116 15" fill="none" xmlns="http://www.w3.org/2000/svg">
<mask id="mask0_1728_23523" style="mask-type:alpha" maskUnits="userSpaceOnUse" x="0" y="0" width="19" height="15">
<path d="M0 0H19V15H0V0Z" fill="#ED1B24"/>
</mask>
<g mask="url(#mask0_1728_23523)">
<path fill-rule="evenodd" clip-rule="evenodd" d="M4.59725 3.50117L2.18593 1.38281C1.68681 1.96873 1.26767 2.60869 0.928516 3.30269L2.28132 4.24785L0.695876 3.82607C0.650574 3.93611 0.607412 4.04701 0.56639 4.15876C0.525367 4.27051 0.486515 4.38304 0.449834 4.49634C0.413153 4.60964 0.378671 4.72363 0.346388 4.83831C0.314104 4.95298 0.284045 5.06825 0.25621 5.18412C0.228374 5.29999 0.202784 5.41637 0.179438 5.53326C0.156093 5.65015 0.135011 5.76746 0.116192 5.88518C0.0973729 6.00291 0.0808313 6.12097 0.0665672 6.23936C0.0523032 6.35774 0.0403276 6.47637 0.0306404 6.59523C0.0209533 6.71409 0.0135621 6.8331 0.00846672 6.95226C0.00337138 7.07142 0.000575848 7.19063 8.01262e-05 7.3099C-0.000415596 7.42917 0.00138887 7.5484 0.00549353 7.6676C0.00959819 7.78679 0.0159999 7.90586 0.0246986 8.0248C0.0333974 8.14375 0.0443865 8.26247 0.0576659 8.38097C0.0709454 8.49948 0.086505 8.61767 0.104345 8.73556C0.122185 8.85344 0.142291 8.97093 0.164664 9.08801C0.187036 9.2051 0.211658 9.32169 0.23853 9.43779C0.265401 9.5539 0.294501 9.66943 0.32583 9.78437C0.357159 9.89932 0.390692 10.0136 0.42643 10.1272C0.462168 10.2408 0.500083 10.3537 0.540175 10.4658C0.580268 10.5779 0.622506 10.6891 0.666892 10.7996C0.711277 10.91 0.757774 11.0195 0.806384 11.1281C0.854994 11.2366 0.905679 11.3442 0.958439 11.4507C1.0112 11.5573 1.06599 11.6628 1.12282 11.7671C1.17965 11.8715 1.23847 11.9747 1.29928 12.0767C1.36009 12.1788 1.42285 12.2795 1.48755 12.3791C1.55225 12.4786 1.61884 12.5768 1.68733 12.6737C1.75582 12.7706 1.82615 12.8661 1.89832 12.9601C1.97049 13.0542 2.04445 13.1468 2.1202 13.238C2.19594 13.3291 2.27342 13.4187 2.35262 13.5068C2.43182 13.5948 2.51269 13.6813 2.59523 13.7661C2.67777 13.8509 2.76191 13.9341 2.84766 14.0156C2.93341 14.0971 3.02069 14.1768 3.10951 14.2548L4.97063 12.0691C4.86105 11.916 4.75711 11.7589 4.65882 11.5981C4.56052 11.4372 4.46814 11.2729 4.38167 11.1051C4.29519 10.9374 4.21486 10.7667 4.14066 10.593C4.06647 10.4193 3.99861 10.2431 3.93709 10.0643C3.87557 9.8856 3.82055 9.70482 3.77203 9.52201C3.72351 9.33919 3.68162 9.15483 3.64637 8.9689C3.61111 8.78298 3.58258 8.596 3.56077 8.40796C3.53896 8.21992 3.52393 8.03132 3.51569 7.84217C3.50745 7.65301 3.50601 7.4638 3.51137 7.27454C3.51674 7.08528 3.52889 6.89647 3.54784 6.70811C3.56679 6.51975 3.59247 6.33234 3.6249 6.14589C3.65733 5.95943 3.6964 5.77443 3.74214 5.59087C3.78787 5.40732 3.84013 5.22571 3.89893 5.04603C3.95772 4.86635 4.02289 4.68909 4.09444 4.51426C4.16598 4.33942 4.24371 4.16746 4.32763 3.99839C4.41154 3.82931 4.50141 3.66358 4.59725 3.50117Z" fill="#ED1B24"/>
<path fill-rule="evenodd" clip-rule="evenodd" d="M18.9082 6.32825C18.88 6.14635 18.8452 5.96575 18.8039 5.78646C18.7626 5.60717 18.7149 5.42966 18.6607 5.25394C18.6065 5.07822 18.546 4.90477 18.4792 4.73358C18.4124 4.56238 18.3395 4.39392 18.2605 4.22819C18.1815 4.06246 18.0966 3.8999 18.0058 3.74053C17.915 3.58115 17.8186 3.42538 17.7165 3.27323C17.6144 3.12108 17.5069 2.97295 17.394 2.82884C17.2812 2.68473 17.1632 2.54504 17.0402 2.40976C16.9172 2.27448 16.7895 2.14399 16.657 2.01827C16.5246 1.89256 16.3877 1.77197 16.2465 1.6565C16.1053 1.54103 15.9601 1.431 15.8109 1.3264C15.6617 1.2218 15.5089 1.12293 15.3525 1.02977C15.1961 0.936613 15.0366 0.849429 14.8739 0.768217C14.7112 0.687006 14.5457 0.611987 14.3776 0.543162C14.2094 0.474336 14.039 0.41189 13.8663 0.355824C13.6936 0.299758 13.5192 0.250223 13.3429 0.207221C13.1666 0.164218 12.989 0.127864 12.8101 0.0981587C12.6312 0.0684531 12.4514 0.0454767 12.2708 0.0292294C12.0902 0.012982 11.9093 0.00350789 11.728 0.00080693C11.5468 -0.00189403 11.3656 0.00218552 11.1847 0.0130456C11.0037 0.0239056 10.8234 0.0415168 10.6437 0.0658789C10.464 0.0902411 10.2854 0.121288 10.1079 0.15902C9.9305 0.196752 9.75466 0.241067 9.58043 0.291964C9.4062 0.342861 9.23406 0.400203 9.06399 0.463989C8.89392 0.527775 8.7264 0.597833 8.56141 0.674162C8.39643 0.750491 8.23444 0.832884 8.07543 0.921342C7.91643 1.0098 7.76085 1.10408 7.60869 1.20419C7.45653 1.30429 7.3082 1.40995 7.16371 1.52116C7.01921 1.63238 6.87895 1.74884 6.74291 1.87055C6.60687 1.99227 6.47542 2.1189 6.34857 2.25046C6.22172 2.38201 6.09981 2.51813 5.98284 2.65881C5.86587 2.79949 5.75415 2.94436 5.6477 3.09341C5.5116 3.28362 5.38365 3.47974 5.26617 3.68414C5.22546 3.75502 5.18474 3.82591 5.14985 3.89798C5.11495 3.97005 5.07308 4.04212 5.03353 4.11537C4.96141 4.26187 4.89278 4.41074 4.8288 4.56196C4.79623 4.63758 4.76599 4.71437 4.73691 4.79117C4.67759 4.94476 4.62059 5.10071 4.57523 5.26375C4.5508 5.34291 4.52753 5.42207 4.50543 5.50004C4.46123 5.65954 4.42285 5.8214 4.38911 5.98562C4.37748 6.04115 4.36701 6.09786 4.35654 6.15457L4.3391 6.25263C4.32863 6.31761 4.31932 6.38259 4.31002 6.44757L4.30304 6.4972C4.29373 6.57045 4.28443 6.6437 4.27628 6.71813C4.27686 6.7264 4.27686 6.73467 4.27628 6.74294C4.27628 6.8091 4.26465 6.87526 4.26 6.94142C4.26 6.97569 4.26 7.00877 4.25302 7.04185C4.25302 7.10801 4.24604 7.17299 4.24371 7.23915C4.24371 7.32422 4.24371 7.40928 4.24371 7.49435C4.24386 7.89061 4.2745 8.28443 4.33561 8.67581C4.35654 8.81286 4.38213 8.94755 4.41005 9.08105C4.42168 9.1354 4.43332 9.18856 4.44611 9.24173C4.45891 9.29489 4.47403 9.35987 4.49031 9.42131C4.48963 9.42525 4.48963 9.42919 4.49031 9.43312C4.50543 9.4922 4.52056 9.55127 4.538 9.60916C4.55545 9.66705 4.58104 9.75566 4.60431 9.82891C4.63804 9.93288 4.67293 10.0357 4.71016 10.1373C4.73497 10.2026 4.7594 10.2664 4.78344 10.3287C4.80748 10.3909 4.82958 10.4441 4.84974 10.4882C4.87417 10.5449 4.8986 10.6063 4.92419 10.6571C4.94978 10.7079 4.97653 10.7753 5.00328 10.8237C5.03004 10.8721 5.05679 10.9336 5.08471 10.9879C5.18164 11.1746 5.28478 11.3558 5.39412 11.5314C5.4232 11.5775 5.45228 11.6236 5.48369 11.6684C5.52556 11.7322 5.5686 11.796 5.61396 11.8598C5.6773 11.9499 5.74257 12.0385 5.80977 12.1257C5.87696 12.2128 5.94603 12.2984 6.01696 12.3824C6.08789 12.4665 6.16062 12.5489 6.23514 12.6296C6.30967 12.7104 6.38592 12.7894 6.46389 12.8668C6.54186 12.9441 6.62148 13.0196 6.70274 13.0934C6.784 13.1671 6.86684 13.239 6.95124 13.309C7.03564 13.3791 7.12152 13.4472 7.20889 13.5133C7.29626 13.5795 7.38503 13.6436 7.47519 13.7058C7.56536 13.768 7.65684 13.8281 7.74962 13.8861C7.84241 13.9442 7.93642 14.0001 8.03165 14.0539C8.12687 14.1078 8.22323 14.1594 8.32071 14.2089C8.41819 14.2584 8.5167 14.3057 8.61624 14.3507C8.71578 14.3958 8.81625 14.4386 8.91766 14.4791C9.01906 14.5197 9.1213 14.5579 9.22438 14.5938C9.32745 14.6298 9.43126 14.6634 9.5358 14.6946C9.64034 14.7259 9.74551 14.7548 9.85131 14.7814C9.95711 14.8079 10.0634 14.832 10.1703 14.8538C10.2771 14.8755 10.3844 14.8949 10.4921 14.9118C10.5998 14.9287 10.7078 14.9432 10.8161 14.9553C10.9245 14.9674 11.033 14.977 11.1418 14.9842C11.2505 14.9914 11.3594 14.9961 11.4683 14.9984C11.5773 15.0007 11.6862 15.0005 11.7952 14.9979C11.9041 14.9953 12.013 14.9902 12.1217 14.9827C12.2304 14.9752 12.3389 14.9653 12.4472 14.9529C12.5555 14.9405 12.6635 14.9257 12.7711 14.9084C12.8788 14.8912 12.986 14.8715 13.0928 14.8495C13.1996 14.8274 13.3058 14.8029 13.4115 14.7761C13.5173 14.7492 13.6224 14.72 13.7268 14.6885C13.8313 14.6569 13.935 14.623 14.0379 14.5867C14.1409 14.5505 14.243 14.5119 14.3443 14.4711C14.4456 14.4303 14.546 14.3872 14.6454 14.3418C14.7448 14.2965 14.8432 14.2489 14.9405 14.1991C15.5421 13.8917 16.0915 13.5073 16.5888 13.046C16.0923 12.9572 15.6224 12.791 15.179 12.5475C14.9133 12.3989 14.6631 12.2271 14.4285 12.0319C14.1939 11.8367 13.9788 11.6214 13.7831 11.3861C13.7425 11.3368 13.713 11.2814 13.6946 11.2198C13.6762 11.1583 13.6704 11.0956 13.6773 11.0316C13.6836 10.9883 13.6995 10.9489 13.725 10.9135C13.7409 10.8921 13.7602 10.8747 13.783 10.8611C13.8058 10.8476 13.8303 10.8391 13.8564 10.8355C13.9013 10.8334 13.9442 10.8418 13.9852 10.8605C14.0262 10.8792 14.0608 10.9064 14.089 10.9418C14.2024 11.0621 14.3229 11.1744 14.4505 11.2789C14.5781 11.3833 14.7118 11.479 14.8516 11.5659C14.9913 11.6529 15.136 11.7303 15.2856 11.7983C15.4352 11.8663 15.5885 11.9242 15.7454 11.9721C15.8926 12.0137 16.0418 12.0448 16.1932 12.0654C16.3446 12.086 16.4966 12.0959 16.6493 12.0951C16.802 12.0943 16.954 12.0828 17.1051 12.0606C17.2563 12.0384 17.4052 12.0058 17.5519 11.9626C17.6975 11.7634 17.833 11.5572 17.9584 11.3443C18.0838 11.1313 18.1984 10.9125 18.3023 10.6879C18.4062 10.4633 18.4989 10.234 18.5803 10C18.6617 9.76603 18.7314 9.52852 18.7895 9.28748C18.8476 9.04643 18.8937 8.80305 18.9279 8.55734C18.9621 8.31162 18.9842 8.06479 18.9942 7.81684C19.0041 7.56889 19.0019 7.32105 18.9876 7.07332C18.9732 6.82559 18.9467 6.5792 18.9082 6.33415V6.32825ZM15.0033 5.54257C14.9804 5.56571 14.9565 5.58764 14.9314 5.60839C14.9064 5.62914 14.8805 5.6486 14.8536 5.66677C14.8267 5.68493 14.799 5.70172 14.7704 5.71714C14.7419 5.73255 14.7127 5.74651 14.6829 5.75902C14.653 5.77153 14.6226 5.78253 14.5917 5.79202C14.5608 5.80151 14.5295 5.80944 14.4978 5.81582C14.4661 5.8222 14.4342 5.82699 14.4021 5.83019C14.3699 5.8334 14.3377 5.835 14.3054 5.835C14.2731 5.835 14.2409 5.8334 14.2087 5.83019C14.1766 5.82699 14.1447 5.8222 14.113 5.81582C14.0813 5.80944 14.05 5.80151 14.0191 5.79202C13.9882 5.78253 13.9578 5.77153 13.9279 5.75902C13.8981 5.74651 13.8689 5.73255 13.8404 5.71714C13.8118 5.70172 13.7841 5.68493 13.7572 5.66677C13.7303 5.6486 13.7044 5.62914 13.6794 5.60839C13.6543 5.58764 13.6304 5.56571 13.6075 5.54257C13.5834 5.51966 13.5604 5.49557 13.5387 5.47031C13.5169 5.44505 13.4965 5.41876 13.4773 5.39142C13.4582 5.36408 13.4405 5.33583 13.4241 5.30668C13.4077 5.27753 13.3929 5.24763 13.3795 5.21696C13.3661 5.18629 13.3542 5.15503 13.3439 5.12315C13.3336 5.09128 13.3249 5.05896 13.3178 5.0262C13.3106 4.99344 13.3052 4.96039 13.3013 4.92707C13.2975 4.89375 13.2952 4.86032 13.2947 4.82677C13.2941 4.79323 13.2952 4.75974 13.298 4.72631C13.3008 4.69287 13.3052 4.65967 13.3112 4.62668C13.3172 4.5937 13.3249 4.5611 13.3341 4.5289C13.3434 4.49669 13.3542 4.46504 13.3666 4.43394C13.379 4.40283 13.3929 4.37244 13.4083 4.34275C13.4237 4.31307 13.4405 4.28424 13.4587 4.25626C13.4769 4.22829 13.4965 4.20131 13.5174 4.17533C13.5383 4.14936 13.5605 4.1245 13.5838 4.10078C13.6072 4.07706 13.6316 4.05458 13.6572 4.03335C13.6828 4.01212 13.7093 3.99224 13.7369 3.97372C13.7644 3.9552 13.7928 3.93812 13.822 3.92249C13.8513 3.90686 13.8812 3.89276 13.9118 3.88018C13.9424 3.8676 13.9736 3.8566 14.0053 3.8472C14.037 3.8378 14.0691 3.83003 14.1016 3.82389C14.1341 3.81776 14.1668 3.81329 14.1997 3.81049C14.2326 3.80769 14.2656 3.80657 14.2986 3.80713C14.3316 3.80769 14.3645 3.80993 14.3973 3.81384C14.4301 3.81775 14.4627 3.82333 14.4949 3.83056C14.5272 3.83779 14.559 3.84664 14.5904 3.85711C14.6218 3.86758 14.6525 3.87962 14.6827 3.89323C14.7129 3.90684 14.7424 3.92195 14.7711 3.93857C14.7998 3.95518 14.8276 3.9732 14.8545 3.99265C14.8814 4.01209 14.9073 4.03286 14.9322 4.05494C14.957 4.07703 14.9808 4.10032 15.0033 4.12482C15.0492 4.17135 15.0901 4.22198 15.1262 4.2767C15.1622 4.33143 15.1927 4.3892 15.2175 4.45001C15.2424 4.51082 15.2611 4.57351 15.2738 4.63808C15.2865 4.70265 15.2929 4.76786 15.293 4.8337C15.293 4.89956 15.2867 4.96478 15.2741 5.02937C15.2614 5.09396 15.2427 5.15667 15.2178 5.2175C15.1929 5.27833 15.1625 5.33609 15.1264 5.3908C15.0903 5.44551 15.0493 5.4961 15.0033 5.54257Z" fill="#ED1B24"/>
</g>
<path fill-rule="evenodd" clip-rule="evenodd" d="M107.636 11.806V10.261H108.743V3.71309H107.636V2.16804H110.93V5.64046C111.623 5.1668 112.273 4.93335 112.884 4.93335C114.29 4.93335 114.992 5.7555 114.992 7.40656V10.261H116V11.806H112.799V7.50355C112.799 7.1889 112.741 6.9735 112.624 6.85508C112.508 6.73779 112.335 6.67802 112.103 6.67802C111.777 6.67802 111.387 6.82012 110.93 7.10206V10.261H111.912V11.806H107.636ZM100.671 11.806V9.49746H102.276C102.29 9.81211 102.438 10.0625 102.722 10.2497C103.008 10.4358 103.356 10.5305 103.774 10.5305C104.132 10.5305 104.413 10.4685 104.615 10.3467C104.815 10.226 104.917 10.0704 104.917 9.88091C104.917 9.70272 104.825 9.56851 104.64 9.47152C104.455 9.37453 104.094 9.28206 103.553 9.19296C102.44 9.01703 101.639 8.75087 101.147 8.39337C100.654 8.03586 100.407 7.55994 100.407 6.96899C100.407 6.41638 100.64 5.94722 101.102 5.56716C101.568 5.18597 102.184 4.99425 102.95 4.99425C103.569 4.99425 104.148 5.1059 104.689 5.32807V5.098H106.258V7.04455H104.689C104.547 6.57878 104.046 6.34533 103.185 6.34533C102.55 6.34533 102.232 6.51788 102.232 6.85846C102.232 6.98816 102.298 7.08515 102.429 7.15394C102.557 7.22048 102.892 7.30055 103.424 7.39303C104.273 7.534 104.908 7.67836 105.33 7.82046C105.749 7.96481 106.087 8.20165 106.34 8.53208C106.593 8.8614 106.721 9.25837 106.721 9.71963C106.721 10.3737 106.481 10.914 105.999 11.3301C105.518 11.7485 104.837 11.9571 103.958 11.9571C103.138 11.9571 102.579 11.7959 102.276 11.4722V11.806H100.671ZM95.2878 6.64983H96.3326V10.261H95.2878V11.806H99.5488V10.261H98.5272V5.098H95.2878V6.64983ZM96.2528 3.18078C96.2528 2.85598 96.3718 2.57968 96.6041 2.34736C96.8399 2.11616 97.123 2 97.4547 2C97.7887 2 98.073 2.11616 98.3065 2.34736C98.5376 2.57968 98.6555 2.85598 98.6555 3.18078C98.6555 3.50107 98.5364 3.7785 98.303 4.00744C98.0684 4.23525 97.7852 4.35142 97.4547 4.35142C97.1277 4.35142 96.8468 4.23525 96.6088 4.00406C96.3718 3.77399 96.2528 3.49769 96.2528 3.18078ZM94.2512 10.261V11.806H89.9855V10.261H90.9794V6.64983H90.056V5.098H90.9794V4.48111C90.9794 3.77399 91.2025 3.18529 91.6509 2.71276C92.097 2.23909 92.7638 2 93.6479 2C94.7238 2 95.4877 2.31465 95.9431 2.94508L94.3505 4.15744C94.2107 3.67475 94.0062 3.43566 93.7403 3.43566C93.3613 3.43566 93.1729 3.7458 93.1729 4.36495V5.098H94.2512V6.64983H93.1729V10.261H94.2512ZM84.1424 5.098V5.91C85.008 5.29875 85.7985 4.99425 86.5127 4.99425C86.9588 4.99425 87.3274 5.098 87.6187 5.301C87.9088 5.50852 88.1006 5.76114 88.1896 6.05774C88.2797 6.3566 88.3236 6.79193 88.3236 7.36484V10.6343H89.4816V11.806H86.9761V7.41897C86.9761 6.9126 86.8987 6.58103 86.7404 6.4254C86.5855 6.27202 86.3948 6.19308 86.166 6.19308C85.5696 6.19308 84.8936 6.47615 84.1424 7.04455V10.6343H85.3281V11.806H81.586V10.6343H82.7925V6.26976H81.586V5.098H84.1424ZM74.8414 8.45201C74.8414 9.11176 75.0552 9.6531 75.4782 10.0771C75.9012 10.5001 76.4189 10.7098 77.0303 10.7098C77.6497 10.7098 78.1686 10.4978 78.5882 10.0704C79.0077 9.64182 79.2157 9.10274 79.2157 8.45201C79.2157 7.79677 79.0019 7.25544 78.5754 6.82914C78.1513 6.40623 77.6359 6.19308 77.0303 6.19308C76.3947 6.19308 75.8711 6.41074 75.4586 6.8438C75.0471 7.27913 74.8414 7.81369 74.8414 8.45201ZM73.4165 8.45201C73.4165 7.41897 73.7655 6.56863 74.4647 5.90549C75.1662 5.24349 76.0214 4.91192 77.0303 4.91192C78.0184 4.91192 78.869 5.23785 79.5763 5.89309C80.2859 6.54494 80.643 7.3998 80.643 8.45201C80.643 9.50423 80.2893 10.3602 79.5809 11.0155C78.8736 11.6707 78.023 12 77.0303 12C76.0064 12 75.1488 11.6662 74.4566 11.0019C73.762 10.3365 73.4165 9.48731 73.4165 8.45201ZM66.5066 8.45201C66.5066 9.11176 66.7204 9.6531 67.1434 10.0771C67.5664 10.5001 68.0841 10.7098 68.6955 10.7098C69.3149 10.7098 69.8338 10.4978 70.2533 10.0704C70.6729 9.64182 70.8809 9.10274 70.8809 8.45201C70.8809 7.79677 70.6671 7.25544 70.2418 6.82914C69.8165 6.40623 69.3011 6.19308 68.6955 6.19308C68.0599 6.19308 67.5363 6.41074 67.1249 6.8438C66.7123 7.27913 66.5066 7.81369 66.5066 8.45201ZM65.0817 8.45201C65.0817 7.41897 65.4307 6.56863 66.131 5.90549C66.8314 5.24349 67.6866 4.91192 68.6955 4.91192C69.6836 4.91192 70.5342 5.23785 71.2415 5.89309C71.9522 6.54494 72.3082 7.3998 72.3082 8.45201C72.3082 9.50423 71.9545 10.3602 71.2472 11.0155C70.5388 11.6707 69.6882 12 68.6955 12C67.6716 12 66.814 11.6662 66.1218 11.0019C65.4284 10.3365 65.0817 9.48731 65.0817 8.45201ZM58.463 11.806V9.50423H59.6696V9.7264C59.7135 10.0411 59.888 10.2993 60.1908 10.5023C60.4959 10.7064 60.8565 10.8079 61.2737 10.8079C61.7105 10.8079 62.0572 10.7335 62.3184 10.5846C62.5773 10.4392 62.709 10.2328 62.709 9.97C62.709 9.71512 62.6016 9.52791 62.3866 9.40837C62.1705 9.28995 61.7452 9.17717 61.1038 9.0768C60.1573 8.91779 59.4835 8.66516 59.0779 8.31668C58.6734 7.96707 58.47 7.51709 58.47 6.96222C58.47 6.40397 58.6907 5.93594 59.1299 5.55926C59.5702 5.18371 60.1492 4.99425 60.8692 4.99425C61.5198 4.99425 62.0769 5.12507 62.5461 5.3822V5.098H63.7457V7.32085H62.5461V6.91485C62.1797 6.36337 61.6516 6.08932 60.9547 6.08932C60.6011 6.08932 60.3075 6.16601 60.0798 6.31375C59.8499 6.466 59.7355 6.66336 59.7355 6.91485C59.7355 7.1686 59.8395 7.34228 60.051 7.43701C60.2613 7.53175 60.7143 7.63099 61.41 7.73813C62.0769 7.83963 62.5808 7.9603 62.9228 8.09451C63.2626 8.2321 63.5446 8.45652 63.77 8.77343C63.9965 9.09033 64.1063 9.45912 64.1063 9.88091C64.1063 10.5023 63.8624 10.9997 63.3736 11.3662C62.8835 11.7327 62.2491 11.9165 61.4655 11.9165C60.734 11.9165 60.1353 11.7564 59.6696 11.4316V11.806H58.463ZM52.4789 5.098V5.91C53.3445 5.29875 54.135 4.99425 54.8492 4.99425C55.2953 4.99425 55.664 5.098 55.9541 5.301C56.2453 5.50852 56.4371 5.76114 56.5261 6.05774C56.6163 6.3566 56.6602 6.79193 56.6602 7.36484V10.6343H57.8182V11.806H55.3126V7.41897C55.3126 6.9126 55.2352 6.58103 55.0769 6.4254C54.922 6.27202 54.7302 6.19308 54.5025 6.19308C53.9062 6.19308 53.2301 6.47615 52.4789 7.04455V10.6343H53.6646V11.806H49.9225V10.6343H51.1291V6.26976H49.9225V5.098H52.4789ZM43.1768 8.45201C43.1768 9.11176 43.3906 9.6531 43.8147 10.0771C44.2366 10.5001 44.7555 10.7098 45.3657 10.7098C45.9863 10.7098 46.5052 10.4978 46.9247 10.0704C47.3442 9.64182 47.5522 9.10274 47.5522 8.45201C47.5522 7.79677 47.3384 7.25544 46.9131 6.82914C46.4878 6.40623 45.9712 6.19308 45.3657 6.19308C44.7312 6.19308 44.2077 6.41074 43.7962 6.8438C43.3837 7.27913 43.1768 7.81369 43.1768 8.45201ZM41.7518 8.45201C41.7518 7.41897 42.1009 6.56863 42.8012 5.90549C43.5015 5.24349 44.3579 4.91192 45.3657 4.91192C46.3549 4.91192 47.2055 5.23785 47.9128 5.89309C48.6235 6.54494 48.9795 7.3998 48.9795 8.45201C48.9795 9.50423 48.6247 10.3602 47.9186 11.0155C47.2101 11.6707 46.3596 12 45.3657 12C44.3429 12 43.4854 11.6662 42.792 11.0019C42.0985 10.3365 41.7518 9.48731 41.7518 8.45201ZM30.2285 10.6343V6.26976H29.0844V5.098H31.5772V5.94271C32.3931 5.31115 33.1905 4.99425 33.9706 4.99425C34.7553 4.99425 35.2985 5.34499 35.5967 6.0397C36.4912 5.34499 37.3244 4.99425 38.0952 4.99425C38.5413 4.99425 38.9065 5.09124 39.1931 5.28296C39.4786 5.47355 39.6728 5.71603 39.7721 6.00812C39.8715 6.30247 39.9201 6.73441 39.9201 7.30958V10.6343H41.1197V11.806H38.5702V7.54415C38.5702 7.1562 38.5529 6.88102 38.5171 6.72313C38.4836 6.56524 38.3934 6.43216 38.2478 6.32841C38.1045 6.22353 37.9311 6.17165 37.7266 6.17165C37.1499 6.17165 36.4935 6.46036 35.7596 7.03778V10.6343H36.9396V11.806H34.4121V7.41897C34.4121 6.98139 34.3462 6.66336 34.2156 6.46713C34.0839 6.27202 33.8631 6.17165 33.5511 6.17165C33.0391 6.17165 32.3827 6.46036 31.5772 7.03778V10.6343H32.7849V11.806H29V10.6343H30.2285Z" fill="#444444"/>
</svg>
