<?xml version="1.0" encoding="utf-8"?>
<svg width="159" height="20" viewBox="0 0 159 20" fill="none" xmlns="http://www.w3.org/2000/svg">
<mask id="mask0_1620_24644" style="mask-type:alpha" maskUnits="userSpaceOnUse" x="0" y="0" width="26" height="20">
<path d="M0.222412 0H25.2387V20H0.222412V0Z" fill="white"/>
</mask>
<g mask="url(#mask0_1620_24644)">
<path fill-rule="evenodd" clip-rule="evenodd" d="M6.27536 4.66823L3.10051 1.84375C2.44334 2.62497 1.89149 3.47825 1.44494 4.40358L3.2261 5.66381L1.13863 5.10143C1.07899 5.24815 1.02216 5.39601 0.968146 5.54501C0.914134 5.69402 0.86298 5.84406 0.814684 5.99512C0.766388 6.14619 0.720987 6.29818 0.678482 6.45107C0.635976 6.60397 0.596399 6.75767 0.559749 6.91216C0.5231 7.06666 0.489406 7.22183 0.458669 7.37768C0.427932 7.53353 0.400174 7.68994 0.375396 7.84691C0.350618 8.00388 0.328838 8.16129 0.310058 8.31914C0.291277 8.47699 0.275509 8.63516 0.262755 8.79364C0.25 8.95212 0.240269 9.1108 0.23356 9.26968C0.226851 9.42856 0.22317 9.58751 0.222518 9.74653C0.221865 9.90556 0.224241 10.0645 0.229645 10.2235C0.23505 10.3824 0.243478 10.5411 0.254931 10.6997C0.266385 10.8583 0.280853 11.0166 0.298338 11.1746C0.315822 11.3326 0.336309 11.4902 0.359797 11.6474C0.383286 11.8046 0.409759 11.9612 0.439216 12.1173C0.468673 12.2735 0.501091 12.4289 0.536471 12.5837C0.571851 12.7385 0.610166 12.8926 0.651415 13.0458C0.692663 13.1991 0.736815 13.3515 0.783869 13.5029C0.830923 13.6544 0.880844 13.8049 0.933632 13.9544C0.986419 14.1038 1.04203 14.2522 1.10047 14.3994C1.15891 14.5466 1.22013 14.6926 1.28413 14.8374C1.34814 14.9822 1.41487 15.1256 1.48434 15.2676C1.5538 15.4097 1.62595 15.5503 1.70077 15.6895C1.7756 15.8287 1.85304 15.9663 1.93311 16.1023C2.01317 16.2383 2.0958 16.3727 2.18099 16.5054C2.26617 16.6381 2.35385 16.7691 2.44403 16.8983C2.5342 17.0274 2.6268 17.1547 2.72183 17.2802C2.81685 17.4056 2.91423 17.5291 3.01396 17.6506C3.11369 17.7721 3.2157 17.8916 3.31998 18.009C3.42426 18.1264 3.53074 18.2417 3.63941 18.3548C3.74809 18.4679 3.85887 18.5788 3.97177 18.6874C4.08467 18.7961 4.19959 18.9024 4.31654 19.0064L6.76698 16.0922C6.62269 15.8879 6.48584 15.6786 6.35642 15.4641C6.22701 15.2496 6.10537 15.0305 5.99151 14.8068C5.87766 14.5832 5.77188 14.3556 5.6742 14.124C5.57651 13.8924 5.48716 13.6574 5.40616 13.4191C5.32516 13.1808 5.25272 12.9398 5.18884 12.696C5.12496 12.4523 5.06981 12.2064 5.02338 11.9585C4.97696 11.7106 4.93939 11.4613 4.91068 11.2106C4.88197 10.9599 4.86218 10.7084 4.85133 10.4562C4.84048 10.204 4.83858 9.95174 4.84565 9.69939C4.85271 9.44704 4.86872 9.19529 4.89366 8.94414C4.91861 8.693 4.95243 8.44312 4.99512 8.19452C5.03781 7.94591 5.08927 7.69924 5.14948 7.4545C5.20969 7.20976 5.27851 6.96761 5.35592 6.72804C5.43333 6.48847 5.51914 6.25213 5.61334 6.01901C5.70754 5.78589 5.80988 5.55661 5.92036 5.33118C6.03085 5.10575 6.14918 4.88477 6.27536 4.66823Z" fill="white"/>
<path fill-rule="evenodd" clip-rule="evenodd" d="M25.1177 8.43815C25.0806 8.19562 25.0348 7.95483 24.9804 7.71577C24.9261 7.47671 24.8632 7.24003 24.7918 7.00574C24.7205 6.77145 24.6409 6.54018 24.5529 6.31192C24.465 6.08367 24.369 5.85905 24.265 5.63808C24.161 5.4171 24.0492 5.20036 23.9296 4.98786C23.8101 4.77536 23.6831 4.56767 23.5487 4.3648C23.4142 4.16192 23.2727 3.96442 23.1241 3.77227C22.9755 3.58013 22.8202 3.39387 22.6583 3.2135C22.4964 3.03313 22.3282 2.85914 22.1538 2.69152C21.9794 2.5239 21.7992 2.36311 21.6132 2.20915C21.4273 2.05519 21.2361 1.90848 21.0397 1.76902C20.8432 1.62956 20.642 1.49772 20.4361 1.37352C20.2303 1.24931 20.0202 1.13306 19.806 1.02478C19.5917 0.916496 19.3739 0.816471 19.1525 0.724704C18.9311 0.632936 18.7067 0.549675 18.4794 0.47492C18.252 0.400165 18.0223 0.334119 17.7902 0.276783C17.5581 0.219446 17.3243 0.170974 17.0887 0.131367C16.8531 0.0917591 16.6164 0.0611239 16.3787 0.0394608C16.1409 0.0177977 15.9027 0.00516547 15.664 0.00156419C15.4254 -0.0020371 15.1869 0.00340231 14.9486 0.0178824C14.7103 0.0323625 14.4729 0.0558439 14.2363 0.0883268C13.9997 0.12081 13.7646 0.162206 13.5309 0.212515C13.2973 0.262825 13.0658 0.321911 12.8364 0.389774C12.607 0.457637 12.3803 0.534092 12.1564 0.619141C11.9325 0.704189 11.7119 0.797599 11.4947 0.899371C11.2775 1.00114 11.0642 1.111 10.8548 1.22894C10.6455 1.34689 10.4406 1.4726 10.2403 1.60607C10.0399 1.73955 9.84466 1.88043 9.65441 2.02871C9.46416 2.17699 9.27948 2.33227 9.10037 2.49456C8.92125 2.65684 8.74818 2.82569 8.58117 3.0011C8.41415 3.1765 8.25364 3.35799 8.09963 3.54557C7.94562 3.73315 7.79853 3.9263 7.65836 4.12503C7.47917 4.37865 7.31071 4.64015 7.15602 4.91267C7.10242 5.00719 7.04882 5.1017 7.00287 5.1978C6.95693 5.29389 6.90179 5.38998 6.84972 5.48765C6.75476 5.68298 6.6644 5.88147 6.58017 6.0831C6.53729 6.18392 6.49747 6.28632 6.45918 6.38871C6.38107 6.5935 6.30603 6.80143 6.2463 7.01882C6.21414 7.12436 6.18351 7.22991 6.15441 7.33388C6.09621 7.54654 6.04567 7.76235 6.00126 7.98132C5.98594 8.05536 5.97216 8.13097 5.95837 8.20658L5.9354 8.33733C5.92162 8.42397 5.90936 8.51061 5.89711 8.59725L5.88792 8.66342C5.87567 8.76108 5.86342 8.85875 5.8527 8.95799C5.85345 8.96902 5.85345 8.98005 5.8527 8.99107C5.8527 9.07929 5.83738 9.16751 5.83126 9.25572C5.83126 9.3014 5.83126 9.34551 5.82207 9.38962C5.82207 9.47784 5.81288 9.56448 5.80981 9.65269C5.80981 9.76611 5.80981 9.87953 5.80981 9.99295C5.81001 10.5213 5.85034 11.0464 5.9308 11.5682C5.95837 11.751 5.99207 11.9305 6.02882 12.1086C6.04414 12.181 6.05945 12.2519 6.0763 12.3228C6.09315 12.3937 6.11306 12.4803 6.1345 12.5622C6.1336 12.5675 6.1336 12.5727 6.1345 12.578C6.15441 12.6568 6.17432 12.7355 6.19729 12.8127C6.22026 12.8899 6.25396 13.008 6.28459 13.1057C6.329 13.2443 6.37495 13.3814 6.42396 13.5169C6.45663 13.604 6.48879 13.6891 6.52044 13.7721C6.55209 13.855 6.58119 13.9259 6.60774 13.9847C6.6399 14.0603 6.67206 14.1422 6.70576 14.21C6.73945 14.2777 6.77467 14.3675 6.8099 14.4321C6.84512 14.4967 6.88035 14.5786 6.91711 14.6511C7.04473 14.9 7.18053 15.1415 7.32449 15.3757C7.36278 15.4371 7.40107 15.4986 7.44242 15.5584C7.49755 15.6435 7.55422 15.7286 7.61395 15.8136C7.69734 15.9337 7.78327 16.0519 7.87175 16.168C7.96023 16.2842 8.05116 16.3984 8.14455 16.5104C8.23794 16.6224 8.3337 16.7323 8.43182 16.84C8.52994 16.9477 8.63034 17.0531 8.733 17.1562C8.83566 17.2593 8.94048 17.36 9.04748 17.4583C9.15448 17.5567 9.26354 17.6525 9.37466 17.7459C9.48579 17.8392 9.59887 17.93 9.7139 18.0183C9.82893 18.1065 9.94581 18.192 10.0645 18.2749C10.1832 18.3578 10.3037 18.4379 10.4259 18.5153C10.548 18.5927 10.6718 18.6673 10.7972 18.7391C10.9226 18.8109 11.0494 18.8797 11.1778 18.9457C11.3061 19.0117 11.4358 19.0747 11.5669 19.1348C11.6979 19.1949 11.8302 19.2519 11.9637 19.306C12.0973 19.36 12.2319 19.411 12.3676 19.4589C12.5033 19.5069 12.64 19.5517 12.7776 19.5933C12.9153 19.635 13.0537 19.6736 13.193 19.709C13.3323 19.7443 13.4723 19.7765 13.613 19.8055C13.7537 19.8345 13.8949 19.8603 14.0367 19.8829C14.1785 19.9055 14.3208 19.9248 14.4634 19.9409C14.606 19.957 14.7489 19.9698 14.8921 19.9794C15.0353 19.989 15.1786 19.9953 15.3221 19.9984C15.4655 20.0014 15.609 20.0012 15.7524 19.9977C15.8959 19.9942 16.0392 19.9875 16.1823 19.9775C16.3255 19.9675 16.4683 19.9542 16.6109 19.9377C16.7535 19.9212 16.8957 19.9014 17.0374 19.8784C17.1791 19.8554 17.3203 19.8292 17.4609 19.7998C17.6015 19.7704 17.7414 19.7377 17.8806 19.7019C18.0198 19.6661 18.1582 19.6272 18.2957 19.5851C18.4332 19.543 18.5698 19.4978 18.7053 19.4495C18.8409 19.4011 18.9754 19.3497 19.1087 19.2953C19.2421 19.2409 19.3742 19.1834 19.5051 19.1229C19.636 19.0625 19.7655 18.999 19.8937 18.9327C20.6858 18.5227 21.4092 18.0103 22.0639 17.3952C21.4102 17.2768 20.7915 17.0552 20.2077 16.7304C19.8578 16.5324 19.5285 16.3033 19.2196 16.043C18.9107 15.7827 18.6275 15.4957 18.3698 15.1819C18.3163 15.1162 18.2775 15.0423 18.2533 14.9603C18.2291 14.8782 18.2215 14.7946 18.2305 14.7093C18.2388 14.6515 18.2598 14.599 18.2933 14.5518C18.3142 14.5233 18.3397 14.5 18.3697 14.482C18.3997 14.464 18.4319 14.4526 18.4663 14.4478C18.5254 14.4451 18.582 14.4562 18.6359 14.4812C18.6899 14.5061 18.7354 14.5423 18.7726 14.5896C18.9219 14.7499 19.0805 14.8997 19.2485 15.039C19.4165 15.1782 19.5926 15.3058 19.7766 15.4217C19.9606 15.5376 20.1511 15.6409 20.3481 15.7315C20.545 15.8222 20.7469 15.8994 20.9535 15.9633C21.1472 16.0187 21.3437 16.0602 21.543 16.0877C21.7423 16.1151 21.9425 16.1283 22.1436 16.1273C22.3447 16.1262 22.5447 16.1109 22.7437 16.0813C22.9427 16.0517 23.1388 16.0082 23.332 15.9507C23.5237 15.685 23.7021 15.4101 23.8672 15.1262C24.0323 14.8422 24.1832 14.5505 24.32 14.251C24.4568 13.9515 24.5788 13.6458 24.686 13.3338C24.7932 13.0219 24.885 12.7052 24.9615 12.3838C25.038 12.0624 25.0987 11.7379 25.1437 11.4103C25.1887 11.0827 25.2178 10.7535 25.2309 10.4229C25.2441 10.0923 25.2411 9.76188 25.2222 9.43158C25.2033 9.10128 25.1685 8.77276 25.1177 8.44602V8.43815ZM19.9764 7.39059C19.9462 7.42143 19.9147 7.45068 19.8818 7.47834C19.8488 7.50601 19.8146 7.53195 19.7792 7.55618C19.7438 7.5804 19.7073 7.60279 19.6698 7.62334C19.6322 7.64389 19.5938 7.6625 19.5545 7.67918C19.5152 7.69586 19.4752 7.71053 19.4345 7.72318C19.3938 7.73584 19.3525 7.74641 19.3108 7.75492C19.2691 7.76342 19.2271 7.76981 19.1848 7.77408C19.1424 7.77835 19.1 7.78049 19.0575 7.78049C19.015 7.78049 18.9725 7.77835 18.9302 7.77408C18.8879 7.76981 18.8459 7.76342 18.8041 7.75492C18.7624 7.74641 18.7212 7.73584 18.6805 7.72318C18.6398 7.71053 18.5998 7.69586 18.5605 7.67918C18.5212 7.6625 18.4827 7.64389 18.4452 7.62334C18.4076 7.60279 18.3712 7.5804 18.3358 7.55618C18.3003 7.53195 18.2662 7.50601 18.2332 7.47834C18.2003 7.45068 18.1687 7.42143 18.1386 7.39059C18.1068 7.36003 18.0766 7.32791 18.048 7.29424C18.0194 7.26056 17.9924 7.2255 17.9672 7.18904C17.942 7.15259 17.9187 7.11493 17.8971 7.07606C17.8756 7.0372 17.856 6.99732 17.8384 6.95644C17.8207 6.91555 17.8051 6.87386 17.7915 6.83136C17.778 6.78886 17.7665 6.74577 17.7571 6.70209C17.7477 6.6584 17.7405 6.61435 17.7355 6.56992C17.7304 6.52549 17.7275 6.48092 17.7268 6.43619C17.726 6.39146 17.7275 6.34681 17.7311 6.30223C17.7347 6.25765 17.7405 6.21338 17.7485 6.1694C17.7564 6.12542 17.7665 6.08196 17.7787 6.03902C17.7909 5.99608 17.8051 5.95387 17.8214 5.9124C17.8378 5.87093 17.856 5.83041 17.8763 5.79082C17.8966 5.75124 17.9187 5.7128 17.9427 5.6755C17.9667 5.63821 17.9925 5.60224 18.02 5.5676C18.0475 5.53296 18.0767 5.49983 18.1074 5.46819C18.1382 5.43656 18.1704 5.4066 18.2041 5.37829C18.2377 5.34998 18.2727 5.32348 18.309 5.29878C18.3452 5.27409 18.3826 5.25132 18.4211 5.23048C18.4596 5.20964 18.499 5.19083 18.5393 5.17406C18.5796 5.15728 18.6206 5.14263 18.6624 5.13009C18.7041 5.11755 18.7464 5.10719 18.7891 5.09901C18.8319 5.09084 18.8749 5.08488 18.9183 5.08114C18.9616 5.07741 19.005 5.07592 19.0485 5.07666C19.092 5.07741 19.1353 5.08039 19.1785 5.08561C19.2217 5.09083 19.2646 5.09826 19.307 5.1079C19.3495 5.11754 19.3914 5.12934 19.4327 5.1433C19.474 5.15726 19.5146 5.17332 19.5543 5.19147C19.5941 5.20961 19.6328 5.22976 19.6706 5.25191C19.7084 5.27406 19.745 5.29809 19.7805 5.32402C19.8159 5.34995 19.85 5.37763 19.8827 5.40708C19.9155 5.43653 19.9467 5.46758 19.9764 5.50025C20.0368 5.56229 20.0907 5.6298 20.1382 5.70276C20.1856 5.77573 20.2257 5.85275 20.2584 5.93384C20.2912 6.01492 20.3159 6.09851 20.3326 6.1846C20.3493 6.27069 20.3577 6.35763 20.3578 6.44542C20.3578 6.53323 20.3495 6.6202 20.3329 6.70632C20.3162 6.79244 20.2915 6.87605 20.2588 6.95715C20.2261 7.03826 20.1859 7.11528 20.1384 7.18822C20.0909 7.26117 20.0369 7.32862 19.9764 7.39059Z" fill="white"/>
</g>
<path fill-rule="evenodd" clip-rule="evenodd" d="M147.126 15.4533V13.3335H148.653V4.35026H147.126V2.23054H151.67V6.9945C152.627 6.34466 153.523 6.02438 154.366 6.02438C156.305 6.02438 157.274 7.15232 157.274 9.41748V13.3335H158.664V15.4533H154.248V9.55054C154.248 9.11886 154.168 8.82334 154.007 8.66088C153.846 8.49996 153.609 8.41796 153.288 8.41796C152.839 8.41796 152.3 8.61291 151.67 8.99972V13.3335H153.025V15.4533H147.126ZM137.517 15.4533V12.2861H139.731C139.751 12.7177 139.955 13.0612 140.347 13.3181C140.741 13.5734 141.221 13.7033 141.798 13.7033C142.292 13.7033 142.679 13.6182 142.958 13.4511C143.234 13.2856 143.375 13.0721 143.375 12.8121C143.375 12.5677 143.247 12.3835 142.992 12.2505C142.737 12.1174 142.239 11.9905 141.493 11.8683C139.958 11.6269 138.853 11.2618 138.174 10.7713C137.493 10.2808 137.153 9.6279 137.153 8.81715C137.153 8.059 137.474 7.41535 138.112 6.89393C138.754 6.37096 139.604 6.10793 140.661 6.10793C141.516 6.10793 142.314 6.26111 143.06 6.56591V6.25027H145.224V8.92081H143.06C142.864 8.2818 142.172 7.96152 140.985 7.96152C140.109 7.96152 139.671 8.19825 139.671 8.66552C139.671 8.84345 139.762 8.97651 139.942 9.0709C140.119 9.16218 140.581 9.27204 141.315 9.39891C142.486 9.59232 143.362 9.79036 143.944 9.98532C144.522 10.1834 144.988 10.5083 145.337 10.9616C145.686 11.4134 145.863 11.958 145.863 12.5909C145.863 13.4883 145.532 14.2294 144.867 14.8003C144.204 15.3744 143.265 15.6606 142.051 15.6606C140.921 15.6606 140.149 15.4393 139.731 14.9953V15.4533H137.517ZM130.09 8.37928H131.532V13.3335H130.09V15.4533H135.969V13.3335H134.559V6.25027H130.09V8.37928ZM131.422 3.61996C131.422 3.17436 131.586 2.79528 131.906 2.47655C132.232 2.15937 132.622 2 133.08 2C133.541 2 133.933 2.15937 134.255 2.47655C134.574 2.79528 134.736 3.17436 134.736 3.61996C134.736 4.05938 134.572 4.44 134.25 4.75409C133.926 5.06663 133.536 5.226 133.08 5.226C132.629 5.226 132.241 5.06663 131.913 4.74945C131.586 4.43381 131.422 4.05474 131.422 3.61996ZM128.66 13.3335V15.4533H122.775V13.3335H124.147V8.37928H122.873V6.25027H124.147V5.40393C124.147 4.43381 124.454 3.62615 125.073 2.97786C125.688 2.32802 126.608 2 127.828 2C129.312 2 130.366 2.43168 130.994 3.29659L128.797 4.95987C128.604 4.29766 128.322 3.96964 127.955 3.96964C127.433 3.96964 127.173 4.39513 127.173 5.24457V6.25027H128.66V8.37928H127.173V13.3335H128.66ZM114.714 6.25027V7.36429C115.908 6.52568 116.999 6.10793 117.984 6.10793C118.6 6.10793 119.108 6.25027 119.51 6.52878C119.91 6.81347 120.175 7.16005 120.298 7.56698C120.422 7.977 120.483 8.57423 120.483 9.36023V13.8457H122.08V15.4533H118.624V9.4345C118.624 8.73979 118.517 8.2849 118.298 8.07138C118.085 7.86095 117.822 7.75265 117.506 7.75265C116.683 7.75265 115.751 8.141 114.714 8.92081V13.8457H116.35V15.4533H111.188V13.8457H112.852V7.85786H111.188V6.25027H114.714ZM101.883 10.8518C101.883 11.7569 102.178 12.4996 102.761 13.0813C103.345 13.6616 104.059 13.9494 104.903 13.9494C105.757 13.9494 106.473 13.6585 107.052 13.0721C107.631 12.4841 107.918 11.7445 107.918 10.8518C107.918 9.95282 107.623 9.21015 107.034 8.62529C106.449 8.04508 105.738 7.75265 104.903 7.75265C104.026 7.75265 103.303 8.05126 102.734 8.64541C102.167 9.24264 101.883 9.97603 101.883 10.8518ZM99.917 10.8518C99.917 9.4345 100.399 8.26788 101.363 7.3581C102.331 6.44987 103.511 5.99498 104.903 5.99498C106.266 5.99498 107.439 6.44213 108.415 7.34108C109.394 8.23539 109.887 9.4082 109.887 10.8518C109.887 12.2953 109.399 13.4697 108.421 14.3687C107.446 15.2676 106.272 15.7194 104.903 15.7194C103.49 15.7194 102.307 15.2614 101.352 14.3501C100.394 13.4372 99.917 12.2721 99.917 10.8518ZM90.3843 10.8518C90.3843 11.7569 90.6793 12.4996 91.2628 13.0813C91.8463 13.6616 92.5606 13.9494 93.404 13.9494C94.2586 13.9494 94.9745 13.6585 95.5532 13.0721C96.132 12.4841 96.419 11.7445 96.419 10.8518C96.419 9.95282 96.124 9.21015 95.5373 8.62529C94.9506 8.04508 94.2395 7.75265 93.404 7.75265C92.5271 7.75265 91.8049 8.05126 91.2373 8.64541C90.6681 9.24264 90.3843 9.97603 90.3843 10.8518ZM88.4185 10.8518C88.4185 9.4345 88.9 8.26788 89.8661 7.3581C90.8323 6.44987 92.0122 5.99498 93.404 5.99498C94.7672 5.99498 95.9407 6.44213 96.9164 7.34108C97.8969 8.23539 98.388 9.4082 98.388 10.8518C98.388 12.2953 97.9001 13.4697 96.9244 14.3687C95.947 15.2676 94.7736 15.7194 93.404 15.7194C91.9914 15.7194 90.8084 15.2614 89.8534 14.3501C88.8968 13.4372 88.4185 12.2721 88.4185 10.8518ZM79.2876 15.4533V12.2953H80.9521V12.6002C81.0126 13.0318 81.2534 13.3862 81.6711 13.6647C82.092 13.9447 82.5895 14.084 83.165 14.084C83.7677 14.084 84.246 13.9818 84.6063 13.7776C84.9635 13.578 85.1452 13.2949 85.1452 12.9344C85.1452 12.5847 84.997 12.3278 84.7004 12.1638C84.4023 12.0014 83.8155 11.8466 82.9307 11.7089C81.6249 11.4908 80.6954 11.1442 80.1357 10.6661C79.5777 10.1865 79.2971 9.56911 79.2971 8.80787C79.2971 8.04198 79.6016 7.39988 80.2075 6.8831C80.8149 6.36786 81.6137 6.10793 82.607 6.10793C83.5046 6.10793 84.2731 6.28741 84.9204 6.64018V6.25027H86.5754V9.29989H84.9204V8.74288C84.415 7.98628 83.6864 7.6103 82.725 7.6103C82.2371 7.6103 81.8321 7.71551 81.5181 7.9182C81.2008 8.12708 81.0429 8.39785 81.0429 8.74288C81.0429 9.09101 81.1864 9.32929 81.4782 9.45925C81.7684 9.58922 82.3934 9.72538 83.3532 9.87237C84.2731 10.0116 84.9683 10.1772 85.4402 10.3613C85.9089 10.5501 86.298 10.858 86.6089 11.2927C86.9214 11.7275 87.0728 12.2335 87.0728 12.8121C87.0728 13.6647 86.7364 14.347 86.062 14.8498C85.386 15.3527 84.5107 15.6049 83.4297 15.6049C82.4205 15.6049 81.5946 15.3852 80.9521 14.9396V15.4533H79.2876ZM71.0319 6.25027V7.36429C72.2261 6.52568 73.3167 6.10793 74.302 6.10793C74.9174 6.10793 75.426 6.25027 75.8262 6.52878C76.228 6.81347 76.4926 7.16005 76.6154 7.56698C76.7398 7.977 76.8003 8.57423 76.8003 9.36023V13.8457H78.3979V15.4533H74.9413V9.4345C74.9413 8.73979 74.8345 8.2849 74.6161 8.07138C74.4024 7.86095 74.1378 7.75265 73.8237 7.75265C73.001 7.75265 72.0683 8.141 71.0319 8.92081V13.8457H72.6678V15.4533H67.5052V13.8457H69.1697V7.85786H67.5052V6.25027H71.0319ZM58.1989 10.8518C58.1989 11.7569 58.4939 12.4996 59.079 13.0813C59.6609 13.6616 60.3768 13.9494 61.2186 13.9494C62.0748 13.9494 62.7907 13.6585 63.3694 13.0721C63.9482 12.4841 64.2352 11.7445 64.2352 10.8518C64.2352 9.95282 63.9402 9.21015 63.3535 8.62529C62.7668 8.04508 62.0541 7.75265 61.2186 7.75265C60.3433 7.75265 59.6211 8.05126 59.0535 8.64541C58.4843 9.24264 58.1989 9.97603 58.1989 10.8518ZM56.2331 10.8518C56.2331 9.4345 56.7146 8.26788 57.6807 7.3581C58.6469 6.44987 59.8284 5.99498 61.2186 5.99498C62.5834 5.99498 63.7569 6.44213 64.7326 7.34108C65.7131 8.23539 66.2042 9.4082 66.2042 10.8518C66.2042 12.2953 65.7147 13.4697 64.7406 14.3687C63.7632 15.2676 62.5898 15.7194 61.2186 15.7194C59.8076 15.7194 58.6246 15.2614 57.668 14.3501C56.7114 13.4372 56.2331 12.2721 56.2331 10.8518ZM40.3357 13.8457V7.85786H38.7573V6.25027H42.1963V7.40916C43.3219 6.5427 44.422 6.10793 45.4982 6.10793C46.5808 6.10793 47.3301 6.58912 47.7415 7.54222C48.9755 6.58912 50.1251 6.10793 51.1885 6.10793C51.8039 6.10793 52.3077 6.24099 52.7031 6.50402C53.097 6.76551 53.3648 7.09816 53.5019 7.4989C53.639 7.90273 53.706 8.49532 53.706 9.28442V13.8457H55.361V15.4533H51.8438V9.60624C51.8438 9.07399 51.8199 8.69646 51.7704 8.47985C51.7242 8.26324 51.5998 8.08066 51.399 7.93832C51.2013 7.79442 50.9621 7.72325 50.6799 7.72325C49.8843 7.72325 48.9787 8.11934 47.9663 8.91153V13.8457H49.5941V15.4533H46.1073V9.4345C46.1073 8.83417 46.0164 8.39785 45.8362 8.12863C45.6545 7.86095 45.3499 7.72325 44.9195 7.72325C44.2132 7.72325 43.3076 8.11934 42.1963 8.91153V13.8457H43.8624V15.4533H38.6409V13.8457H40.3357Z" fill="white"/>
</svg>
