<?xml version="1.0" encoding="utf-8"?>
<svg width="18" height="18" viewBox="0 0 18 18" fill="none" xmlns="http://www.w3.org/2000/svg">
<path d="M2.75 0.750005C1.64543 0.750006 0.75 1.64544 0.750001 2.75001L0.750004 15.25C0.750005 16.3546 1.64544 17.25 2.75 17.25C6.91667 17.25 11.0833 17.25 15.25 17.25C16.3546 17.25 17.25 16.3546 17.25 15.25V2.75C17.25 1.64543 16.3546 0.75 15.25 0.750001L2.75 0.750005ZM13.6292 6.72117C13.6292 6.80001 13.6292 6.87792 13.6292 7.03559C13.6292 10.0212 11.3503 13.4788 7.18592 13.4788C5.92917 13.4788 4.75034 13.0856 3.72917 12.4577C3.88592 12.4577 4.12242 12.4577 4.27917 12.4577C5.30034 12.4577 6.32242 12.0644 7.108 11.5144C6.08684 11.5144 5.30126 10.8077 4.98684 9.94326C5.14359 9.94326 5.30126 10.0221 5.38009 10.0221C5.61567 10.0221 5.77334 10.0221 6.00892 9.94326C4.98776 9.70767 4.20217 8.84326 4.20217 7.74326C4.51659 7.90001 4.83101 7.97884 5.22334 8.05767C4.59451 7.50767 4.20217 6.87884 4.20217 6.09326C4.20217 5.70001 4.28101 5.30767 4.51659 4.99326C5.61659 6.32884 7.26659 7.27209 9.15217 7.35001C9.15217 7.19326 9.07334 7.03559 9.07334 6.80001C9.07334 5.54326 10.0945 4.52117 11.3522 4.52117C11.981 4.52117 12.6089 4.75676 13.0022 5.22792C13.5522 5.14909 14.0233 4.91351 14.4166 4.67792C14.2598 5.22792 13.8666 5.62117 13.3954 5.93467C13.8666 5.85584 14.2598 5.77792 14.731 5.54142C14.4148 6.01442 14.0224 6.40676 13.6292 6.72117Z" fill="white"/>
</svg>
