<?xml version="1.0" encoding="utf-8"?>
<svg width="14" height="14" viewBox="0 0 14 14" fill="none" xmlns="http://www.w3.org/2000/svg">
<path d="M10.135 9.06775C9.99121 9.35798 9.78709 9.61375 9.53651 9.81777C9.44733 9.88866 9.34447 9.94012 9.23446 9.9689C9.12446 9.99767 9.00971 10.0031 8.8975 9.98491C7.73808 9.78473 6.67287 9.21624 5.85794 8.36274C5.02131 7.49976 4.46942 6.3983 4.27746 5.20839C4.25774 5.09153 4.26172 4.97187 4.28918 4.8566C4.31663 4.74133 4.36699 4.63284 4.43721 4.53767C4.6316 4.28047 4.87949 4.06911 5.16355 3.91837C5.19117 3.88959 5.22426 3.86671 5.26085 3.85108C5.29745 3.83545 5.3368 3.82739 5.37656 3.82739C5.41631 3.82739 5.45566 3.83545 5.49226 3.85108C5.52885 3.86671 5.56194 3.88959 5.58956 3.91837L6.57576 4.95982C6.6364 5.02527 6.67012 5.11142 6.67012 5.20089C6.67012 5.29037 6.6364 5.37652 6.57576 5.44197L5.87072 6.21127C6.16893 6.86914 7.27654 8.01559 7.91129 8.32417L8.65468 7.59344C8.68518 7.5624 8.7215 7.53777 8.76154 7.52095C8.80158 7.50413 8.84453 7.49548 8.88791 7.49548C8.9313 7.49548 8.97425 7.50413 9.01429 7.52095C9.05432 7.53777 9.09065 7.5624 9.12115 7.59344L10.1265 8.62203C10.1855 8.68053 10.2193 8.75988 10.2209 8.84315C10.2225 8.92642 10.1917 9.00702 10.135 9.06775Z" fill="white"/>
<path d="M6.71434 1.01903C5.77041 1.09639 4.85952 1.40443 4.0608 1.9164C3.26208 2.42838 2.5997 3.1288 2.13118 3.95682C1.66266 4.78485 1.40218 5.71544 1.37237 6.66775C1.34256 7.62006 1.54431 8.56529 1.96011 9.42134C2.00606 9.51725 2.03255 9.62142 2.03804 9.72775C2.04352 9.83408 2.02789 9.94045 1.99206 10.0406L1.00586 12.8628C0.99956 12.8807 0.998312 12.9 1.00225 12.9186C1.00619 12.9372 1.01516 12.9543 1.02818 12.968C1.04119 12.9818 1.05773 12.9917 1.07597 12.9965C1.09422 13.0014 1.11344 13.0011 1.13153 12.9957L4.09653 12.0914C4.2856 12.0317 4.49003 12.0455 4.66951 12.13C5.47505 12.5183 6.35865 12.7147 7.25182 12.7041C8.14499 12.6935 9.02373 12.4761 9.81993 12.0688C10.6161 11.6614 11.3084 11.0751 11.843 10.3552C12.3777 9.63536 12.7404 8.8013 12.903 7.91769C13.0656 7.03408 13.0238 6.12467 12.7808 5.25994C12.5377 4.39522 12.1 3.59841 11.5016 2.9313C10.9031 2.26419 10.16 1.74469 9.3298 1.41307C8.49961 1.08145 7.60467 0.946619 6.71434 1.01903V1.01903Z" stroke="white" stroke-miterlimit="10" stroke-linecap="round"/>
</svg>
