<?xml version="1.0" encoding="UTF-8" ?>
<svg width="30" height="30" viewBox="0 0 30 30" fill="none" xmlns="http://www.w3.org/2000/svg">
<path d="M11.25 27.5H18.75C25 27.5 27.5 25 27.5 18.75V11.25C27.5 5.00001 25 2.50001 18.75 2.50001H11.25C5 2.50001 2.5 5.00001 2.5 11.25V18.75C2.5 25 5 27.5 11.25 27.5Z" stroke="#292D32" stroke-width="2" stroke-linecap="round" stroke-linejoin="round"/>
<path opacity="0.6" d="M14.8399 13.5567C14.985 12.5526 15.0779 10.295 13.4265 8.56078C11.775 6.82656 9.62511 6.92411 8.66893 7.07656C8.35724 7.12626 8.12028 7.3751 8.07296 7.7024C7.92777 8.70648 7.83488 10.9641 9.48636 12.6983C11.1378 14.4325 13.2877 14.3349 14.2439 14.1825C14.5556 14.1328 14.7925 13.884 14.8399 13.5567ZM14.8399 13.5567L14.84 24M20.3412 19.4986C22.4158 18.2408 22.8884 15.9742 22.9956 14.9485C23.0299 14.6194 22.8627 14.3153 22.5741 14.182C21.6746 13.7666 19.5691 13.063 17.4944 14.3209C15.4197 15.5787 14.9471 17.8453 14.84 18.871C14.8056 19.2001 14.9728 19.5042 15.2614 19.6375C16.1609 20.0529 18.2665 20.7565 20.3412 19.4986Z" stroke="#EC1C24" stroke-width="2" stroke-linecap="round" stroke-linejoin="round"/>
</svg>
