<?xml version="1.0" encoding="UTF-8" ?>
<svg width="30" height="31" viewBox="0 0 30 31" fill="none" xmlns="http://www.w3.org/2000/svg">
<path opacity="0.6" d="M12.9737 4.02153C12.9796 3.99289 13.0205 3.99289 13.0263 4.02153C13.3302 5.50812 14.4919 6.66988 15.9785 6.97373C16.0072 6.97958 16.0072 7.02051 15.9785 7.02636C14.4919 7.33021 13.3302 8.49197 13.0263 9.97856C13.0205 10.0072 12.9796 10.0072 12.9737 9.97856C12.6699 8.49197 11.5081 7.33021 10.0215 7.02636C9.99286 7.02051 9.99286 6.97958 10.0215 6.97373C11.5081 6.66988 12.6699 5.50812 12.9737 4.02153Z" stroke="#EC1C24" stroke-width="2"/>
<path opacity="0.6" d="M8.12066 0.309716C8.20505 -0.103178 8.795 -0.103178 8.87939 0.309716C9.06578 1.22163 9.77843 1.93429 10.6904 2.12068C11.1032 2.20507 11.1032 2.79502 10.6904 2.87941C9.77843 3.0658 9.06578 3.77846 8.87939 4.69038C8.795 5.10327 8.20505 5.10327 8.12066 4.69038C7.93427 3.77846 7.22161 3.0658 6.30969 2.87941C5.8968 2.79502 5.8968 2.20507 6.30969 2.12068C7.22161 1.93429 7.93427 1.22163 8.12066 0.309716Z" fill="#EC1C24"/>
<path d="M11.1983 19.5244L17.3841 27.9659C18.188 29.0628 19.7703 29.3294 20.9183 28.5613C22.0663 27.7932 22.3453 26.2813 21.5414 25.1843L15.3556 16.7429M11.1983 19.5244L9.3789 17.0417C8.57506 15.9447 8.85406 14.4328 10.0021 13.6647C11.1501 12.8966 12.7324 13.1632 13.5362 14.2601L15.3556 16.7429M11.1983 19.5244L15.3556 16.7429M18.7644 4.00005C22.4615 4.6377 25.6505 6.8001 27.1462 10.106C28.8741 13.9252 27.8904 18.2719 24.9986 21.4716M5.58308 8.84938C3.54864 11.3439 2.62071 14.4425 3.14331 17.4284" stroke="#202124" stroke-width="2" stroke-linecap="round"/>
</svg>
