<?xml version="1.0" encoding="UTF-8"?><svg width="103" height="42" viewBox="0 0 103 42" fill="none" xmlns="http://www.w3.org/2000/svg">
<g clip-path="url(#clip0_2_6)">
<path fill-rule="evenodd" clip-rule="evenodd" d="M13.2814 31.8704L12.1253 34.0414L10.0169 34.0562L7.91588 34.071C7.13229 34.0764 6.34901 34.082 5.56558 34.0876L3.43405 30.2055L2.84122 29.1258L2.24838 28.046L2.94451 26.739L4.33456 24.129L5.49056 21.9578C6.8939 21.9481 8.29708 21.9381 9.70026 21.9282L12.0503 21.9116L14.1819 25.7937L14.4972 26.3679L15.3676 27.9532L13.2814 31.8704ZM3.36321 15.9122L2.17755 13.7529L4.26372 9.83558L5.41972 7.66458L9.62943 7.63496L11.9794 7.61831L14.1109 11.5005C14.5063 12.2203 14.9014 12.9401 15.2966 13.66L13.2106 17.5771L12.0544 19.7481L7.84473 19.7779L5.49474 19.7944C4.78413 18.5004 4.07367 17.2063 3.36321 15.9122ZM25.8779 24.5554L25.422 23.7125L24.8575 24.7726L23.7015 26.9436L21.593 26.9585L19.4918 26.9732C18.7084 26.9787 17.9251 26.9843 17.1418 26.9899L15.5773 24.1405L15.0103 23.1077L13.8245 20.9483C14.3793 19.9066 14.934 18.865 15.4888 17.8233L15.4987 17.8047L15.5116 17.7804L15.5198 17.7649L15.9106 17.031L17.0668 14.8602L21.2763 14.8304L23.5642 14.8143L22.7947 13.3917L23.1927 12.6556L19.4034 12.6824L18.6147 12.6879L17.0345 12.6992L15.3581 9.64591L14.119 7.38932C13.8894 6.97085 13.6597 6.55253 13.4299 6.13422C13.2504 5.80715 12.9117 5.59744 12.5556 5.6C10.9772 5.61121 9.39855 5.62227 7.82015 5.63333L7.7563 5.63378L5.17451 5.65203C4.69522 5.65539 4.23367 5.66612 3.94584 6.20674L3.77205 6.53308L3.71075 6.64827L0.799868 12.114L0.12629 13.3788C0.0346384 13.5508 -0.00459609 13.7414 0.000425927 13.9295C0.000582865 13.9439 0.00121062 13.9583 0.00199531 13.9727L0.00277665 13.9844L0.00434937 14.0066C0.0165905 14.1608 0.0586499 14.3138 0.135706 14.4542L2.56291 18.8748L3.74026 21.0192L1.64498 24.9537L0.679836 26.7658L0.197226 27.672C0.105574 27.8443 0.0663398 28.0346 0.0713619 28.2227C0.0714865 28.2342 0.0720075 28.2455 0.0725312 28.2569L0.0729312 28.2658L0.073451 28.2736C0.0740267 28.2824 0.0745942 28.2911 0.0754422 28.2999C0.0876834 28.4541 0.129586 28.6071 0.206642 28.7475L2.63384 33.1679L3.93972 35.5462C4.17843 35.9813 4.41682 36.404 4.99027 36.3999L5.46579 36.3966C7.4191 36.3827 9.37225 36.369 11.3256 36.3553L11.355 36.3551L12.0363 36.3502L12.7176 36.3454C13.0817 36.3428 13.4189 36.1316 13.5988 35.7939L15.3945 32.4224L15.9712 31.3395C16.249 30.8176 16.527 30.2957 16.8049 29.7738L17.1365 29.1513L22.9309 29.1103L24.2936 29.1007C24.6577 29.0981 24.9951 28.8869 25.175 28.5492L25.8427 27.2953L27.3018 24.5554H25.8779ZM23.7472 13.0618L24.3487 14.1741H25.5518L26.1532 13.0618L25.5518 11.9496H24.3487L23.7472 13.0618ZM26.1938 15.0302L26.6286 15.822L27.015 16.5258L27.5558 17.5108H25.894L25.4616 18.3103L23.8012 15.2862H26.0555L26.1938 15.0302ZM24.9933 20.8478L26.3966 23.4433H29.2038L30.6073 20.8478L29.2038 18.2523H26.3966L24.9933 20.8478ZM27.7177 16.0278L26.8155 14.3593L27.7177 12.6909H29.5222L30.4246 14.3593L29.5222 16.0278H27.7177ZM31.1941 18.2525L31.7955 19.3649H32.9986L33.6001 18.2525L32.9986 17.1401H31.7955L31.1941 18.2525Z" fill="#8E8E93"/>
<path d="M46.9298 23.9048H42.6273L41.8093 26.4316H39.2L43.6334 14.1684H45.9074L50.3653 26.4316H47.756L46.9298 23.9048ZM43.2899 21.8582H46.2673L44.7704 17.2679L43.2899 21.8582Z" fill="#8E8E93"/>
<path d="M53.9316 22.1108V26.4316H51.4777V14.1684H56.1238C57.0181 14.1684 57.8034 14.3369 58.4795 14.6738C59.1612 15.0107 59.6847 15.4908 60.0501 16.114C60.4154 16.7317 60.5981 17.4364 60.5981 18.2281C60.5981 19.4297 60.1973 20.3786 59.3957 21.0749C58.5995 21.7655 57.4953 22.1108 56.0829 22.1108H53.9316ZM53.9316 20.0642H56.1238C56.7727 20.0642 57.2662 19.907 57.6043 19.5925C57.9479 19.2781 58.1196 18.8289 58.1196 18.2449C58.1196 17.6441 57.9479 17.1584 57.6043 16.7878C57.2608 16.4172 56.7864 16.2263 56.1811 16.2151H53.9316V20.0642Z" fill="#8E8E93"/>
<path d="M64.7452 22.1108V26.4316H62.2913V14.1684H66.9374C67.8317 14.1684 68.6169 14.3369 69.2931 14.6738C69.9747 15.0107 70.4982 15.4908 70.8636 16.114C71.229 16.7317 71.4116 17.4364 71.4116 18.2281C71.4116 19.4297 71.0108 20.3786 70.2092 21.0749C69.4131 21.7655 68.3088 22.1108 66.8965 22.1108H64.7452ZM64.7452 20.0642H66.9374C67.5863 20.0642 68.0798 19.907 68.4179 19.5925C68.7614 19.2781 68.9332 18.8289 68.9332 18.2449C68.9332 17.6441 68.7614 17.1584 68.4179 16.7878C68.0743 16.4172 67.5999 16.2263 66.9946 16.2151H64.7452V20.0642Z" fill="#8E8E93"/>
<path d="M79.2805 23.2142C79.2805 22.7369 79.1169 22.3719 78.7897 22.1193C78.4625 21.861 77.8736 21.5914 77.0229 21.3107C76.1722 21.0243 75.4988 20.7436 75.0025 20.4684C73.6502 19.716 72.974 18.7025 72.974 17.4279C72.974 16.7654 73.1539 16.1758 73.5138 15.6592C73.8792 15.137 74.4 14.7299 75.0761 14.438C75.7578 14.146 76.5212 14 77.3665 14C78.2171 14 78.9751 14.16 79.6404 14.4801C80.3057 14.7945 80.821 15.2409 81.1864 15.8193C81.5572 16.3976 81.7426 17.0545 81.7426 17.7901H79.2887C79.2887 17.2286 79.1169 16.7934 78.7734 16.4846C78.4298 16.1702 77.9472 16.013 77.3256 16.013C76.7257 16.013 76.2595 16.1449 75.9268 16.4088C75.5942 16.6671 75.4279 17.0096 75.4279 17.4364C75.4279 17.835 75.6215 18.1691 76.0086 18.4386C76.4013 18.7082 76.9766 18.9608 77.7345 19.1967C79.1305 19.629 80.1476 20.1652 80.7856 20.8053C81.4236 21.4455 81.7426 22.2428 81.7426 23.1973C81.7426 24.2586 81.3527 25.0924 80.5729 25.6988C79.7931 26.2996 78.7434 26.6 77.4237 26.6C76.5076 26.6 75.6733 26.4287 74.9207 26.0862C74.1682 25.7381 73.5929 25.2636 73.1948 24.6628C72.8022 24.062 72.6059 23.3658 72.6059 22.5741H75.068C75.068 23.9273 75.8532 24.6039 77.4237 24.6039C78.0072 24.6039 78.4625 24.4832 78.7897 24.2417C79.1169 23.9947 79.2805 23.6521 79.2805 23.2142Z" fill="#8E8E93"/>
<path d="M90.5767 21.117H85.8652V24.4017H91.3946V26.4316H83.4113V14.1684H91.3783V16.2151H85.8652V19.1377H90.5767V21.117Z" fill="#8E8E93"/>
<path d="M102.184 22.3467C102.091 23.6662 101.617 24.7049 100.76 25.463C99.9097 26.221 98.7864 26.6 97.3903 26.6C95.8635 26.6 94.6611 26.0722 93.7831 25.0166C92.9106 23.9553 92.4744 22.5011 92.4744 20.6537V19.9041C92.4744 18.725 92.6761 17.6862 93.0797 16.7878C93.4832 15.8894 94.0585 15.2016 94.8056 14.7243C95.5581 14.2414 96.4306 14 97.4231 14C98.7973 14 99.9042 14.379 100.744 15.137C101.584 15.8951 102.069 16.9591 102.2 18.3291H99.7461C99.6861 17.5374 99.4707 16.9647 99.0999 16.611C98.7345 16.2516 98.1756 16.0719 97.4231 16.0719C96.6051 16.0719 95.9916 16.3751 95.5826 16.9816C95.1791 17.5824 94.9719 18.5172 94.961 19.7862V20.7127C94.961 22.0378 95.1546 23.0064 95.5417 23.6184C95.9344 24.2305 96.5506 24.5365 97.3903 24.5365C98.1483 24.5365 98.7127 24.3596 99.0835 24.0059C99.4598 23.6465 99.6752 23.0934 99.7297 22.3467H102.184Z" fill="#8E8E93"/>
</g>
<defs>
<clipPath id="clip0_2_6">
<rect width="103" height="42" fill="white"/>
</clipPath>
</defs>
</svg>
