<?xml version="1.0" encoding="UTF-8"?><svg width="178" height="42" viewBox="0 0 178 42" fill="none" xmlns="http://www.w3.org/2000/svg">
<g clip-path="url(#clip0_2_14)">
<path d="M5.65702 41.9774H0L17.8983 0H23.9416L41.9226 41.9774H35.8793L30.4265 28.7671H15.3816L17.1918 24.3655H28.5997L20.724 5.34128L5.65702 41.9774Z" fill="#8E8E93"/>
<path d="M45.0685 40.5105V35.8121C48.63 36.9843 52.3556 37.587 56.1066 37.598C61.0406 37.598 63.5076 36.1327 63.5076 33.2019C63.5076 30.458 61.7875 29.0879 58.3473 29.0915H53.9321C47.2467 29.0915 43.9058 26.0564 43.9095 19.9861C43.9095 14.1246 48.2052 11.1938 56.7965 11.1938C60.512 11.197 64.2106 11.6904 67.7959 12.6611V17.3594C64.2457 16.198 60.5334 15.6027 56.7965 15.5955C51.6454 15.5955 49.0698 17.0608 49.0698 19.9916C49.0698 22.7355 50.6906 24.1074 53.9321 24.1074H58.3473C65.4227 24.1074 68.9604 27.1408 68.9604 33.2074C68.9604 39.0689 64.6758 41.9997 56.1066 41.9997C52.378 42.002 48.6659 41.5086 45.0685 40.5324" fill="#8E8E93"/>
<path d="M96.9861 41.0981C94.2691 41.7034 91.4917 41.9984 88.7076 41.9773C77.7026 41.9773 72.1983 36.6433 72.1946 25.9754C72.1946 16.0841 77.6989 11.1385 88.7076 11.1385C91.4917 11.1174 94.2691 11.4124 96.9861 12.0177V16.4138C94.1785 15.8028 91.3109 15.5079 88.4371 15.5346C81.2624 15.5346 77.675 19.0149 77.675 25.9754C77.675 33.7126 81.2624 37.5793 88.4371 37.5757C91.3113 37.6062 94.1796 37.3094 96.9861 36.6909V41.0981Z" fill="#8E8E93"/>
<path fill-rule="evenodd" clip-rule="evenodd" d="M126.712 24.1573C126.712 15.4896 122.309 11.1558 113.505 11.1558L113.527 11.1722C104.03 11.1722 99.282 16.1911 99.282 26.229C99.2857 36.7393 104.604 41.9945 115.238 41.9945C118.601 42.0533 121.957 41.6502 125.21 40.7966V36.4005C122.154 37.2271 118.995 37.6229 115.828 37.5764C108.436 37.5801 104.74 34.4295 104.74 28.1248H126.447C126.617 26.809 126.706 25.484 126.712 24.1573ZM121.485 23.6184H104.74C105.079 18.2148 108.008 15.5131 113.527 15.5131C118.718 15.5131 121.371 18.2148 121.485 23.6184Z" fill="#8E8E93"/>
<path d="M131.59 41.9938V11.155H135.272L136.249 15.0896C139.138 12.5691 142.844 11.172 146.685 11.155C154.412 11.155 158.275 14.9797 158.275 22.6289V41.9938H152.822V22.5465C152.822 17.9635 150.532 15.6739 145.951 15.6775C142.827 15.6775 139.86 16.9781 137.049 19.5791V41.9938H131.59Z" fill="#8E8E93"/>
<path d="M164.407 6.16553H167.823L169.004 11.1551H177.376V15.5512H169.86V33.2566C169.86 36.1287 171.109 37.5666 173.607 37.5703H173.662V41.9664H172.166C166.979 41.9664 164.385 39.1969 164.385 33.6578L164.407 6.16553Z" fill="#8E8E93"/>
<path d="M177.382 37.5757H173.982V41.9828H177.382V37.5757Z" fill="#8E8E93"/>
</g>
<defs>
<clipPath id="clip0_2_14">
<rect width="178" height="42" fill="white"/>
</clipPath>
</defs>
</svg>
