<?xml version="1.0" encoding="utf-8"?>
<svg width="205" height="40" viewBox="0 0 205 40" fill="none" xmlns="http://www.w3.org/2000/svg">
<g style="mix-blend-mode:luminosity">
<path fill-rule="evenodd" clip-rule="evenodd" d="M95.5818 6.97062L98.5184 13.7476H92.6688L95.5818 6.97062ZM97.0105 3.41143H94.2432L86.7674 20.4763H89.8254L91.5737 16.385H99.6079L101.331 20.4763H104.486L97.0105 3.41143ZM54.9981 15.4634C54.9981 17.0366 53.7598 17.8356 51.7208 17.8356H46.7689V13.1881H51.5023C53.8569 13.1881 54.9981 14.0355 54.9981 15.4634ZM54.0511 8.32496C54.0511 9.92235 52.7649 10.673 50.8474 10.673H46.7689V6.17066H51.066C52.9828 6.17066 54.0511 6.99391 54.0511 8.32496ZM51.4524 3.53199H43.8309V20.4751H51.6952C55.4817 20.4751 57.9819 18.8542 57.9819 15.8282C57.9819 13.4802 56.5986 12.3429 54.6082 11.6656C55.8701 11.0112 57.0356 9.92225 57.0356 7.88902C57.0356 6.70325 56.6471 5.78314 55.8944 5.03322C54.9239 4.06469 53.3949 3.53199 51.4524 3.53199ZM64.5102 20.4758H61.525V3.53199H64.5102V20.4758ZM69.0471 3.53199H71.8145L80.9164 15.2471V3.53199H83.8537V20.4758H81.3534L71.9837 8.42171V20.4758H69.0471V3.53199ZM114.748 11.9319C116.884 11.9319 118.243 10.8188 118.243 9.05118C118.243 7.23587 116.933 6.24312 114.724 6.24312H110.379V11.9319H114.748ZM107.396 3.53199H114.97C118.95 3.53199 121.281 5.66208 121.281 8.93019C121.281 11.714 119.606 13.3834 117.227 14.062L121.815 20.4758H118.295L114.072 14.5698H110.382V20.4758H107.396V3.53199ZM122.613 3.53387L129.361 13.7962V20.477H132.371V13.7242L139.118 3.53387H135.696L130.89 11.0372L126.133 3.53387H122.613ZM142.056 3.53199H154.023V4.69423H143.318V11.6414H152.93V12.8023H143.318V20.4758H142.056V3.53199ZM159.24 3.53199H157.978V20.4758H169.216V19.3136H159.24V3.53199ZM172.271 13.4312V3.53137H173.532V13.3101C173.532 17.3046 175.693 19.6035 179.285 19.6035C182.732 19.6035 184.941 17.5219 184.941 13.4312V3.53137H186.203V13.2859C186.203 18.1507 183.363 20.7409 179.236 20.7409C175.159 20.7409 172.271 18.1749 172.271 13.4312ZM189.725 3.53199L196.254 11.8344L189.481 20.4758H190.962L196.982 12.6577L203.026 20.4758H204.531L197.783 11.8109L204.288 3.53199H202.807L197.03 10.9869L191.229 3.53199H189.725Z" fill="#666666"/>
<path d="M44.7009 34.8802V27.8302H45.5209V34.8802H44.7009ZM48.1495 34.8802V30.0202H48.9395V30.8502C49.0995 30.5436 49.3262 30.3136 49.6195 30.1602C49.9129 30.0069 50.2429 29.9302 50.6095 29.9302C51.7629 29.9302 52.3395 30.5702 52.3395 31.8502V34.8802H51.5295V31.9002C51.5295 31.4469 51.4395 31.1169 51.2595 30.9102C51.0862 30.6969 50.8062 30.5902 50.4195 30.5902C49.9729 30.5902 49.6162 30.7302 49.3495 31.0102C49.0895 31.2836 48.9595 31.6502 48.9595 32.1102V34.8802H48.1495ZM56.7831 34.9702C56.2098 34.9702 55.7798 34.8202 55.4931 34.5202C55.2065 34.2136 55.0631 33.7736 55.0631 33.2002V30.6502H54.1131V30.0202H55.0631V28.5302H55.8731V30.0202H57.4131V30.6502H55.8731V33.1202C55.8731 33.5002 55.9531 33.7902 56.1131 33.9902C56.2731 34.1836 56.5331 34.2802 56.8931 34.2802C56.9998 34.2802 57.1065 34.2669 57.2131 34.2402C57.3198 34.2136 57.4165 34.1869 57.5031 34.1602L57.6431 34.7802C57.5565 34.8269 57.4298 34.8702 57.2631 34.9102C57.0965 34.9502 56.9365 34.9702 56.7831 34.9702ZM61.4704 34.9702C60.7037 34.9702 60.0971 34.7469 59.6504 34.3002C59.2037 33.8469 58.9804 33.2336 58.9804 32.4602C58.9804 31.9602 59.0804 31.5202 59.2804 31.1402C59.4804 30.7536 59.7537 30.4569 60.1004 30.2502C60.4537 30.0369 60.8604 29.9302 61.3204 29.9302C61.9804 29.9302 62.4971 30.1436 62.8704 30.5702C63.2437 30.9902 63.4304 31.5702 63.4304 32.3102V32.6202H59.7704C59.7971 33.1736 59.9571 33.5969 60.2504 33.8902C60.5437 34.1769 60.9504 34.3202 61.4704 34.3202C61.7637 34.3202 62.0437 34.2769 62.3104 34.1902C62.5771 34.0969 62.8304 33.9469 63.0704 33.7402L63.3504 34.3102C63.1304 34.5169 62.8504 34.6802 62.5104 34.8002C62.1704 34.9136 61.8237 34.9702 61.4704 34.9702ZM61.3404 30.5302C60.8804 30.5302 60.5171 30.6736 60.2504 30.9602C59.9837 31.2469 59.8271 31.6236 59.7804 32.0902H62.7304C62.7104 31.5969 62.5804 31.2136 62.3404 30.9402C62.1071 30.6669 61.7737 30.5302 61.3404 30.5302ZM67.0927 34.9702C66.5993 34.9702 66.226 34.8269 65.9727 34.5402C65.726 34.2469 65.6027 33.8236 65.6027 33.2702V27.8302H66.4127V33.2102C66.4127 33.9236 66.696 34.2802 67.2627 34.2802C67.4293 34.2802 67.5793 34.2602 67.7127 34.2202L67.6927 34.9002C67.486 34.9469 67.286 34.9702 67.0927 34.9702ZM71.0516 34.9702C70.5583 34.9702 70.185 34.8269 69.9316 34.5402C69.685 34.2469 69.5616 33.8236 69.5616 33.2702V27.8302H70.3716V33.2102C70.3716 33.9236 70.655 34.2802 71.2216 34.2802C71.3883 34.2802 71.5383 34.2602 71.6716 34.2202L71.6516 34.9002C71.445 34.9469 71.245 34.9702 71.0516 34.9702ZM73.4206 28.8102V27.9002H74.4206V28.8102H73.4206ZM73.5206 34.8802V30.0202H74.3306V34.8802H73.5206ZM78.9948 36.7702C78.5748 36.7702 78.1782 36.7136 77.8048 36.6002C77.4382 36.4936 77.1115 36.3302 76.8248 36.1102L77.0948 35.5202C77.3948 35.7336 77.6915 35.8869 77.9848 35.9802C78.2848 36.0736 78.6082 36.1202 78.9548 36.1202C79.9148 36.1202 80.3948 35.6269 80.3948 34.6402V33.7802C80.2548 34.0869 80.0348 34.3302 79.7348 34.5102C79.4415 34.6836 79.1048 34.7702 78.7248 34.7702C78.2782 34.7702 77.8915 34.6669 77.5648 34.4602C77.2382 34.2536 76.9848 33.9702 76.8048 33.6102C76.6315 33.2436 76.5448 32.8202 76.5448 32.3402C76.5448 31.8602 76.6315 31.4402 76.8048 31.0802C76.9848 30.7136 77.2382 30.4302 77.5648 30.2302C77.8915 30.0302 78.2782 29.9302 78.7248 29.9302C79.1048 29.9302 79.4415 30.0169 79.7348 30.1902C80.0348 30.3636 80.2548 30.6002 80.3948 30.9002V30.0202H81.1848V34.5302C81.1848 35.2769 80.9982 35.8369 80.6248 36.2102C80.2582 36.5836 79.7148 36.7702 78.9948 36.7702ZM78.8748 34.1102C79.3415 34.1102 79.7115 33.9502 79.9848 33.6302C80.2582 33.3102 80.3948 32.8802 80.3948 32.3402C80.3948 31.8002 80.2582 31.3736 79.9848 31.0602C79.7115 30.7402 79.3415 30.5802 78.8748 30.5802C78.4148 30.5802 78.0482 30.7402 77.7748 31.0602C77.5015 31.3736 77.3648 31.8002 77.3648 32.3402C77.3648 32.8802 77.5015 33.3102 77.7748 33.6302C78.0482 33.9502 78.4148 34.1102 78.8748 34.1102ZM85.8942 34.9702C85.1275 34.9702 84.5209 34.7469 84.0742 34.3002C83.6275 33.8469 83.4042 33.2336 83.4042 32.4602C83.4042 31.9602 83.5042 31.5202 83.7042 31.1402C83.9042 30.7536 84.1775 30.4569 84.5242 30.2502C84.8775 30.0369 85.2842 29.9302 85.7442 29.9302C86.4042 29.9302 86.9209 30.1436 87.2942 30.5702C87.6675 30.9902 87.8542 31.5702 87.8542 32.3102V32.6202H84.1942C84.2209 33.1736 84.3809 33.5969 84.6742 33.8902C84.9675 34.1769 85.3742 34.3202 85.8942 34.3202C86.1875 34.3202 86.4675 34.2769 86.7342 34.1902C87.0009 34.0969 87.2542 33.9469 87.4942 33.7402L87.7742 34.3102C87.5542 34.5169 87.2742 34.6802 86.9342 34.8002C86.5942 34.9136 86.2475 34.9702 85.8942 34.9702ZM85.7642 30.5302C85.3042 30.5302 84.9409 30.6736 84.6742 30.9602C84.4075 31.2469 84.2509 31.6236 84.2042 32.0902H87.1542C87.1342 31.5969 87.0042 31.2136 86.7642 30.9402C86.5309 30.6669 86.1975 30.5302 85.7642 30.5302ZM90.0265 34.8802V30.0202H90.8165V30.8502C90.9765 30.5436 91.2031 30.3136 91.4965 30.1602C91.7898 30.0069 92.1198 29.9302 92.4865 29.9302C93.6398 29.9302 94.2165 30.5702 94.2165 31.8502V34.8802H93.4065V31.9002C93.4065 31.4469 93.3165 31.1169 93.1365 30.9102C92.9631 30.6969 92.6831 30.5902 92.2965 30.5902C91.8498 30.5902 91.4931 30.7302 91.2265 31.0102C90.9665 31.2836 90.8365 31.6502 90.8365 32.1102V34.8802H90.0265ZM98.7701 34.9702C98.2834 34.9702 97.8634 34.8669 97.5101 34.6602C97.1567 34.4469 96.8834 34.1502 96.6901 33.7702C96.5034 33.3836 96.4101 32.9336 96.4101 32.4202C96.4101 31.6469 96.6201 31.0402 97.0401 30.6002C97.4601 30.1536 98.0367 29.9302 98.7701 29.9302C99.0701 29.9302 99.3667 29.9836 99.6601 30.0902C99.9534 30.1969 100.197 30.3469 100.39 30.5402L100.11 31.1302C99.9167 30.9436 99.7034 30.8069 99.4701 30.7202C99.2434 30.6336 99.0267 30.5902 98.8201 30.5902C98.3134 30.5902 97.9234 30.7502 97.6501 31.0702C97.3767 31.3836 97.2401 31.8369 97.2401 32.4302C97.2401 33.0102 97.3767 33.4702 97.6501 33.8102C97.9234 34.1436 98.3134 34.3102 98.8201 34.3102C99.0267 34.3102 99.2434 34.2669 99.4701 34.1802C99.7034 34.0936 99.9167 33.9536 100.11 33.7602L100.39 34.3502C100.197 34.5436 99.9501 34.6969 99.6501 34.8102C99.3567 34.9169 99.0634 34.9702 98.7701 34.9702ZM104.431 34.9702C103.665 34.9702 103.058 34.7469 102.611 34.3002C102.165 33.8469 101.941 33.2336 101.941 32.4602C101.941 31.9602 102.041 31.5202 102.241 31.1402C102.441 30.7536 102.715 30.4569 103.061 30.2502C103.415 30.0369 103.821 29.9302 104.281 29.9302C104.941 29.9302 105.458 30.1436 105.831 30.5702C106.205 30.9902 106.391 31.5702 106.391 32.3102V32.6202H102.731C102.758 33.1736 102.918 33.5969 103.211 33.8902C103.505 34.1769 103.911 34.3202 104.431 34.3202C104.725 34.3202 105.005 34.2769 105.271 34.1902C105.538 34.0969 105.791 33.9469 106.031 33.7402L106.311 34.3102C106.091 34.5169 105.811 34.6802 105.471 34.8002C105.131 34.9136 104.785 34.9702 104.431 34.9702ZM104.301 30.5302C103.841 30.5302 103.478 30.6736 103.211 30.9602C102.945 31.2469 102.788 31.6236 102.741 32.0902H105.691C105.671 31.5969 105.541 31.2136 105.301 30.9402C105.068 30.6669 104.735 30.5302 104.301 30.5302ZM114.082 34.9702C113.509 34.9702 113.079 34.8202 112.792 34.5202C112.505 34.2136 112.362 33.7736 112.362 33.2002V30.6502H111.412V30.0202H112.362V28.5302H113.172V30.0202H114.712V30.6502H113.172V33.1202C113.172 33.5002 113.252 33.7902 113.412 33.9902C113.572 34.1836 113.832 34.2802 114.192 34.2802C114.299 34.2802 114.405 34.2669 114.512 34.2402C114.619 34.2136 114.715 34.1869 114.802 34.1602L114.942 34.7802C114.855 34.8269 114.729 34.8702 114.562 34.9102C114.395 34.9502 114.235 34.9702 114.082 34.9702ZM118.599 34.9702C118.126 34.9702 117.716 34.8669 117.369 34.6602C117.023 34.4536 116.753 34.1636 116.559 33.7902C116.373 33.4102 116.279 32.9636 116.279 32.4502C116.279 31.9369 116.373 31.4936 116.559 31.1202C116.753 30.7402 117.023 30.4469 117.369 30.2402C117.716 30.0336 118.126 29.9302 118.599 29.9302C119.066 29.9302 119.473 30.0336 119.819 30.2402C120.173 30.4469 120.443 30.7402 120.629 31.1202C120.823 31.4936 120.919 31.9369 120.919 32.4502C120.919 32.9636 120.823 33.4102 120.629 33.7902C120.443 34.1636 120.173 34.4536 119.819 34.6602C119.473 34.8669 119.066 34.9702 118.599 34.9702ZM118.599 34.3202C119.053 34.3202 119.416 34.1602 119.689 33.8402C119.963 33.5136 120.099 33.0502 120.099 32.4502C120.099 31.8436 119.963 31.3802 119.689 31.0602C119.416 30.7402 119.053 30.5802 118.599 30.5802C118.139 30.5802 117.773 30.7402 117.499 31.0602C117.233 31.3802 117.099 31.8436 117.099 32.4502C117.099 33.0502 117.233 33.5136 117.499 33.8402C117.773 34.1602 118.139 34.3202 118.599 34.3202ZM126.134 34.8802L129.244 27.8302H129.944L133.054 34.8802H132.204L131.424 33.0802H127.754L126.984 34.8802H126.134ZM129.584 28.7902L128.054 32.3902H131.134L129.604 28.7902H129.584ZM136.791 34.9702C136.357 34.9702 135.977 34.8669 135.651 34.6602C135.331 34.4536 135.081 34.1636 134.901 33.7902C134.727 33.4102 134.641 32.9636 134.641 32.4502C134.641 31.9302 134.727 31.4836 134.901 31.1102C135.081 30.7302 135.331 30.4402 135.651 30.2402C135.977 30.0336 136.357 29.9302 136.791 29.9302C137.171 29.9302 137.504 30.0136 137.791 30.1802C138.084 30.3469 138.301 30.5769 138.441 30.8702V27.8302H139.251V34.8802H138.461V33.9902C138.321 34.2969 138.104 34.5369 137.811 34.7102C137.517 34.8836 137.177 34.9702 136.791 34.9702ZM136.961 34.3202C137.414 34.3202 137.777 34.1602 138.051 33.8402C138.324 33.5136 138.461 33.0502 138.461 32.4502C138.461 31.8436 138.324 31.3802 138.051 31.0602C137.777 30.7402 137.414 30.5802 136.961 30.5802C136.501 30.5802 136.134 30.7402 135.861 31.0602C135.594 31.3802 135.461 31.8436 135.461 32.4502C135.461 33.0502 135.594 33.5136 135.861 33.8402C136.134 34.1602 136.501 34.3202 136.961 34.3202ZM143.201 34.8802L141.111 30.0202H141.991L143.601 33.9602L145.231 30.0202H146.061L143.961 34.8802H143.201ZM149.349 34.9702C149.016 34.9702 148.716 34.9069 148.449 34.7802C148.189 34.6469 147.983 34.4669 147.829 34.2402C147.676 34.0136 147.599 33.7602 147.599 33.4802C147.599 33.1269 147.689 32.8469 147.869 32.6402C148.056 32.4336 148.359 32.2869 148.779 32.2002C149.206 32.1069 149.786 32.0602 150.519 32.0602H150.839V31.7502C150.839 31.3369 150.753 31.0402 150.579 30.8602C150.413 30.6736 150.143 30.5802 149.769 30.5802C149.476 30.5802 149.193 30.6236 148.919 30.7102C148.646 30.7902 148.366 30.9236 148.079 31.1102L147.799 30.5202C148.053 30.3402 148.359 30.1969 148.719 30.0902C149.086 29.9836 149.436 29.9302 149.769 29.9302C150.396 29.9302 150.859 30.0836 151.159 30.3902C151.466 30.6969 151.619 31.1736 151.619 31.8202V34.8802H150.859V34.0402C150.733 34.3269 150.536 34.5536 150.269 34.7202C150.009 34.8869 149.703 34.9702 149.349 34.9702ZM149.479 34.3602C149.879 34.3602 150.206 34.2236 150.459 33.9502C150.713 33.6702 150.839 33.3169 150.839 32.8902V32.5902H150.529C149.989 32.5902 149.563 32.6169 149.249 32.6702C148.943 32.7169 148.726 32.8036 148.599 32.9302C148.479 33.0502 148.419 33.2169 148.419 33.4302C148.419 33.7036 148.513 33.9269 148.699 34.1002C148.893 34.2736 149.153 34.3602 149.479 34.3602ZM154.122 34.8802V30.0202H154.912V30.8502C155.072 30.5436 155.299 30.3136 155.592 30.1602C155.886 30.0069 156.216 29.9302 156.582 29.9302C157.736 29.9302 158.312 30.5702 158.312 31.8502V34.8802H157.502V31.9002C157.502 31.4469 157.412 31.1169 157.232 30.9102C157.059 30.6969 156.779 30.5902 156.392 30.5902C155.946 30.5902 155.589 30.7302 155.322 31.0102C155.062 31.2836 154.932 31.6502 154.932 32.1102V34.8802H154.122ZM162.756 34.9702C162.182 34.9702 161.752 34.8202 161.466 34.5202C161.179 34.2136 161.036 33.7736 161.036 33.2002V30.6502H160.086V30.0202H161.036V28.5302H161.846V30.0202H163.386V30.6502H161.846V33.1202C161.846 33.5002 161.926 33.7902 162.086 33.9902C162.246 34.1836 162.506 34.2802 162.866 34.2802C162.972 34.2802 163.079 34.2669 163.186 34.2402C163.292 34.2136 163.389 34.1869 163.476 34.1602L163.616 34.7802C163.529 34.8269 163.402 34.8702 163.236 34.9102C163.069 34.9502 162.909 34.9702 162.756 34.9702ZM166.832 34.9702C166.499 34.9702 166.199 34.9069 165.932 34.7802C165.672 34.6469 165.465 34.4669 165.312 34.2402C165.159 34.0136 165.082 33.7602 165.082 33.4802C165.082 33.1269 165.172 32.8469 165.352 32.6402C165.539 32.4336 165.842 32.2869 166.262 32.2002C166.689 32.1069 167.269 32.0602 168.002 32.0602H168.322V31.7502C168.322 31.3369 168.235 31.0402 168.062 30.8602C167.895 30.6736 167.625 30.5802 167.252 30.5802C166.959 30.5802 166.675 30.6236 166.402 30.7102C166.129 30.7902 165.849 30.9236 165.562 31.1102L165.282 30.5202C165.535 30.3402 165.842 30.1969 166.202 30.0902C166.569 29.9836 166.919 29.9302 167.252 29.9302C167.879 29.9302 168.342 30.0836 168.642 30.3902C168.949 30.6969 169.102 31.1736 169.102 31.8202V34.8802H168.342V34.0402C168.215 34.3269 168.019 34.5536 167.752 34.7202C167.492 34.8869 167.185 34.9702 166.832 34.9702ZM166.962 34.3602C167.362 34.3602 167.689 34.2236 167.942 33.9502C168.195 33.6702 168.322 33.3169 168.322 32.8902V32.5902H168.012C167.472 32.5902 167.045 32.6169 166.732 32.6702C166.425 32.7169 166.209 32.8036 166.082 32.9302C165.962 33.0502 165.902 33.2169 165.902 33.4302C165.902 33.7036 165.995 33.9269 166.182 34.1002C166.375 34.2736 166.635 34.3602 166.962 34.3602ZM173.755 36.7702C173.335 36.7702 172.938 36.7136 172.565 36.6002C172.198 36.4936 171.871 36.3302 171.585 36.1102L171.855 35.5202C172.155 35.7336 172.451 35.8869 172.745 35.9802C173.045 36.0736 173.368 36.1202 173.715 36.1202C174.675 36.1202 175.155 35.6269 175.155 34.6402V33.7802C175.015 34.0869 174.795 34.3302 174.495 34.5102C174.201 34.6836 173.865 34.7702 173.485 34.7702C173.038 34.7702 172.651 34.6669 172.325 34.4602C171.998 34.2536 171.745 33.9702 171.565 33.6102C171.391 33.2436 171.305 32.8202 171.305 32.3402C171.305 31.8602 171.391 31.4402 171.565 31.0802C171.745 30.7136 171.998 30.4302 172.325 30.2302C172.651 30.0302 173.038 29.9302 173.485 29.9302C173.865 29.9302 174.201 30.0169 174.495 30.1902C174.795 30.3636 175.015 30.6002 175.155 30.9002V30.0202H175.945V34.5302C175.945 35.2769 175.758 35.8369 175.385 36.2102C175.018 36.5836 174.475 36.7702 173.755 36.7702ZM173.635 34.1102C174.101 34.1102 174.471 33.9502 174.745 33.6302C175.018 33.3102 175.155 32.8802 175.155 32.3402C175.155 31.8002 175.018 31.3736 174.745 31.0602C174.471 30.7402 174.101 30.5802 173.635 30.5802C173.175 30.5802 172.808 30.7402 172.535 31.0602C172.261 31.3736 172.125 31.8002 172.125 32.3402C172.125 32.8802 172.261 33.3102 172.535 33.6302C172.808 33.9502 173.175 34.1102 173.635 34.1102ZM180.654 34.9702C179.887 34.9702 179.281 34.7469 178.834 34.3002C178.387 33.8469 178.164 33.2336 178.164 32.4602C178.164 31.9602 178.264 31.5202 178.464 31.1402C178.664 30.7536 178.937 30.4569 179.284 30.2502C179.637 30.0369 180.044 29.9302 180.504 29.9302C181.164 29.9302 181.681 30.1436 182.054 30.5702C182.427 30.9902 182.614 31.5702 182.614 32.3102V32.6202H178.954C178.981 33.1736 179.141 33.5969 179.434 33.8902C179.727 34.1769 180.134 34.3202 180.654 34.3202C180.947 34.3202 181.227 34.2769 181.494 34.1902C181.761 34.0969 182.014 33.9469 182.254 33.7402L182.534 34.3102C182.314 34.5169 182.034 34.6802 181.694 34.8002C181.354 34.9136 181.007 34.9702 180.654 34.9702ZM180.524 30.5302C180.064 30.5302 179.701 30.6736 179.434 30.9602C179.167 31.2469 179.011 31.6236 178.964 32.0902H181.914C181.894 31.5969 181.764 31.2136 181.524 30.9402C181.291 30.6669 180.957 30.5302 180.524 30.5302Z" fill="#666666"/>
<mask id="mask0_5582_23213" style="mask-type:alpha" maskUnits="userSpaceOnUse" x="0" y="0" width="31" height="40">
<path fill-rule="evenodd" clip-rule="evenodd" d="M28.8901 0.439484H23.8533C23.7699 0.185375 23.5272 0 23.2425 0V0C22.8884 0 22.6022 0.285352 22.6022 0.635273V0.635273C22.6022 0.985889 22.8884 1.27055 23.2425 1.27055V1.27055C23.3014 1.27055 23.3582 1.26291 23.4122 1.24902V1.24902L25.9138 5.04539C25.8619 5.10857 25.8226 5.18216 25.798 5.2627V5.2627L20.7859 5.38351C20.7732 5.31686 20.7487 5.25368 20.7164 5.19674V5.19674C22.4248 3.71305 23.077 2.00233 23.0791 1.99608V1.99608C20.6856 0.688039 17.8018 0 14.7498 0V0C6.80472 0 0 4.65659 0 12.811V12.811V27.1883C0 35.3434 6.80472 40 14.7498 40V40C20.0004 40 24.7524 37.9671 27.3718 34.2346V34.2346C27.3816 34.2346 27.3893 34.2346 27.3991 34.2346V34.2346C27.7533 34.2346 28.0394 33.9507 28.0394 33.6007V33.6007C28.0394 33.4862 28.0092 33.3793 27.9559 33.2862V33.2862C28.3872 32.7315 28.7414 32.1094 28.9455 31.438V31.438C29.2001 31.3547 29.3852 31.1173 29.3852 30.8361V30.8361C29.3852 30.7118 29.3501 30.5966 29.2877 30.4994V30.4994C29.5907 29.4732 29.7358 28.395 29.7464 27.3209V27.3209C29.8873 27.2043 29.9771 27.0286 29.9771 26.8328V26.8328C29.9771 26.4829 29.6903 26.1983 29.3368 26.1983V26.1983L28.1762 24.2556C28.275 24.1432 28.3361 23.9967 28.3361 23.837V23.837C28.3361 23.6794 28.2785 23.5357 28.1832 23.4246V23.4246L29.3494 21.5465C29.3971 21.5583 29.4476 21.5646 29.5002 21.5646V21.5646C29.8544 21.5646 30.1412 21.2806 30.1412 20.93V20.93C30.1412 20.6481 29.9554 20.4086 29.698 20.326V20.326V14.5259C29.9554 14.4426 30.1412 14.2037 30.1412 13.9219V13.9219C30.1412 13.6393 29.9554 13.4004 29.698 13.3178V13.3178V9.37497C29.9554 9.29235 30.1412 9.05282 30.1412 8.77094V8.77094C30.1412 8.48906 29.9554 8.24953 29.698 8.16691V8.16691V1.2393C29.9554 1.15668 30.1412 0.917848 30.1412 0.635273V0.635273C30.1412 0.285352 29.8544 0 29.5002 0V0C29.2148 0 28.9735 0.185375 28.8901 0.439484V0.439484ZM23.742 1.03297C23.7911 0.973263 23.8296 0.903834 23.8542 0.829545V0.829545L28.8909 0.83024C28.9162 0.907306 28.9555 0.978123 29.0067 1.03922V1.03922L26.5745 4.82795C26.5233 4.81545 26.4686 4.80851 26.4139 4.80851V4.80851C26.355 4.80851 26.2989 4.81615 26.2463 4.83003V4.83003L23.742 1.03297ZM26.9691 5.75658C27.021 5.66424 27.0511 5.55732 27.0511 5.44415V5.44415C27.0511 5.29071 26.9964 5.14908 26.9053 5.04007V5.04007L29.2995 1.30897V8.16714C29.2764 8.17478 29.2525 8.18381 29.2294 8.19422V8.19422L26.9691 5.75658ZM20.6887 5.85783C20.7055 5.83214 20.7216 5.80506 20.7349 5.7766V5.7766L25.8082 5.6544C25.8951 5.90157 26.1329 6.07861 26.4127 6.07861V6.07861C26.5088 6.07861 26.5985 6.05778 26.6806 6.02029V6.02029L28.9409 8.45863C28.8911 8.54611 28.8609 8.64678 28.8588 8.7537V8.7537L24.5886 10.0034C24.4722 9.83679 24.2793 9.72709 24.0598 9.72709V9.72709C23.9679 9.72709 23.881 9.74653 23.8024 9.78055V9.78055L20.6887 5.85783ZM15.613 7.30115C17.301 7.16438 18.6475 6.63256 19.7058 5.95424V5.95424C19.7303 5.97923 19.757 6.00006 19.7843 6.02019V6.02019L18.2779 10.6761C18.1931 10.6768 18.111 10.6934 18.0367 10.724V10.724L15.3416 7.58512C15.3746 7.50805 15.3928 7.42335 15.3928 7.33517V7.33517C15.3928 7.32407 15.3921 7.31296 15.3921 7.30185V7.30185C15.4215 7.30393 15.4496 7.30671 15.4797 7.30879V7.30879C15.5246 7.30671 15.5688 7.30393 15.613 7.30115V7.30115ZM18.8525 11.5968C18.8967 11.5107 18.9213 11.4135 18.9213 11.3108V11.3108C18.9213 11.0983 18.8168 10.9109 18.6548 10.7949V10.7949L20.1612 6.13835C20.2383 6.13835 20.3112 6.12446 20.3793 6.09947V6.09947L23.5085 10.0402C23.4524 10.1347 23.4208 10.2444 23.4208 10.3617V10.3617C23.4208 10.5471 23.5022 10.7144 23.6305 10.831V10.831L21.6171 13.7595C21.5462 13.7325 21.4684 13.7179 21.3877 13.7179V13.7179C21.279 13.7179 21.176 13.7443 21.0862 13.7915V13.7915L18.8525 11.5968ZM8.08557 27.6978V12.3006C8.08557 8.94715 11.5507 7.5079 14.1125 7.301V7.301C14.1118 7.31211 14.1111 7.32322 14.1111 7.33432V7.33432C14.1111 7.6169 14.2977 7.85643 14.5551 7.93905V7.93905V13.7482C14.2977 13.8308 14.1111 14.0703 14.1111 14.3522V14.3522C14.1111 14.7021 14.3987 14.9868 14.7528 14.9868V14.9868C15.0383 14.9868 15.2788 14.8028 15.3623 14.548V14.548H20.7777C20.8492 14.7639 21.0351 14.9305 21.2637 14.975V14.975V17.5792C20.9965 17.6556 20.8009 17.9 20.8009 18.1888V18.1888C20.8009 18.5394 21.087 18.8241 21.4411 18.8241V18.8241C21.4958 18.8241 21.5484 18.8171 21.5982 18.8047V18.8047L22.7533 20.6216C22.6614 20.7313 22.6053 20.8736 22.6053 21.0278V21.0278C22.6053 21.1458 22.6376 21.2562 22.6944 21.3513V21.3513C22.3227 21.7651 21.9489 22.1754 21.5849 22.5962V22.5962C21.5225 22.5767 21.4573 22.5656 21.3885 22.5656V22.5656C21.0344 22.5656 20.7462 22.8503 20.7462 23.2009V23.2009C20.7462 23.4939 20.9481 23.7417 21.2216 23.8139V23.8139V26.2669C20.9867 26.3606 20.8205 26.589 20.8205 26.8556V26.8556C20.8205 27.1271 20.993 27.3597 21.2364 27.4499V27.4499C21.1824 28.5247 20.8899 29.5703 20.2293 30.2639V30.2639C20.1304 30.2021 20.0133 30.1667 19.8878 30.1667V30.1667C19.5336 30.1667 19.2468 30.4506 19.2468 30.8012V30.8012C19.2468 31.0005 19.3393 31.1782 19.4852 31.2956V31.2956C18.0812 32.2974 16.1835 32.7251 14.7528 32.7251V32.7251C12.1749 32.7251 8.08557 31.3407 8.08557 27.6978V27.6978ZM14.9481 13.7487L14.9621 7.934C15.0028 7.92012 15.0406 7.90345 15.0757 7.88193V7.88193L17.7322 10.9778C17.6719 11.0743 17.6368 11.1888 17.6368 11.311V11.311C17.6368 11.3992 17.6551 11.4832 17.688 11.5589V11.5589L15.0799 13.8084C15.0385 13.7834 14.9943 13.7639 14.9481 13.7487V13.7487ZM24.6965 10.4586C24.7007 10.4322 24.7028 10.4059 24.7035 10.3788V10.3788L28.9744 9.12906C29.0536 9.24431 29.1708 9.33179 29.3075 9.37553V9.37553L29.3061 13.317C29.2058 13.3496 29.1147 13.4059 29.0424 13.4795V13.4795L24.6965 10.4586ZM24.5123 10.8103L28.8646 13.8353C28.8604 13.8631 28.859 13.8916 28.859 13.9207V13.9207C28.859 14.2026 29.0455 14.4428 29.3029 14.5248V14.5248L29.3015 19.9437L28.2208 17.3568C28.3302 17.2436 28.3975 17.0895 28.3975 16.9194V16.9194C28.3975 16.5687 28.1107 16.2848 27.7573 16.2848V16.2848C27.699 16.2848 27.6443 16.2924 27.5903 16.3063V16.3063L26.2593 14.2741C26.3547 14.163 26.4129 14.02 26.4129 13.8624V13.8624C26.4129 13.5125 26.1253 13.2278 25.7719 13.2278V13.2278C25.4521 13.2278 25.1884 13.459 25.1386 13.761V13.761L21.9729 14.0999C21.9589 14.0672 21.9414 14.036 21.9217 14.0061V14.0061L24.0109 10.9936C24.0263 10.995 24.0425 10.9957 24.06 10.9957V10.9957C24.236 10.9957 24.3959 10.9249 24.5123 10.8103V10.8103ZM15.3416 14.1002L17.9504 11.8535C18.0479 11.9111 18.1608 11.9445 18.2814 11.9445V11.9445C18.3866 11.9445 18.4862 11.9188 18.5746 11.8736V11.8736L20.8124 14.0724C20.7984 14.0988 20.7865 14.1266 20.7774 14.1558V14.1558H15.3619C15.3563 14.137 15.3493 14.1183 15.3416 14.1002V14.1002ZM21.6581 17.5934L21.6588 14.928C21.8363 14.8461 21.9688 14.685 22.0123 14.4906V14.4906L25.2004 14.1497C25.2383 14.224 25.2902 14.29 25.3533 14.3435V14.3435L24.5762 16.2888C24.5608 16.2875 24.5433 16.2868 24.5264 16.2868V16.2868C24.173 16.2868 23.8862 16.5707 23.8862 16.9213V16.9213C23.8862 16.9394 23.8869 16.9574 23.8876 16.9755V16.9755L21.9281 17.7781C21.8559 17.6962 21.7633 17.6316 21.6581 17.5934V17.5934ZM25.9253 14.4808L27.2619 16.5206C27.2149 16.5769 27.1785 16.6407 27.1539 16.7109V16.7109C26.4821 16.7018 25.8095 16.7164 25.1377 16.7241V16.7241C25.0998 16.6109 25.0311 16.5116 24.9413 16.4366V16.4366L25.7177 14.4954C25.7359 14.4968 25.7555 14.4982 25.7745 14.4982V14.4982C25.8257 14.4982 25.8762 14.4926 25.9253 14.4808V14.4808ZM25.005 17.3415C25.0626 17.2776 25.1067 17.202 25.1355 17.1193V17.1193L27.1482 17.1166C27.2317 17.37 27.4729 17.5547 27.7584 17.5547V17.5547C27.7962 17.5547 27.8348 17.5512 27.8713 17.5442V17.5442L29.0845 20.4471C28.9478 20.563 28.8601 20.7366 28.8601 20.9296V20.9296C28.8601 21.0872 28.9169 21.2309 29.0137 21.3413V21.3413L27.8474 23.218C27.8243 23.2124 27.8018 23.2089 27.7787 23.2062V23.2062L26.5297 20.0742C26.6692 19.9569 26.7583 19.7833 26.7583 19.5882V19.5882C26.7583 19.2376 26.4715 18.9536 26.1173 18.9536V18.9536C26.0696 18.9536 26.0226 18.9585 25.9763 18.9689V18.9689L25.005 17.3415ZM21.928 18.597C22.0206 18.4866 22.0774 18.345 22.0774 18.1902V18.1902C22.0774 18.1735 22.0767 18.1568 22.0753 18.1395V18.1395L24.0375 17.3355C24.1546 17.4702 24.3292 17.5556 24.5221 17.5556V17.5556C24.5705 17.5556 24.6161 17.5507 24.6602 17.541V17.541L25.633 19.1691C25.5341 19.2816 25.4731 19.4274 25.4731 19.5892V19.5892C25.4731 19.6225 25.4759 19.6551 25.4801 19.6871V19.6871L23.6946 20.582C23.5795 20.466 23.4175 20.3945 23.2401 20.3945V20.3945C23.1861 20.3945 23.1328 20.4015 23.0823 20.414V20.414L21.928 18.597ZM23.8849 21.0297C23.8849 20.9956 23.8814 20.9637 23.8772 20.9318V20.9318L25.662 20.0368C25.695 20.0695 25.7307 20.0986 25.7707 20.1236V20.1236L25.3443 21.6504C25.021 21.6635 24.7587 21.9149 24.7328 22.2315V22.2315L21.9374 22.8813C21.9304 22.8674 21.9227 22.8549 21.9142 22.8431V22.8431C22.2796 22.4363 22.6471 22.0322 23.0034 21.6184V21.6184C23.0777 21.6483 23.159 21.6642 23.2432 21.6642V21.6642C23.5967 21.6642 23.8849 21.3803 23.8849 21.0297V21.0297ZM26.0109 22.2838C26.0109 22.0623 25.8966 21.8679 25.7226 21.7533V21.7533L26.1511 20.2224C26.1546 20.2224 26.1575 20.2217 26.1603 20.2217V20.2217L27.3805 23.2815C27.1849 23.3905 27.0523 23.5981 27.0523 23.8369V23.8369C27.0523 23.9924 27.1098 24.1361 27.2052 24.2465V24.2465L26.2865 25.7108C26.2318 25.6955 26.175 25.6879 26.1154 25.6879V25.6879C25.9246 25.6879 25.7535 25.7698 25.6364 25.901V25.901L24.2015 25.1977C24.2064 25.1685 24.2078 25.1366 24.2078 25.1053V25.1053C24.2078 24.9505 24.1531 24.8103 24.0606 24.6999V24.6999L25.2107 22.8982C25.2619 22.9121 25.3152 22.9183 25.3699 22.9183V22.9183C25.724 22.9183 26.0109 22.6337 26.0109 22.2838V22.2838ZM21.973 23.4589C22.0003 23.3978 22.0185 23.3319 22.0249 23.2632V23.2632L24.8244 22.6126C24.8406 22.639 24.8595 22.6654 24.8806 22.6897V22.6897L23.729 24.4907C23.6785 24.4782 23.6252 24.4712 23.5705 24.4712V24.4712C23.4506 24.4712 23.3384 24.5038 23.2423 24.5608V24.5608L21.973 23.4589ZM21.6132 26.2402V23.7928C21.6454 23.7817 21.6763 23.7672 21.705 23.7498V23.7498L22.9786 24.8544C22.9442 24.9308 22.926 25.0162 22.926 25.105V25.105C22.926 25.1967 22.9456 25.2828 22.9814 25.3612V25.3612L21.8551 26.3582C21.785 26.3034 21.7029 26.2617 21.6132 26.2402V26.2402ZM26.76 26.2784C26.7501 26.1444 26.6997 26.0222 26.6204 25.9243V25.9243L27.544 24.4503C27.5938 24.4622 27.645 24.4691 27.6983 24.4691V24.4691C27.746 24.4691 27.7937 24.4628 27.8393 24.4538V24.4538L28.9557 26.3228C28.8597 26.3944 28.7839 26.4909 28.7404 26.604V26.604L26.76 26.2784ZM24.5365 28.1927C24.5302 27.8906 24.3107 27.6393 24.0203 27.5824V27.5824L23.8282 25.6863C23.9039 25.653 23.9713 25.6057 24.0281 25.5488V25.5488L25.4805 26.2591C25.4776 26.2792 25.4769 26.3007 25.4769 26.3222V26.3222C25.4769 26.6729 25.7638 26.9554 26.1179 26.9554V26.9554C26.3466 26.9554 26.5471 26.8374 26.66 26.6604V26.6604L28.7184 26.9978C28.738 27.0665 28.7667 27.1297 28.806 27.1866V27.1866L27.165 28.5669C27.0549 28.4773 26.9132 28.4232 26.7589 28.4232V28.4232C26.5401 28.4232 26.348 28.5315 26.2308 28.6981V28.6981L24.5365 28.1927ZM21.7818 27.4033C21.9705 27.2929 22.0967 27.0895 22.0967 26.8569V26.8569C22.0967 26.7979 22.0897 26.7416 22.0743 26.6875V26.6875L23.2433 25.6544C23.3001 25.6877 23.3632 25.712 23.4299 25.7266V25.7266L23.6241 27.6289C23.4032 27.7296 23.2489 27.9504 23.2489 28.2059V28.2059C23.2489 28.5565 23.5365 28.8419 23.8906 28.8419V28.8419C24.1087 28.8419 24.3002 28.7335 24.4159 28.569V28.569L26.1137 29.0744C26.1173 29.2265 26.1748 29.366 26.2694 29.4737V29.4737L25.2708 31.1031C25.235 31.0983 25.2 31.0941 25.1635 31.0941V31.0941C24.9889 31.0941 24.8318 31.1635 24.7154 31.2753V31.2753L23.2377 30.4533C23.2447 30.413 23.2489 30.3707 23.2489 30.329V30.329C23.2489 29.9791 22.9621 29.6944 22.6079 29.6944V29.6944H22.5946L21.7818 27.4033ZM27.345 29.3202C27.3815 29.2404 27.4018 29.1522 27.4018 29.0585V29.0585C27.4018 29.0043 27.3948 28.9502 27.3815 28.9009V28.9009L29.1277 27.4325C29.1943 27.4554 29.2652 27.4672 29.3388 27.4672V27.4672H29.35C29.329 28.4003 29.2035 29.3355 28.9538 30.236V30.236C28.8886 30.2131 28.8191 30.2013 28.7469 30.2013V30.2013C28.6277 30.2013 28.5155 30.2332 28.4194 30.2902V30.2902L27.345 29.3202ZM21.5532 28.205C21.5623 28.1439 21.5721 28.08 21.5798 28.0134V28.0134L22.2222 29.8234C22.0967 29.9178 22.0076 30.056 21.9782 30.2157V30.2157L20.5587 30.474C21.1142 29.8387 21.4213 29.0264 21.5532 28.205V28.205ZM27.0691 29.611L28.1477 30.5955C28.1162 30.6697 28.0987 30.751 28.0987 30.8364V30.8364C28.0987 30.8683 28.1015 30.8996 28.1057 30.9301V30.9301L25.7198 31.4161C25.6925 31.3682 25.6588 31.3231 25.621 31.2849V31.2849L26.607 29.6762C26.6533 29.688 26.7031 29.6929 26.7536 29.6929V29.6929C26.8679 29.6929 26.9759 29.6637 27.0691 29.611V29.611ZM22.957 32.4816L22.8525 30.9173C22.9261 30.8875 22.992 30.8458 23.0488 30.7937V30.7937L24.5363 31.6213C24.5307 31.6561 24.5265 31.6922 24.5265 31.729V31.729C24.5265 31.7852 24.5349 31.8407 24.5489 31.8921V31.8921L23.2992 32.6912C23.2115 32.5885 23.0923 32.5142 22.957 32.4816V32.4816ZM25.7496 31.9823C25.7749 31.9247 25.7924 31.8643 25.7994 31.7997V31.7997L28.2933 31.2922C28.3592 31.3554 28.4391 31.4054 28.5275 31.4359V31.4359C28.3388 32.0046 28.0275 32.5343 27.6551 33.021V33.021C27.5751 32.9863 27.4868 32.9668 27.3949 32.9668V32.9668C27.2764 32.9668 27.1649 32.9988 27.0695 33.0543V33.0543L25.7496 31.9823Z" fill="white"/>
</mask>
<g mask="url(#mask0_5582_23213)">
<path fill-rule="evenodd" clip-rule="evenodd" d="M28.7614 0.439484H23.7247C23.6412 0.185375 23.3986 0 23.1138 0V0C22.7597 0 22.4736 0.285352 22.4736 0.635273V0.635273C22.4736 0.985889 22.7597 1.27055 23.1138 1.27055V1.27055C23.1728 1.27055 23.2296 1.26291 23.2836 1.24902V1.24902L25.7851 5.04539C25.7332 5.10857 25.6939 5.18216 25.6694 5.2627V5.2627L20.6572 5.38351C20.6446 5.31686 20.62 5.25368 20.5878 5.19674V5.19674C22.2961 3.71305 22.9483 2.00233 22.9504 1.99608V1.99608C20.5569 0.688039 17.6732 0 14.6211 0V0C6.67606 0 -0.128662 4.65659 -0.128662 12.811V12.811V27.1883C-0.128662 35.3434 6.67606 40 14.6211 40V40C19.8717 40 24.6237 37.9671 27.2431 34.2346V34.2346C27.2529 34.2346 27.2606 34.2346 27.2705 34.2346V34.2346C27.6246 34.2346 27.9107 33.9507 27.9107 33.6007V33.6007C27.9107 33.4862 27.8806 33.3793 27.8273 33.2862V33.2862C28.2586 32.7315 28.6127 32.1094 28.8168 31.438V31.438C29.0714 31.3547 29.2565 31.1173 29.2565 30.8361V30.8361C29.2565 30.7118 29.2215 30.5966 29.1591 30.4994V30.4994C29.462 29.4732 29.6072 28.395 29.6177 27.3209V27.3209C29.7587 27.2043 29.8484 27.0286 29.8484 26.8328V26.8328C29.8484 26.4829 29.5616 26.1983 29.2081 26.1983V26.1983L28.0475 24.2556C28.1464 24.1432 28.2074 23.9967 28.2074 23.837V23.837C28.2074 23.6794 28.1499 23.5357 28.0545 23.4246V23.4246L29.2208 21.5465C29.2685 21.5583 29.319 21.5646 29.3715 21.5646V21.5646C29.7257 21.5646 30.0125 21.2806 30.0125 20.93V20.93C30.0125 20.6481 29.8267 20.4086 29.5693 20.326V20.326V14.5259C29.8267 14.4426 30.0125 14.2037 30.0125 13.9219V13.9219C30.0125 13.6393 29.8267 13.4004 29.5693 13.3178V13.3178V9.37497C29.8267 9.29235 30.0125 9.05282 30.0125 8.77094V8.77094C30.0125 8.48906 29.8267 8.24953 29.5693 8.16691V8.16691V1.2393C29.8267 1.15668 30.0125 0.917848 30.0125 0.635273V0.635273C30.0125 0.285352 29.7257 0 29.3715 0V0C29.0861 0 28.8449 0.185375 28.7614 0.439484V0.439484ZM23.6129 1.03297C23.662 0.973263 23.7006 0.903834 23.7251 0.829545V0.829545L28.7619 0.83024C28.7871 0.907306 28.8264 0.978123 28.8776 1.03922V1.03922L26.4455 4.82795C26.3943 4.81545 26.3396 4.80851 26.2849 4.80851V4.80851C26.226 4.80851 26.1699 4.81615 26.1173 4.83003V4.83003L23.6129 1.03297ZM26.84 5.75689C26.8919 5.66455 26.922 5.55763 26.922 5.44446V5.44446C26.922 5.29102 26.8673 5.14939 26.7762 5.04038V5.04038L29.1704 1.30928V8.16746C29.1473 8.17509 29.1234 8.18412 29.1003 8.19453V8.19453L26.84 5.75689ZM20.5596 5.85783C20.5764 5.83214 20.5925 5.80506 20.6059 5.7766V5.7766L25.6791 5.6544C25.766 5.90157 26.0038 6.07861 26.2836 6.07861V6.07861C26.3797 6.07861 26.4694 6.05778 26.5515 6.02029V6.02029L28.8118 8.45863C28.762 8.54611 28.7318 8.64678 28.7297 8.7537V8.7537L24.4595 10.0034C24.3431 9.83679 24.1502 9.72709 23.9307 9.72709V9.72709C23.8389 9.72709 23.7519 9.74653 23.6734 9.78055V9.78055L20.5596 5.85783ZM15.4827 7.30115C17.1707 7.16438 18.5172 6.63256 19.5755 5.95424V5.95424C19.6 5.97923 19.6267 6.00006 19.654 6.02019V6.02019L18.1476 10.6761C18.0628 10.6768 17.9807 10.6934 17.9064 10.724V10.724L15.2113 7.58512C15.2442 7.50805 15.2625 7.42335 15.2625 7.33517V7.33517C15.2625 7.32407 15.2618 7.31296 15.2618 7.30185V7.30185C15.2912 7.30393 15.3193 7.30671 15.3494 7.30879V7.30879C15.3943 7.30671 15.4385 7.30393 15.4827 7.30115V7.30115ZM18.7222 11.5968C18.7664 11.5107 18.7909 11.4135 18.7909 11.3108V11.3108C18.7909 11.0983 18.6864 10.9109 18.5244 10.7949V10.7949L20.0308 6.13835C20.108 6.13835 20.1809 6.12446 20.2489 6.09947V6.09947L23.3781 10.0402C23.322 10.1347 23.2905 10.2444 23.2905 10.3617V10.3617C23.2905 10.5471 23.3718 10.7144 23.5002 10.831V10.831L21.4867 13.7595C21.4159 13.7325 21.3381 13.7179 21.2574 13.7179V13.7179C21.1487 13.7179 21.0456 13.7443 20.9559 13.7915V13.7915L18.7222 11.5968ZM7.95524 27.6981V12.3009C7.95524 8.94747 11.4204 7.50821 13.9822 7.30131V7.30131C13.9815 7.31242 13.9808 7.32353 13.9808 7.33464V7.33464C13.9808 7.61721 14.1674 7.85674 14.4247 7.93936V7.93936V13.7485C14.1674 13.8311 13.9808 14.0706 13.9808 14.3525V14.3525C13.9808 14.7024 14.2684 14.9871 14.6225 14.9871V14.9871C14.9079 14.9871 15.1485 14.8031 15.2319 14.5483V14.5483H20.6474C20.7189 14.7642 20.9048 14.9308 21.1334 14.9753V14.9753V17.5795C20.8662 17.6559 20.6705 17.9003 20.6705 18.1891V18.1891C20.6705 18.5397 20.9567 18.8244 21.3108 18.8244V18.8244C21.3655 18.8244 21.4181 18.8175 21.4679 18.805V18.805L22.6229 20.6219C22.5311 20.7316 22.475 20.8739 22.475 21.0281V21.0281C22.475 21.1461 22.5072 21.2565 22.564 21.3516V21.3516C22.1923 21.7654 21.8186 22.1757 21.4546 22.5965V22.5965C21.3922 22.577 21.3269 22.5659 21.2582 22.5659V22.5659C20.9041 22.5659 20.6158 22.8506 20.6158 23.2012V23.2012C20.6158 23.4942 20.8178 23.742 21.0913 23.8142V23.8142V26.2672C20.8564 26.3609 20.6902 26.5893 20.6902 26.8559V26.8559C20.6902 27.1274 20.8627 27.36 21.106 27.4502V27.4502C21.052 28.525 20.7596 29.5706 20.099 30.2642V30.2642C20.0001 30.2024 19.883 30.167 19.7574 30.167V30.167C19.4033 30.167 19.1164 30.4509 19.1164 30.8016V30.8016C19.1164 31.0008 19.209 31.1786 19.3549 31.2959V31.2959C17.9509 32.2977 16.0532 32.7254 14.6225 32.7254V32.7254C12.0445 32.7254 7.95524 31.341 7.95524 27.6981V27.6981ZM14.8177 13.7487L14.8318 7.934C14.8724 7.92012 14.9103 7.90345 14.9454 7.88193V7.88193L17.6019 10.9778C17.5416 11.0743 17.5065 11.1888 17.5065 11.311V11.311C17.5065 11.3992 17.5248 11.4832 17.5577 11.5589V11.5589L14.9496 13.8084C14.9082 13.7834 14.864 13.7639 14.8177 13.7487V13.7487ZM24.5674 10.4583C24.5716 10.4319 24.5737 10.4055 24.5744 10.3785V10.3785L28.8453 9.12875C28.9246 9.244 29.0417 9.33148 29.1784 9.37522V9.37522L29.177 13.3167C29.0768 13.3493 28.9856 13.4056 28.9133 13.4792V13.4792L24.5674 10.4583ZM24.3845 10.8103L28.7368 13.8353C28.7326 13.8631 28.7312 13.8916 28.7312 13.9207V13.9207C28.7312 14.2026 28.9177 14.4428 29.1751 14.5248V14.5248L29.1737 19.9437L28.093 17.3568C28.2024 17.2436 28.2697 17.0895 28.2697 16.9194V16.9194C28.2697 16.5687 27.9829 16.2848 27.6294 16.2848V16.2848C27.5712 16.2848 27.5165 16.2924 27.4625 16.3063V16.3063L26.1315 14.2741C26.2268 14.163 26.285 14.02 26.285 13.8624V13.8624C26.285 13.5125 25.9975 13.2278 25.644 13.2278V13.2278C25.3243 13.2278 25.0606 13.459 25.0108 13.761V13.761L21.8451 14.0999C21.8311 14.0672 21.8135 14.036 21.7939 14.0061V14.0061L23.8831 10.9936C23.8985 10.995 23.9146 10.9957 23.9322 10.9957V10.9957C24.1082 10.9957 24.2681 10.9249 24.3845 10.8103V10.8103ZM15.2113 14.1005L17.8201 11.8538C17.9176 11.9114 18.0305 11.9448 18.1511 11.9448V11.9448C18.2563 11.9448 18.3559 11.9191 18.4443 11.8739V11.8739L20.6821 14.0728C20.6681 14.0991 20.6562 14.1269 20.647 14.1561V14.1561H15.2316C15.226 14.1373 15.219 14.1186 15.2113 14.1005V14.1005ZM21.5291 17.5934L21.5298 14.928C21.7072 14.8461 21.8397 14.685 21.8832 14.4906V14.4906L25.0713 14.1497C25.1092 14.224 25.1611 14.29 25.2242 14.3435V14.3435L24.4472 16.2888C24.4317 16.2875 24.4142 16.2868 24.3974 16.2868V16.2868C24.0439 16.2868 23.7571 16.5707 23.7571 16.9213V16.9213C23.7571 16.9394 23.7578 16.9574 23.7585 16.9755V16.9755L21.7991 17.7781C21.7268 17.6962 21.6342 17.6316 21.5291 17.5934V17.5934ZM25.7962 14.4811L27.1329 16.5209C27.0859 16.5772 27.0494 16.6411 27.0249 16.7112V16.7112C26.353 16.7022 25.6805 16.7167 25.0086 16.7244V16.7244C24.9707 16.6112 24.902 16.5119 24.8123 16.4369V16.4369L25.5886 14.4957C25.6068 14.4971 25.6265 14.4985 25.6454 14.4985V14.4985C25.6966 14.4985 25.7471 14.4929 25.7962 14.4811V14.4811ZM24.8772 17.3415C24.9347 17.2776 24.9789 17.202 25.0077 17.1193V17.1193L27.0204 17.1166C27.1038 17.37 27.3451 17.5547 27.6305 17.5547V17.5547C27.6684 17.5547 27.707 17.5512 27.7434 17.5442V17.5442L28.9567 20.4471C28.8199 20.563 28.7323 20.7366 28.7323 20.9296V20.9296C28.7323 21.0872 28.7891 21.2309 28.8859 21.3413V21.3413L27.7196 23.218C27.6964 23.2124 27.674 23.2089 27.6509 23.2062V23.2062L26.4018 20.0742C26.5414 19.9569 26.6305 19.7833 26.6305 19.5882V19.5882C26.6305 19.2376 26.3436 18.9536 25.9895 18.9536V18.9536C25.9418 18.9536 25.8948 18.9585 25.8485 18.9689V18.9689L24.8772 17.3415ZM21.8039 18.597C21.8965 18.4866 21.9533 18.345 21.9533 18.1902V18.1902C21.9533 18.1735 21.9526 18.1568 21.9512 18.1395V18.1395L23.9134 17.3355C24.0305 17.4702 24.2052 17.5556 24.398 17.5556V17.5556C24.4464 17.5556 24.492 17.5507 24.5362 17.541V17.541L25.5089 19.1691C25.41 19.2816 25.349 19.4274 25.349 19.5892V19.5892C25.349 19.6225 25.3518 19.6551 25.356 19.6871V19.6871L23.5705 20.582C23.4555 20.466 23.2935 20.3945 23.116 20.3945V20.3945C23.062 20.3945 23.0087 20.4015 22.9582 20.414V20.414L21.8039 18.597ZM23.7533 21.0297C23.7533 20.9956 23.7498 20.9637 23.7456 20.9318V20.9318L25.5304 20.0368C25.5634 20.0695 25.5991 20.0986 25.6391 20.1236V20.1236L25.2127 21.6504C24.8894 21.6635 24.6271 21.9149 24.6012 22.2315V22.2315L21.8058 22.8813C21.7988 22.8674 21.7911 22.8549 21.7827 22.8431V22.8431C22.148 22.4363 22.5155 22.0322 22.8718 21.6184V21.6184C22.9461 21.6483 23.0275 21.6642 23.1116 21.6642V21.6642C23.4651 21.6642 23.7533 21.3803 23.7533 21.0297V21.0297ZM25.8831 22.2838C25.8831 22.0623 25.7687 21.8679 25.5948 21.7533V21.7533L26.0233 20.2224C26.0268 20.2224 26.0296 20.2217 26.0324 20.2217V20.2217L27.2527 23.2815C27.057 23.3905 26.9245 23.5981 26.9245 23.8369V23.8369C26.9245 23.9924 26.982 24.1361 27.0774 24.2465V24.2465L26.1587 25.7108C26.104 25.6955 26.0472 25.6879 25.9875 25.6879V25.6879C25.7968 25.6879 25.6257 25.7698 25.5086 25.901V25.901L24.0737 25.1977C24.0786 25.1685 24.08 25.1366 24.08 25.1053V25.1053C24.08 24.9505 24.0253 24.8103 23.9327 24.6999V24.6999L25.0829 22.8982C25.1341 22.9121 25.1874 22.9183 25.2421 22.9183V22.9183C25.5962 22.9183 25.8831 22.6337 25.8831 22.2838V22.2838ZM21.8389 23.4589C21.8662 23.3978 21.8845 23.3319 21.8908 23.2632V23.2632L24.6904 22.6126C24.7065 22.639 24.7254 22.6654 24.7465 22.6897V22.6897L23.5949 24.4907C23.5444 24.4782 23.4911 24.4712 23.4364 24.4712V24.4712C23.3165 24.4712 23.2043 24.5038 23.1082 24.5608V24.5608L21.8389 23.4589ZM21.4853 26.2402V23.7928C21.5176 23.7817 21.5484 23.7672 21.5772 23.7498V23.7498L22.8508 24.8544C22.8164 24.9308 22.7982 25.0162 22.7982 25.105V25.105C22.7982 25.1967 22.8178 25.2828 22.8536 25.3612V25.3612L21.7273 26.3582C21.6571 26.3034 21.5751 26.2617 21.4853 26.2402V26.2402ZM26.6271 26.2787C26.6173 26.1447 26.5668 26.0225 26.4876 25.9246V25.9246L27.4112 24.4507C27.461 24.4625 27.5122 24.4694 27.5655 24.4694V24.4694C27.6132 24.4694 27.6609 24.4632 27.7064 24.4541V24.4541L28.8229 26.3232C28.7268 26.3947 28.6511 26.4912 28.6076 26.6043V26.6043L26.6271 26.2787ZM24.4062 28.1927C24.3999 27.8906 24.1804 27.6393 23.89 27.5824V27.5824L23.6979 25.6863C23.7736 25.653 23.8409 25.6057 23.8977 25.5488V25.5488L25.3501 26.2591C25.3473 26.2792 25.3466 26.3007 25.3466 26.3222V26.3222C25.3466 26.6729 25.6335 26.9554 25.9876 26.9554V26.9554C26.2162 26.9554 26.4168 26.8374 26.5297 26.6604V26.6604L28.588 26.9978C28.6077 27.0665 28.6364 27.1297 28.6757 27.1866V27.1866L27.0347 28.5669C26.9245 28.4773 26.7829 28.4232 26.6286 28.4232V28.4232C26.4098 28.4232 26.2176 28.5315 26.1005 28.6981V28.6981L24.4062 28.1927ZM21.654 27.4033C21.8426 27.2929 21.9689 27.0895 21.9689 26.8569V26.8569C21.9689 26.7979 21.9619 26.7416 21.9464 26.6875V26.6875L23.1155 25.6544C23.1723 25.6877 23.2354 25.712 23.302 25.7266V25.7266L23.4963 27.6289C23.2754 27.7296 23.1211 27.9504 23.1211 28.2059V28.2059C23.1211 28.5565 23.4086 28.8419 23.7628 28.8419V28.8419C23.9809 28.8419 24.1724 28.7335 24.2881 28.569V28.569L25.9859 29.0744C25.9894 29.2265 26.0469 29.366 26.1416 29.4737V29.4737L25.143 31.1031C25.1072 31.0983 25.0721 31.0941 25.0357 31.0941V31.0941C24.861 31.0941 24.7039 31.1635 24.5875 31.2753V31.2753L23.1099 30.4533C23.1169 30.413 23.1211 30.3707 23.1211 30.329V30.329C23.1211 29.9791 22.8343 29.6944 22.4801 29.6944V29.6944H22.4668L21.654 27.4033ZM27.2109 29.3202C27.2474 29.2404 27.2677 29.1522 27.2677 29.0585V29.0585C27.2677 29.0043 27.2607 28.9502 27.2474 28.9009V28.9009L28.9936 27.4325C29.0603 27.4554 29.1311 27.4672 29.2047 27.4672V27.4672H29.216C29.1949 28.4003 29.0694 29.3355 28.8197 30.236V30.236C28.7545 30.2131 28.6851 30.2013 28.6128 30.2013V30.2013C28.4936 30.2013 28.3814 30.2332 28.2853 30.2902V30.2902L27.2109 29.3202ZM21.4291 28.205C21.4382 28.1439 21.448 28.08 21.4557 28.0134V28.0134L22.0981 29.8234C21.9726 29.9178 21.8835 30.056 21.8541 30.2157V30.2157L20.4347 30.474C20.9901 29.8387 21.2973 29.0264 21.4291 28.205V28.205ZM26.9451 29.611L28.0237 30.5955C27.9921 30.6697 27.9746 30.751 27.9746 30.8364V30.8364C27.9746 30.8683 27.9774 30.8996 27.9816 30.9301V30.9301L25.5958 31.4161C25.5684 31.3682 25.5347 31.3231 25.4969 31.2849V31.2849L26.4829 29.6762C26.5292 29.688 26.579 29.6929 26.6295 29.6929V29.6929C26.7438 29.6929 26.8518 29.6637 26.9451 29.611V29.611ZM22.8266 32.4816L22.7221 30.9173C22.7958 30.8875 22.8617 30.8458 22.9185 30.7937V30.7937L24.406 31.6213C24.4004 31.6561 24.3962 31.6922 24.3962 31.729V31.729C24.3962 31.7852 24.4046 31.8407 24.4186 31.8921V31.8921L23.1689 32.6912C23.0812 32.5885 22.962 32.5142 22.8266 32.4816V32.4816ZM25.6218 31.9823C25.6471 31.9247 25.6646 31.8643 25.6716 31.7997V31.7997L28.1654 31.2922C28.2313 31.3554 28.3113 31.4054 28.3997 31.4359V31.4359C28.211 32.0046 27.8996 32.5343 27.5272 33.021V33.021C27.4473 32.9863 27.3589 32.9668 27.2671 32.9668V32.9668C27.1485 32.9668 27.037 32.9988 26.9417 33.0543V33.0543L25.6218 31.9823Z" fill="#666666"/>
</g>
</g>
</svg>
