<?xml version="1.0" encoding="UTF-8"?><svg width="42" height="42" viewBox="0 0 42 42" fill="none" xmlns="http://www.w3.org/2000/svg">
<path d="M38.3668 7.18798C38.247 5.79645 37.3434 4.59536 36.0396 4.0946C35.6798 2.33037 34.1287 1.06259 32.3281 1.06104H5.1884C3.09742 1.06417 1.40314 2.75846 1.4 4.84943H2.42543C2.427 3.32414 3.6631 2.08803 5.1884 2.08647H32.3281C33.8534 2.08803 35.0895 3.32414 35.0911 4.84943V32.5674C35.0895 34.0932 33.8539 35.3301 32.3281 35.3332H5.1884C3.66264 35.3301 2.427 34.0932 2.42543 32.5674H1.4C1.39766 34.3377 2.61986 35.8743 4.34527 36.2703C4.82189 37.5986 6.02484 38.5306 7.4301 38.6602C7.9564 40.0308 9.27176 40.9364 10.74 40.9389H37.0423C39.0065 40.9373 40.5984 39.3454 40.6 37.3812V10.4893C40.6052 9.03435 39.7192 7.72451 38.3668 7.18798ZM5.23967 36.3558H32.3281C34.4198 36.3542 36.115 34.659 36.1165 32.5674V4.989C37.0305 5.49328 37.5977 6.45464 37.5977 7.49846V35.0427C37.5884 36.6119 36.3185 37.8818 34.7493 37.8911H7.78046C6.71271 37.896 5.73189 37.3033 5.23967 36.3558ZM39.8366 37.3698C39.835 38.9124 38.5849 40.1626 37.0423 40.1641H10.74C9.7096 40.1636 8.76294 39.5967 8.27608 38.6887H34.7265C36.7388 38.6855 38.3693 37.055 38.3725 35.0427V8.04535C39.271 8.52943 39.8304 9.46863 39.828 10.4893L39.8366 37.3698Z" fill="#8E8E93"/>
<path d="M6.76358 24.6487H10.3099V25.3921H7.61811V27.3034H9.80854V28.0468H7.61811V30.0123H10.4665V30.7557H6.76358V24.6487Z" fill="#8E8E93"/>
<path d="M11.3695 24.6487H12.224V27.987H12.8393L14.0327 26.3777H14.9841L13.5314 28.3089V28.326L15.1493 30.7557H14.1581L12.8421 28.6906H12.224V30.75H11.3695V24.6487Z" fill="#8E8E93"/>
<path d="M15.9469 29.4057C16.3698 29.8059 16.9232 30.0396 17.505 30.0637C18.0746 30.0637 18.5589 29.7447 18.5589 29.1636C18.5589 27.8362 15.6022 28.1211 15.6022 26.2497C15.6022 25.2983 16.4226 24.5406 17.5733 24.5406C18.2064 24.5184 18.8243 24.7373 19.3023 25.153L18.9149 25.8623C18.5412 25.5383 18.0676 25.3523 17.5733 25.3353C16.9239 25.3353 16.4653 25.7426 16.4653 26.2269C16.4653 27.4887 19.4248 27.1526 19.4248 29.1323C19.4248 30.0751 18.6985 30.8413 17.4879 30.8413C16.733 30.8525 16.0046 30.5636 15.4626 30.0381L15.9469 29.4057Z" fill="#8E8E93"/>
<path d="M20.4616 27.1156H19.8919V26.4405H20.4844V25.1758H21.2962V26.4405H22.353V27.1156H21.2991V29.061C21.2991 29.9326 21.9143 30.0466 22.2333 30.0466C22.3002 30.0475 22.367 30.0418 22.4327 30.0295V30.7729C22.3382 30.7845 22.2431 30.7902 22.1479 30.79C21.5782 30.79 20.4702 30.6163 20.4702 29.155L20.4616 27.1156Z" fill="#8E8E93"/>
<path d="M25.0875 26.2751C26.3237 26.2751 26.9816 27.1923 26.9816 28.326C26.9816 28.4371 26.956 28.6878 26.956 28.6878H23.7629C23.7567 29.0837 23.9156 29.4643 24.2015 29.7383C24.4874 30.0123 24.8744 30.1549 25.2698 30.1319C25.7475 30.1158 26.2051 29.9357 26.5658 29.622L26.9133 30.2373C26.4401 30.6391 25.8393 30.8592 25.2185 30.8583C24.6031 30.8836 24.0046 30.6531 23.5654 30.2213C23.1261 29.7896 22.8852 29.1953 22.8999 28.5795C22.8999 27.1752 23.8427 26.2751 25.0875 26.2751ZM26.1243 28.0583C26.0986 27.3034 25.6315 26.9417 25.0704 26.9417C24.418 26.9231 23.861 27.4093 23.7914 28.0583H26.1243Z" fill="#8E8E93"/>
<path d="M27.8276 26.3779H28.5996V26.751C28.5994 26.8577 28.5927 26.9642 28.5796 27.07H28.5996C28.8985 26.5472 29.4682 26.2392 30.0693 26.2753C31.2457 26.2753 31.9892 27.2096 31.9892 28.5541C31.9892 29.8985 31.1347 30.8328 29.9953 30.8328C29.4528 30.85 28.9424 30.5764 28.6565 30.115H28.6394C28.6394 30.115 28.6565 30.2716 28.6565 30.4967V32.4592H27.802L27.8276 26.3779ZM29.8785 30.1406C30.5707 30.1406 31.1403 29.5709 31.1403 28.5768C31.1403 27.6255 30.6305 27.0102 29.9041 27.0102C29.2462 27.0102 28.6423 27.4688 28.6423 28.5854C28.6423 29.363 29.0752 30.1406 29.8842 30.1406H29.8785Z" fill="#8E8E93"/>
<path d="M2.42542 31.6046H1.39999V30.8811H2.42542V31.6046ZM2.42542 29.4341H1.39999V28.7106H2.42542V29.4341ZM2.42542 27.2664H1.39999V26.5429H2.42542V27.2664ZM2.42542 25.0959H1.39999V24.3724H2.42542V25.0959ZM2.42542 22.9254H1.39999V22.2048H2.42542V22.9254ZM2.42542 20.7578H1.39999V20.0343H2.42542V20.7578ZM2.42542 18.5873H1.39999V17.8666H2.42542V18.5873ZM2.42542 16.4196H1.39999V15.6961H2.42542V16.4196ZM2.42542 14.2491H1.39999V13.5257H2.42542V14.2491ZM2.42542 12.0815H1.39999V11.358H2.42542V12.0815ZM2.42542 9.91101H1.39999V9.1875H2.42542V9.91101ZM2.42542 7.74051H1.39999V7.01986H2.42542V7.74051ZM2.42542 5.57285H1.39999V4.84937H2.42542V5.57285Z" fill="#8E8E93"/>
</svg>
