<?xml version="1.0" encoding="UTF-8"?><svg width="42" height="42" viewBox="0 0 42 42" fill="none" xmlns="http://www.w3.org/2000/svg">
<path d="M42 0H0V42H42V0Z" fill="white"/>
<path d="M15.204 25.116L0 7.896V22.008H0.504C5.544 22.596 10.332 23.436 15.204 25.1149" fill="#4D4D4F"/>
<path d="M20.916 0H9.57599L19.824 22.344L20.916 0Z" fill="#4D4D4F"/>
<path d="M33.18 0L25.032 23.436L42 7.392V0H33.18Z" fill="#4D4D4F"/>
<path d="M32.76 0H21.504L22.512 22.344L32.76 0Z" fill="#4D4D4F"/>
<path d="M27.216 25.1159C31.836 23.6879 37.1269 22.4279 42 21.9239V8.31592L27.216 25.1159Z" fill="#4D4D4F"/>
<path d="M0 0V7.644L17.052 23.604L8.904 0H0Z" fill="#4D4D4F"/>
<path d="M41.496 23.4361C35.4468 24.6121 24.444 28.5601 24.528 28.5601C26.208 29.4806 27.972 30.3241 29.8212 31.6669L29.6532 31.8349H29.5726C20.5846 28.3909 10.7566 26.2909 0.676603 25.6212H0V42.0001H42V23.3521C41.832 23.3521 41.664 23.4361 41.496 23.4361ZM8.988 39.3155L8.904 39.9875H3.948C4.07433 39.6371 4.13138 39.2654 4.116 38.8932V34.188C4.13108 33.8166 4.07403 33.4458 3.948 33.0961H8.652V33.7681C8.568 33.7681 8.484 33.6841 8.4 33.6841C8.19116 33.5791 7.96166 33.5217 7.728 33.5161H5.29315V36.2041H8.4L8.232 36.7069H5.29315V39.3949H8.064C8.484 39.4801 8.988 39.2281 8.988 39.3121V39.3155ZM16.296 39.9875C16.38 39.6 16.38 39.199 16.296 38.8115L15.8795 35.5321L13.5275 39.9841H13.1075L10.668 35.364L10.164 38.8932C10.08 39.3132 10.08 39.8138 10.164 40.0692H9.32055C9.48855 39.7332 9.48855 39.5652 9.57255 38.9772L10.3285 33.1812H10.7485L13.6045 38.5572L16.3765 33.1812H16.7125L17.4685 38.9772C17.5041 39.3605 17.6185 39.7323 17.8045 40.0692L16.296 39.9875ZM23.4302 39.9875L22.3382 37.4675H20.076L18.9863 39.9841H18.1463C18.3611 39.6896 18.5574 39.3822 18.7343 39.0635L21.3383 33.0995H21.6743L24.2795 38.8932C24.5315 39.4812 24.6995 39.6492 25.1195 39.9852L23.4302 39.9875ZM30.5702 39.9875L29.4782 37.4675H27.216L26.1205 39.9841H25.2805C25.4953 39.6896 25.6917 39.3822 25.8685 39.0635L28.4725 33.0995H28.8085L31.4137 38.8932C31.6657 39.4812 31.8337 39.6492 32.2537 39.9852L30.5702 39.9875ZM37.0382 39.9875C36.0609 39.146 35.1613 38.2183 34.3502 37.2155C34.0142 36.8795 33.8462 36.7955 33.6782 36.7955V38.8932C33.6632 39.2646 33.7202 39.6355 33.8462 39.9852H32.34C32.466 39.6355 32.5231 39.2646 32.508 38.8932V34.188C32.5231 33.8166 32.466 33.4458 32.34 33.0961H33.7669C34.776 33.0961 37.1268 33.0121 37.1268 35.0281C37.1268 36.0361 36.2868 36.6241 35.364 36.7921H35.112C35.112 36.7921 38.2189 39.8989 38.3869 39.9841L37.0382 39.9875Z" fill="#4D4D4F"/>
<path d="M35.28 36.372C35.952 36.12 36.12 35.532 36.12 35.0281C36.12 34.5241 35.8669 33.4321 33.7669 33.5161V36.456C33.684 36.456 34.86 36.54 35.28 36.372Z" fill="#4D4D4F"/>
<path d="M27.384 36.9601H29.232L28.3068 34.9441L27.384 36.9601Z" fill="#4D4D4F"/>
<path d="M20.328 36.9601H22.092L21.168 34.9441L20.328 36.9601Z" fill="#4D4D4F"/>
</svg>
