<?xml version="1.0" encoding="utf-8"?>
<svg width="30" height="40" viewBox="0 0 30 40" fill="none" xmlns="http://www.w3.org/2000/svg">
<g style="mix-blend-mode:luminosity">
<mask id="mask0_5582_23031" style="mask-type:alpha" maskUnits="userSpaceOnUse" x="0" y="0" width="30" height="40">
<rect width="30" height="40" fill="#666666"/>
</mask>
<g mask="url(#mask0_5582_23031)">
<g style="mix-blend-mode:luminosity">
<path d="M27.8553 8.41819C27.8527 8.71885 27.8684 9.0169 27.858 9.31756C27.8397 9.8692 27.7351 10.4052 27.5782 10.9307C27.1338 12.4157 26.3416 13.7176 25.4187 14.9464C24.5115 16.1543 23.4788 17.2523 22.3807 18.2877C21.4683 19.1504 20.5062 19.9504 19.5075 20.7138C19.0107 21.0955 18.5401 21.5112 18.0696 21.9243C18.0408 21.9505 18.0068 21.9714 17.978 21.9949C17.897 21.8877 17.931 21.7596 17.9179 21.642C17.8029 20.7374 17.6225 19.8458 17.3872 18.9648C17.1702 18.1517 16.9087 17.3543 16.6133 16.5674C16.5584 16.421 16.4748 16.285 16.4643 16.1255C16.4852 16.0706 16.5375 16.0549 16.5846 16.034C17.6539 15.553 18.5558 14.8471 19.3454 13.9921C19.965 13.3202 20.4801 12.5751 20.9271 11.7777C21.1781 11.3307 21.3951 10.8653 21.6252 10.4052C21.6487 10.3581 21.667 10.3084 21.7036 10.2692C21.8003 10.2065 21.9101 10.1751 22.0147 10.1385C23.0605 9.77769 24.0932 9.38815 25.1102 8.95676C25.7795 8.67179 26.4802 8.50447 27.2017 8.42865C27.3272 8.41558 27.4527 8.40512 27.5782 8.38943C27.6697 8.37898 27.7665 8.35806 27.8553 8.41819Z" fill="#666666"/>
<path d="M27.8553 8.41821C26.8357 8.44958 25.8579 8.66396 24.9246 9.07181C24.1507 9.40907 23.3611 9.69928 22.5663 9.98686C22.2814 10.0888 21.9938 10.1934 21.7088 10.298C21.6591 10.3424 21.599 10.366 21.5363 10.3869C20.3179 10.8026 19.0892 11.1843 17.8447 11.5189C16.9715 11.7542 16.0904 11.9608 15.1937 12.0993C15.0002 12.1307 14.8067 12.149 14.6106 12.1673C14.5479 12.1673 14.4852 12.1595 14.4224 12.1804C14.4093 12.1856 14.3936 12.1882 14.3806 12.1908C14.2106 12.1882 14.0381 12.23 13.8734 12.1647C13.8629 12.0941 13.9178 12.1045 13.9544 12.1019C14.0407 12.0941 14.127 12.1019 14.2159 12.0993C14.3335 12.0967 14.3387 12.0862 14.276 11.9817C14.14 11.7594 13.9832 11.5503 13.8342 11.3359C13.6956 11.1372 13.5596 10.9333 13.4263 10.7294C13.3845 10.6666 13.34 10.6117 13.2851 10.5594C13.2851 10.5359 13.3008 10.5228 13.3191 10.5124C13.6956 10.4392 14.0721 10.3738 14.4381 10.2509C14.9113 10.0888 15.3558 9.87967 15.7636 9.58686C16.2839 9.21561 16.8774 9.01952 17.5022 8.9071C18.0303 8.81298 18.5637 8.78684 19.0996 8.76593C19.6173 8.74501 20.1349 8.76331 20.6526 8.74501C20.7572 8.7424 20.8617 8.72671 20.9611 8.69795C21.1127 8.65089 21.1389 8.56461 21.0526 8.43128C20.9428 8.26396 20.7833 8.14892 20.6343 8.02081C20.5009 7.90839 20.3545 7.81166 20.2343 7.68355C19.9676 7.40119 19.9964 7.11099 20.3127 6.88877C20.6108 6.677 20.9532 6.55674 21.2984 6.44693C21.8683 6.26653 22.4513 6.14104 23.0239 5.96849C23.1572 5.92927 23.2932 5.89267 23.4108 5.81685C23.5415 5.73058 23.5389 5.65737 23.403 5.57633C23.2513 5.48743 23.0788 5.4456 22.9115 5.40377C22.4565 5.28874 21.9938 5.19462 21.531 5.1188C21.0552 5.04037 20.5768 4.96455 20.0983 4.89657C20.0382 4.88873 19.9781 4.9018 19.9179 4.91488C19.4107 5.01684 18.9061 5.13972 18.4042 5.26521C17.6042 5.4639 16.8146 5.69659 16.0355 5.95803C15.0446 6.29268 14.0721 6.66916 13.1309 7.12668C12.4171 7.4744 11.7165 7.84042 11.0603 8.29271C10.7361 8.51494 10.4249 8.75285 10.1243 9.00122C10.0903 9.02998 10.0615 9.06136 10.0171 9.07704C9.94912 9.07181 9.89422 9.09534 9.83932 9.13717C9.34781 9.50581 8.88244 9.9032 8.41968 10.3084C8.39093 10.3346 8.35955 10.3581 8.32818 10.3843C8.24452 10.4575 8.18177 10.4418 8.12948 10.3477C8.12687 10.3398 8.12425 10.3294 8.12948 10.3215C8.27066 10.0392 8.41707 9.75679 8.61054 9.50581C8.66283 9.51627 8.62361 9.48489 8.62622 9.46921C8.71512 9.27574 8.84061 9.10057 8.96348 8.92802C9.47068 8.20382 10.0354 7.52669 10.6759 6.91753C11.1413 6.47307 11.6511 6.0783 12.1766 5.70705C12.8093 5.28612 13.476 4.92795 14.1793 4.63775C14.9688 4.31356 15.7871 4.09395 16.6264 3.94231C17.6146 3.76453 18.6107 3.74361 19.6068 3.78021C20.7023 3.82205 21.782 3.9946 22.8461 4.25081C24.1533 4.55931 25.4213 4.98546 26.6658 5.48743C26.8435 5.55802 27.0187 5.63646 27.1965 5.70966C27.2566 5.73319 27.3011 5.76979 27.3351 5.82208C27.5625 6.3868 27.7115 6.97504 27.8004 7.57636C27.837 7.8195 27.8684 8.06526 27.8736 8.31363C27.871 8.35546 27.8841 8.38945 27.8553 8.41821Z" fill="#666666"/>
<path d="M5.26412 1.46645C6.19486 0.899121 7.1988 0.53833 8.27856 0.391922C10.0119 0.159238 11.6486 0.452053 13.1884 1.28606C13.5362 1.47429 13.8708 1.68606 14.1793 1.93705C14.1872 1.94751 14.1924 1.95796 14.195 1.97104C14.1349 2.13574 13.9989 2.24555 13.8839 2.3632C13.5466 2.71353 13.2617 3.09785 13.0081 3.51093C12.9819 3.55276 12.9584 3.59198 12.9453 3.63904C12.927 3.68087 12.8878 3.7044 12.8564 3.73577C10.4773 5.73319 8.68641 8.14892 7.64325 11.0954C7.61449 11.1555 7.56482 11.1973 7.51776 11.2444C7.24063 11.5241 6.95304 11.7987 6.6916 12.0941C6.64454 12.1464 6.61055 12.2039 6.57656 12.2666C6.36741 12.6667 6.19224 13.085 5.98048 13.4824C5.95433 13.5294 5.9491 13.6078 5.86021 13.5922C5.80008 13.4484 5.81315 13.2915 5.80531 13.1425C5.77394 12.6353 5.76086 12.1255 5.77655 11.6157C5.79747 10.9071 5.84714 10.1986 5.94387 9.49535C6.09551 8.38161 6.32297 7.28093 6.60532 6.19333C7.04716 4.49134 7.60665 2.83118 8.28901 1.21024C8.29686 1.18932 8.30731 1.17102 8.31254 1.15011C8.40928 0.927879 8.5949 0.771014 8.74131 0.585389C8.76222 0.559245 8.79098 0.53833 8.80406 0.520029C8.60013 0.705653 8.41189 0.930493 8.16613 1.08736C7.72953 1.35664 7.30599 1.64946 6.89029 1.95273C6.34127 2.35274 5.80792 2.77366 5.30072 3.22596C5.25889 3.26256 5.21183 3.29655 5.16739 3.33054C5.12817 3.35668 5.09419 3.36191 5.07588 3.30701C5.03667 3.05602 5.07588 2.80504 5.0968 2.55405C5.12033 2.23771 5.14124 1.92398 5.19353 1.61024C5.20661 1.55796 5.2066 1.49782 5.26412 1.46645Z" fill="#666666"/>
<path d="M14.7283 25.3597C14.242 24.6825 13.659 24.089 13.0499 23.5243C12.2237 22.7557 11.3479 22.0472 10.4485 21.3674C9.5596 20.6955 8.62625 20.0837 7.76872 19.3726C7.48375 19.1373 7.19616 18.9046 6.91119 18.6693C6.79615 18.3765 6.73341 18.0706 6.65759 17.7674C6.45628 16.949 6.27588 16.1229 6.10072 15.2993C6.09026 15.2444 6.0615 15.1895 6.0981 15.1346C6.15301 15.1085 6.20007 15.1373 6.24713 15.1608C7.30074 15.6601 8.38311 16.0758 9.51254 16.3713C10.2786 16.5726 11.0577 16.7164 11.8498 16.7817C12.14 16.8053 12.4329 16.8236 12.7231 16.8262C13.2486 16.8288 13.7741 16.8 14.2969 16.7164C14.3649 16.7059 14.4355 16.6876 14.4983 16.732C14.5192 16.7922 14.4904 16.8445 14.4669 16.8941C14.1322 17.6549 13.9414 18.455 13.8629 19.2785C13.8028 19.8955 13.8107 20.5125 13.8499 21.1295C13.9074 22.0289 14.0799 22.9073 14.3022 23.7779C14.4224 24.2511 14.5662 24.7165 14.7257 25.1766C14.7466 25.2342 14.7806 25.2969 14.7283 25.3597Z" fill="#666666"/>
<path d="M1.00261 35.1847C1.00261 33.6892 1.00261 32.1964 1 30.701C1 30.5938 1.02614 30.565 1.13595 30.565C2.87977 30.5676 4.62098 30.5676 6.3648 30.565C6.45892 30.565 6.4903 30.5833 6.4903 30.6853C6.48507 31.148 6.48507 31.6082 6.4903 32.0709C6.49291 32.1755 6.45631 32.1886 6.3648 32.1886C5.22753 32.1859 4.09025 32.1886 2.95298 32.1833C2.83271 32.1833 2.8118 32.2147 2.8118 32.3271C2.81703 32.9938 2.81703 33.6605 2.8118 34.3272C2.8118 34.4344 2.83533 34.4657 2.94513 34.4657C3.98306 34.4605 5.01837 34.4657 6.0563 34.4605C6.17395 34.4605 6.19748 34.4919 6.19748 34.6043C6.18964 35.0566 6.19225 35.5115 6.19748 35.9638C6.19748 36.0605 6.17656 36.0867 6.07722 36.0867C5.03667 36.0814 3.99352 36.0867 2.95298 36.0814C2.83533 36.0814 2.8118 36.1102 2.8118 36.2252C2.81703 37.3756 2.81441 38.5259 2.81703 39.6763C2.81703 39.7835 2.80134 39.8253 2.67846 39.8227C2.16081 39.8148 1.64053 39.8175 1.12288 39.8227C1.02353 39.8227 1 39.7992 1 39.6998C1.00261 38.1913 1.00261 36.688 1.00261 35.1847Z" fill="#666666"/>
<path d="M27.3351 5.82991C27.0057 5.65998 26.6606 5.52925 26.3181 5.39592C25.2357 4.97238 24.135 4.60898 23.0082 4.33446C22.9585 4.32139 22.9036 4.32923 22.8592 4.29263C22.8226 4.26387 22.7755 4.24819 22.7415 4.21158C22.4618 3.92138 22.101 3.7802 21.7245 3.68347C21.2252 3.55798 20.7127 3.52137 20.2003 3.49C19.1807 3.42726 18.1584 3.41157 17.1493 3.23117C16.3074 3.08215 15.4996 2.83378 14.7649 2.38671C14.7466 2.37626 14.7283 2.36318 14.71 2.35011C14.6996 2.33965 14.6943 2.32658 14.6943 2.3109C14.8407 2.15664 15.0316 2.06514 15.2068 1.95795C16.0042 1.46644 16.8251 1.01675 17.6852 0.645506C18.0722 0.478183 18.4748 0.404979 18.8905 0.391907C19.5519 0.368377 20.2003 0.483411 20.8382 0.650735C21.8657 0.922635 22.833 1.34356 23.769 1.84553C24.3311 2.14619 24.8723 2.47822 25.3978 2.83378C25.4762 2.88868 25.5494 2.94882 25.62 3.01418C26.1063 3.55013 26.5089 4.14622 26.854 4.78153C27.0423 5.11617 27.2148 5.46128 27.3351 5.82991Z" fill="#666666"/>
<path d="M28.3207 38.2645C28.3913 38.573 28.4619 38.8736 28.5299 39.1717C28.543 39.2214 28.5534 39.2736 28.5639 39.3233C28.624 39.5952 28.6266 39.6005 28.3704 39.6972C27.6697 39.956 26.9534 40.092 26.2083 39.9299C25.6723 39.8122 25.3298 39.4802 25.1756 38.9521C25.0867 38.6488 25.0579 38.3377 25.0579 38.0213C25.0579 36.9442 25.0553 35.8697 25.0605 34.7925C25.0605 34.6906 25.037 34.6592 24.9324 34.6644C24.705 34.6723 24.4801 34.6644 24.2527 34.6696C24.1716 34.6723 24.1403 34.6566 24.1403 34.5651C24.1455 34.1468 24.1455 33.7284 24.1403 33.3101C24.1403 33.2265 24.1638 33.2082 24.2448 33.2108C24.4801 33.216 24.7154 33.2082 24.9507 33.2134C25.0344 33.216 25.0605 33.1925 25.0605 33.1062C25.0553 32.7663 25.0605 32.4265 25.0553 32.0866C25.0553 32.0029 25.0788 31.9663 25.1625 31.9454C25.6619 31.8095 26.1586 31.6683 26.6553 31.5219C26.7521 31.4931 26.7808 31.501 26.7808 31.6108C26.7756 32.1023 26.7808 32.5964 26.7756 33.0879C26.773 33.1951 26.807 33.216 26.9063 33.216C27.3586 33.2108 27.8135 33.216 28.2658 33.2108C28.3652 33.2108 28.3913 33.2343 28.3887 33.3337C28.3835 33.7389 28.3835 34.1441 28.3887 34.5494C28.3887 34.6435 28.3756 34.6749 28.2711 34.6723C27.8083 34.6644 27.3482 34.6723 26.8854 34.667C26.7991 34.667 26.7756 34.6879 26.7782 34.7742C26.7834 35.6631 26.7808 36.552 26.7861 37.4409C26.7861 37.6553 26.8148 37.8671 26.8776 38.071C26.9612 38.3429 27.1338 38.4684 27.4161 38.4789C27.7325 38.4867 28.0253 38.3978 28.3207 38.2645Z" fill="#666666"/>
<path d="M16.48 16.1046C16.5454 16.3661 16.6656 16.6092 16.7571 16.8602C16.9584 17.4144 17.1441 17.9739 17.3062 18.5439C17.4892 19.1844 17.6513 19.8328 17.7715 20.489C17.863 20.9884 17.9519 21.4851 17.9755 21.9949C17.4029 22.5152 16.8329 23.0407 16.297 23.6028C15.8029 24.1178 15.3192 24.6433 14.9375 25.2525C14.9113 25.2917 14.8878 25.3309 14.8643 25.3728C14.8042 25.2917 14.8538 25.2133 14.8774 25.1375C15.0133 24.7139 15.1388 24.2878 15.2564 23.8616C15.5153 22.9204 15.7297 21.9688 15.8369 20.9962C15.9257 20.1727 15.931 19.3543 15.7323 18.5439C15.5754 17.906 15.2826 17.3412 14.8355 16.8523C14.7519 16.7608 14.6368 16.7112 14.5506 16.6275C14.5218 16.5857 14.5506 16.5491 14.5636 16.5125C14.8329 15.9687 15.1649 15.4693 15.5623 15.0092C15.6172 14.9464 15.6617 14.8784 15.7218 14.8209C15.761 14.7843 15.795 14.732 15.8604 14.7347C15.9153 14.7556 15.9336 14.8079 15.9545 14.8523C16.1323 15.234 16.2996 15.6183 16.4643 16.0053C16.4774 16.0366 16.4878 16.0706 16.48 16.1046Z" fill="#666666"/>
<path d="M14.5453 16.6014C14.8643 16.7426 15.0421 17.0275 15.2277 17.2942C15.5937 17.8275 15.7872 18.4315 15.8709 19.0642C15.9336 19.5322 15.9467 20.0027 15.9127 20.4786C15.8813 20.91 15.8369 21.3413 15.7689 21.7675C15.6878 22.2721 15.5728 22.7688 15.4499 23.2656C15.2826 23.9427 15.0734 24.6094 14.8748 25.2787C14.8669 25.3074 14.8669 25.3388 14.8643 25.3676C14.8538 25.4042 14.846 25.4564 14.8068 25.4564C14.7519 25.4564 14.7545 25.3911 14.731 25.3545C14.6996 25.1296 14.6029 24.9231 14.5349 24.7113C14.2656 23.8512 14.0591 22.9754 13.9153 22.0838C13.7819 21.2551 13.7584 20.4237 13.7976 19.5923C13.8316 18.8289 13.9806 18.0811 14.2421 17.3596C14.3179 17.1478 14.4042 16.9386 14.493 16.7321C14.4747 16.6772 14.4904 16.6301 14.5453 16.6014Z" fill="#666666"/>
<path d="M6.10596 15.1399C6.30465 16.0262 6.50074 16.9125 6.70466 17.7961C6.76741 18.0733 6.85368 18.3478 6.9295 18.6223C6.93473 18.6406 6.9295 18.6563 6.91382 18.6667C5.80007 17.7072 4.74907 16.6902 3.80526 15.5634C2.87714 14.4549 2.05883 13.2732 1.52025 11.9189C1.26665 11.281 1.08364 10.6248 1.02874 9.93979C0.994754 9.72802 1.04443 9.52409 1.09149 9.32278C1.17776 8.94369 1.30848 8.58029 1.44966 8.2195C1.46535 8.18028 1.47319 8.13322 1.5281 8.12799C1.56993 8.16982 1.56208 8.22472 1.5647 8.2744C1.60391 9.58945 1.95948 10.8156 2.62616 11.9503C2.66276 12.013 2.71243 12.0705 2.72289 12.149C2.74903 12.5934 2.79609 13.0327 2.93727 13.4562C2.93989 13.464 2.9425 13.4719 2.94773 13.4797C2.97649 13.5372 2.9974 13.6131 3.07061 13.6183C3.15427 13.6209 3.1778 13.5425 3.20656 13.4797C3.26146 13.3516 3.29283 13.2157 3.34512 13.0849C3.37911 13.0483 3.41571 13.0719 3.43401 13.098C3.52552 13.2183 3.65624 13.3046 3.72421 13.4457C3.97259 14.3529 4.35691 15.2 4.81966 15.9111C4.59482 15.3961 4.40658 14.7712 4.2471 14.1386C4.23141 14.0784 4.1922 14.0131 4.26017 13.9582C4.31246 13.9555 4.34906 13.9895 4.38566 14.0209C4.86933 14.4209 5.39483 14.7529 5.96216 15.0222C6.00399 15.0431 6.04844 15.0614 6.08504 15.0954C6.09288 15.1033 6.10334 15.1216 6.10596 15.1399Z" fill="#666666"/>
<path d="M23.1442 36.5259C23.1442 37.5795 23.1415 38.6331 23.1468 39.6894C23.1468 39.7913 23.1232 39.8201 23.0187 39.8175C22.5219 39.8122 22.0252 39.8122 21.5284 39.8175C21.4448 39.8175 21.4186 39.7992 21.4186 39.7103C21.4213 37.5795 21.4213 35.4514 21.4186 33.3206C21.4186 33.2343 21.4396 33.2108 21.5258 33.2108C22.0226 33.216 22.5193 33.216 23.0161 33.2108C23.1154 33.2108 23.1468 33.2317 23.1468 33.3389C23.1415 34.4004 23.1442 35.4618 23.1442 36.5259Z" fill="#666666"/>
<path d="M5.26411 1.46643C5.23797 1.6233 5.19875 1.78016 5.19091 1.93703C5.16476 2.40762 5.09156 2.87561 5.10986 3.34882C5.12293 3.41941 5.06542 3.44817 5.0262 3.48477C4.61835 3.85863 4.23141 4.25079 3.85494 4.65603C3.32159 5.22859 2.85361 5.84821 2.42485 6.50181C2.11373 6.98025 1.84183 7.48222 1.61176 8.00511C1.57516 8.09139 1.56993 8.08877 1.5098 8.08616C1.47319 7.90838 1.48365 7.7306 1.49672 7.55281C1.5647 6.58286 1.80261 5.65474 2.21569 4.77368C2.33334 4.52008 2.49021 4.29001 2.62616 4.04687C3.2327 3.14228 3.96736 2.35795 4.85365 1.72264C4.98175 1.63114 5.10202 1.51349 5.26411 1.46643Z" fill="#666666"/>
<path d="M25.6253 3.00893C25.3272 2.81546 25.0318 2.61938 24.7285 2.43114C23.9468 1.94225 23.1311 1.51871 22.2762 1.16838C21.6069 0.893861 20.9246 0.676864 20.216 0.535685C19.7507 0.44418 19.2801 0.397121 18.8069 0.423265C18.3389 0.446795 17.897 0.572287 17.4709 0.770984C16.5323 1.21021 15.6303 1.70956 14.765 2.27951C14.7467 2.28996 14.7257 2.29519 14.7048 2.30304C14.6552 2.32134 14.6212 2.28735 14.5872 2.26382C14.446 2.17232 14.3101 2.07297 14.1846 1.96055C14.1846 1.9527 14.1819 1.94225 14.1819 1.9344C14.2107 1.93702 14.2316 1.92656 14.2499 1.90564C14.9035 1.20498 15.7245 0.778827 16.6186 0.483397C17.3402 0.242869 18.0827 0.112148 18.8409 0.0494018C19.2226 0.0180286 19.6043 -0.0081157 19.9886 0.002342C20.8461 0.0232574 21.6697 0.211496 22.454 0.553986C23.6985 1.09779 24.7129 1.94747 25.5991 2.96449C25.6096 2.97756 25.6148 2.99586 25.6253 3.00893Z" fill="#666666"/>
<path d="M22.2187 30.4291C22.488 30.4212 22.7285 30.4683 22.9429 30.6147C23.2279 30.8055 23.3848 31.067 23.3586 31.4173C23.3325 31.7677 23.1312 31.9977 22.8279 32.1337C22.4593 32.301 22.0749 32.3036 21.6985 32.152C21.3507 32.0134 21.1468 31.6735 21.1677 31.3023C21.1886 30.918 21.4449 30.5938 21.8239 30.4814C21.9573 30.4395 22.0932 30.4238 22.2187 30.4291Z" fill="#666666"/>
<path d="M2.6236 4.0495C2.58439 4.21421 2.47981 4.34493 2.40399 4.48872C2.17131 4.9201 1.9883 5.3724 1.8445 5.843C1.72947 6.21424 1.64581 6.59595 1.5909 6.98027C1.536 7.35152 1.51247 7.73061 1.53077 8.10709C1.53862 8.11755 1.536 8.12539 1.52554 8.13062C1.3373 8.58814 1.17783 9.05613 1.07848 9.54241C1.05233 9.67574 1.03403 9.80385 1.0288 9.93719C0.992201 9.85875 1.01573 9.77509 1.01312 9.69405C0.986972 8.86266 1.0288 8.03389 1.21443 7.21818C1.46541 6.10967 1.91248 5.09004 2.54517 4.14885C2.56347 4.11486 2.59484 4.08349 2.6236 4.0495Z" fill="#666666"/>
<path d="M16.48 16.1046C16.3153 15.736 16.1506 15.3647 15.9859 14.9961C15.9466 14.9098 15.9153 14.8209 15.8551 14.7451C15.8159 14.719 15.8002 14.6797 15.7793 14.6405C15.4028 13.885 14.9976 13.1477 14.5558 12.4287C14.5035 12.3424 14.412 12.2745 14.4172 12.1568C14.4747 12.1254 14.5427 12.162 14.6002 12.1333C15.51 12.0418 16.4016 11.8457 17.2878 11.6209C18.731 11.2575 20.1506 10.8156 21.5598 10.3372C21.6095 10.3215 21.6592 10.3084 21.7088 10.2953C21.3402 11.0771 20.9611 11.8535 20.4801 12.5725C20.1768 13.0274 19.85 13.464 19.4866 13.8745C19.3036 14.081 19.1101 14.2719 18.914 14.4654C18.514 14.8575 18.0774 15.2079 17.6016 15.5059C17.2695 15.7151 16.9375 15.9164 16.5767 16.068C16.5454 16.0837 16.5114 16.0941 16.48 16.1046Z" fill="#666666"/>
<path d="M21.5259 5.09788C21.7612 5.11356 21.9886 5.16847 22.2187 5.21553C22.5324 5.27827 22.8462 5.34886 23.1547 5.44037C23.2671 5.47436 23.3769 5.5188 23.4762 5.58155C23.5939 5.65475 23.5965 5.73057 23.4919 5.81685C23.4161 5.87959 23.3272 5.91358 23.2357 5.94495C22.6919 6.12796 22.1298 6.24561 21.5808 6.40771C21.1729 6.52797 20.7625 6.65085 20.3991 6.88092C20.3625 6.90445 20.3259 6.92798 20.2919 6.95674C20.0383 7.16589 20.0226 7.41426 20.25 7.65217C20.4252 7.83518 20.6396 7.97113 20.8278 8.13846C20.9402 8.2378 21.0448 8.33977 21.118 8.47049C21.1834 8.58552 21.1546 8.66918 21.0317 8.72147C20.9193 8.76853 20.7964 8.78422 20.6762 8.78683C20.433 8.79206 20.1899 8.78683 19.9468 8.79206C19.5075 8.79991 19.0683 8.79729 18.6291 8.82082C18.0252 8.85481 17.4265 8.92801 16.8487 9.10841C16.4643 9.22867 16.0983 9.39338 15.7741 9.63129C15.2486 10.0156 14.6604 10.2509 14.0355 10.4104C13.8002 10.4705 13.5623 10.5202 13.3218 10.5437C13.1937 10.4209 13.1257 10.2588 13.0447 10.1071C12.7937 9.63914 12.5688 9.1607 12.4146 8.65088C12.3989 8.60121 12.3754 8.55415 12.3885 8.49925C12.4041 8.4548 12.4407 8.43127 12.48 8.41036C13.1937 7.99989 13.9153 7.60773 14.6604 7.25739C15.199 7.00379 15.7454 6.76327 16.2996 6.54366C17.0212 6.25868 17.7506 5.99985 18.4931 5.77763C19.1258 5.58678 19.7664 5.42207 20.4147 5.28089C20.7625 5.20507 21.1128 5.12925 21.4684 5.09788C21.484 5.08481 21.5076 5.08481 21.5259 5.09788Z" fill="#666666"/>
<path d="M14.4146 12.1568C14.7702 12.711 15.1075 13.2758 15.4107 13.8614C15.5624 14.1542 15.7297 14.4392 15.8526 14.7451C15.6251 14.9412 15.4526 15.1869 15.2696 15.4196C15.0212 15.7359 14.8225 16.0889 14.6264 16.4392C14.6107 16.4654 14.6055 16.4967 14.595 16.5229C14.5245 16.5699 14.48 16.515 14.433 16.4811C14.0068 16.1438 13.5362 15.8771 13.0499 15.6444C12.595 15.4274 12.127 15.234 11.6643 15.0353C10.9009 14.7059 10.1453 14.3555 9.45508 13.8849C8.90083 13.5084 8.39363 13.0797 7.97532 12.5542C7.91519 12.4784 7.84983 12.4104 7.77924 12.345C7.74263 12.311 7.67727 12.2718 7.74525 12.2065C7.79754 12.1725 7.86028 12.1699 7.92042 12.1594C8.78056 12.0235 9.64332 11.9084 10.5113 11.8352C11.0917 11.7855 11.6747 11.7568 12.2577 11.7829C12.6839 11.8012 13.1101 11.8326 13.5074 12.0182C13.6225 12.0705 13.7558 12.0601 13.863 12.1333C14.0434 12.1829 14.2316 12.1437 14.4146 12.1568Z" fill="#666666"/>
<path d="M14.7022 2.32653C14.8669 2.37098 15.0002 2.48078 15.1519 2.5566C15.5336 2.74745 15.9309 2.89125 16.3414 3.0089C16.8303 3.14746 17.3297 3.23112 17.8316 3.29125C18.1977 3.33309 18.5637 3.35661 18.9323 3.38014C19.4604 3.41413 19.9859 3.43243 20.514 3.47426C20.9167 3.50564 21.3167 3.54485 21.7062 3.64159C22.1481 3.75139 22.569 3.91349 22.8618 4.29519C22.4958 4.22199 22.1298 4.14879 21.7637 4.08081C21.3376 3.99976 20.9062 3.95009 20.4774 3.8978C19.7402 3.8063 19.0003 3.80891 18.263 3.82721C17.4996 3.84551 16.7414 3.95009 15.9963 4.12003C15.0028 4.34487 14.0564 4.69782 13.157 5.17364C12.8172 5.35404 12.5008 5.56842 12.1714 5.75927C12.1322 5.68345 12.1609 5.60502 12.174 5.5292C12.2864 4.95403 12.4694 4.39977 12.7361 3.87689C12.7675 3.81675 12.8198 3.77754 12.8512 3.72002C12.8773 3.69388 12.9034 3.66773 12.9296 3.64159C12.9662 3.57623 13.0185 3.52655 13.076 3.47949C13.5544 3.09517 14.0486 2.73438 14.5531 2.38666C14.5924 2.34745 14.6394 2.30823 14.7022 2.32653Z" fill="#666666"/>
<path d="M21.5259 5.09785C20.1585 5.32269 18.8225 5.6678 17.5153 6.12009C16.7153 6.39722 15.9284 6.70572 15.1571 7.05344C14.2525 7.46129 13.3767 7.92143 12.5165 8.41556C12.4747 8.43909 12.4381 8.47046 12.4015 8.4966C12.3754 8.55151 12.3205 8.57504 12.2734 8.6038C11.4289 9.11361 10.6106 9.66264 9.82369 10.2587C9.72434 10.3345 9.62238 10.4104 9.52826 10.494C9.49689 10.5097 9.46551 10.4993 9.43153 10.4966C9.25113 10.4862 9.08119 10.4339 8.90341 10.4078C8.79361 10.3921 8.82759 10.3215 8.86681 10.264C9.0106 10.0574 9.17008 9.85872 9.34002 9.6731C9.50996 9.48747 9.69558 9.31492 9.87336 9.13714C9.90735 9.10315 9.93611 9.06394 9.99363 9.07439C10.4224 8.70837 10.8747 8.37111 11.3505 8.06784C11.7714 7.79855 12.2133 7.56587 12.6551 7.3358C13.2172 7.04037 13.795 6.78416 14.3806 6.54624C14.8303 6.36323 15.2852 6.19591 15.7428 6.03381C16.4382 5.78806 17.1441 5.57368 17.8552 5.38021C18.3729 5.23903 18.8931 5.11092 19.416 4.99066C19.6069 4.94883 19.7951 4.90177 19.9886 4.87301C20.1402 4.84948 20.2892 4.89915 20.4383 4.92007C20.7886 4.97236 21.1389 5.02726 21.4893 5.07955C21.5049 5.07955 21.5154 5.09001 21.5259 5.09785Z" fill="#666666"/>
<path d="M9.44721 10.4601C9.47336 10.4679 9.4995 10.4758 9.52564 10.4836C9.60931 10.4287 9.69558 10.4679 9.77924 10.4784C10.459 10.5699 11.144 10.6248 11.8316 10.6222C12.2577 10.6195 12.6813 10.5856 13.1048 10.5333C13.1675 10.5254 13.2355 10.5071 13.2904 10.5594C13.3349 10.5594 13.3715 10.5699 13.3976 10.6143C13.6669 11.064 13.9885 11.4797 14.2734 11.9163C14.3127 11.9764 14.3911 12.0549 14.3676 12.1019C14.3388 12.1647 14.2342 12.1228 14.1636 12.1255C14.0643 12.1307 13.9649 12.1281 13.863 12.1281C13.6564 12.1359 13.4787 12.0287 13.2904 11.9712C12.778 11.8143 12.2473 11.8065 11.7165 11.8117C10.9296 11.8196 10.1505 11.898 9.36878 11.9895C8.85112 12.0523 8.33869 12.1333 7.82365 12.2065C7.78967 12.2117 7.75568 12.2248 7.72169 12.2326C7.62234 12.298 7.51254 12.3006 7.40012 12.3006C7.3243 12.2326 7.38182 12.1804 7.42888 12.1411C8.11385 11.5973 8.75177 10.9934 9.44721 10.4601Z" fill="#666666"/>
<path d="M12.8459 3.71222C12.7466 3.9266 12.6394 4.13837 12.5505 4.35798C12.3806 4.7789 12.2446 5.21029 12.1897 5.6652C12.1871 5.69395 12.174 5.72271 12.1662 5.75409C11.8864 5.9737 11.5936 6.17239 11.3191 6.39985C10.8903 6.76064 10.4851 7.14496 10.106 7.55804C9.6851 8.01556 9.30862 8.50708 8.95044 9.01166C8.84064 9.16591 8.7439 9.33062 8.64194 9.49272C8.64978 9.50317 8.64717 9.51102 8.63933 9.51624C8.45109 9.78292 8.29945 10.0679 8.1452 10.3555C8.04847 10.6561 7.9465 10.9516 7.62231 11.0875C7.73473 10.6954 7.89944 10.3189 8.06415 9.94763C8.46939 9.03258 8.95306 8.15936 9.523 7.3332C9.92824 6.74757 10.3648 6.18808 10.8354 5.65474C11.1936 5.25212 11.5675 4.86257 11.957 4.49132C12.242 4.22203 12.5244 3.9449 12.8459 3.71222Z" fill="#666666"/>
<path d="M13.2879 10.562C12.8774 10.596 12.4695 10.6352 12.0591 10.6587C11.829 10.6718 11.5989 10.6796 11.3715 10.6509C11.178 10.6247 10.9819 10.6404 10.7885 10.6221C10.3675 10.5855 9.944 10.5437 9.5257 10.4835C9.57537 10.3581 9.70086 10.3084 9.7976 10.2378C10.3466 9.8221 10.9113 9.4247 11.4917 9.05346C11.7924 8.8626 12.0878 8.66391 12.4016 8.49658C12.6003 9.19725 12.9166 9.84301 13.2879 10.4679C13.3009 10.4888 13.3088 10.5149 13.3192 10.5384C13.3088 10.5437 13.2983 10.5541 13.2879 10.562Z" fill="#666666"/>
<path d="M7.61975 11.0875C7.8995 10.9202 8.00146 10.6222 8.14264 10.3555C8.22107 10.4444 8.29166 10.3921 8.34918 10.3346C8.59232 10.1071 8.85115 9.89796 9.10997 9.68619C9.36357 9.47704 9.6224 9.27572 9.88123 9.0718C9.91783 9.04304 9.95705 9.02997 9.99626 9.0718C9.59626 9.44043 9.21717 9.82737 8.90082 10.2718C8.85376 10.3398 8.83023 10.3764 8.95049 10.3816C9.11782 10.3895 9.27991 10.4601 9.44985 10.4601C9.42109 10.5803 9.30606 10.6195 9.22501 10.6823C8.86422 10.9725 8.51388 11.2758 8.15832 11.5712C7.92302 11.7673 7.72694 12.0104 7.45243 12.1621C7.40798 12.1856 7.3923 12.2353 7.38445 12.2823C7.36877 12.3581 7.30863 12.3974 7.25635 12.4418C6.76745 12.8706 6.33607 13.3542 5.89161 13.8274C5.82364 13.8588 5.78965 13.8301 5.7975 13.7621C5.80534 13.6941 5.82364 13.6261 5.89423 13.5921C6.08247 13.2104 6.27855 12.8313 6.45372 12.4418C6.56352 12.2013 6.72039 12.0052 6.90078 11.8222C7.1387 11.5764 7.37922 11.3333 7.61975 11.0875Z" fill="#666666"/>
<path d="M14.5976 12.1333C14.5401 12.1778 14.4747 12.149 14.4146 12.1568C14.4721 12.115 14.5349 12.1385 14.5976 12.1333Z" fill="#666666"/>
<path d="M8.63672 9.51627C8.63672 9.50842 8.63933 9.50058 8.63933 9.49274C8.66025 9.49535 8.68116 9.49797 8.67855 9.52672C8.67855 9.53718 8.66548 9.55025 8.65764 9.55287C8.63672 9.55287 8.63933 9.53195 8.63672 9.51627Z" fill="#666666"/>
<path d="M5.89155 13.5921C5.86802 13.647 5.84188 13.7019 5.82358 13.7595C5.79743 13.8431 5.84711 13.8222 5.89155 13.8039C5.94123 13.8353 5.94646 13.8902 5.9543 13.9399C5.99874 14.2823 6.04319 14.6222 6.11117 14.9595C6.12162 15.0118 6.16084 15.0797 6.07718 15.119C5.55429 14.8627 5.04448 14.5778 4.58173 14.2196C4.47453 14.1359 4.37257 14.0497 4.27061 13.9634C4.18433 13.9477 4.13204 13.8797 4.07191 13.8274C3.93335 13.7124 3.80001 13.5895 3.69543 13.4405C3.58563 13.315 3.47321 13.1921 3.3634 13.0666C3.29543 13.0536 3.26928 12.9908 3.23268 12.9464C3.05229 12.7294 2.89019 12.4941 2.73594 12.2588C2.71764 12.23 2.69934 12.1986 2.70195 12.162C2.52679 11.8431 2.34116 11.5267 2.19475 11.1921C1.87579 10.4653 1.66403 9.71232 1.57775 8.92538C1.54899 8.66132 1.52808 8.39727 1.52808 8.13321C1.53069 8.12537 1.53331 8.11752 1.53331 8.10968C1.84965 7.38548 2.23658 6.70312 2.68888 6.05736C3.35556 5.11093 4.13204 4.26124 4.98696 3.48215C5.03141 3.44032 5.07062 3.39587 5.11245 3.35142C5.69024 2.8573 6.27587 2.37102 6.89288 1.92395C7.27981 1.6442 7.67721 1.37492 8.07721 1.11348C8.10597 1.09517 8.13996 1.0821 8.17133 1.06903C8.19486 1.12393 8.15042 1.14746 8.11904 1.17361C7.67721 1.57362 7.21968 1.95532 6.73863 2.30827C6.28895 2.63769 5.91247 3.04031 5.55952 3.46907C5.4288 3.62594 5.30592 3.79065 5.18043 3.95013C5.11507 4.03379 5.05494 4.11745 5.03141 4.22203C5.02095 4.26386 4.99742 4.30308 4.97128 4.33706C4.75166 4.61942 4.61571 4.94361 4.48499 5.29656C4.61571 5.17107 4.73598 5.06126 4.8667 4.96453C4.93467 4.91224 5.00265 4.86518 5.09154 4.91485C5.18043 4.96453 5.20134 5.04557 5.19612 5.13708C5.18827 5.2312 5.1752 5.32532 5.1569 5.40636C5.20134 5.33577 5.18304 5.24165 5.20396 5.15538C5.24056 5.01159 5.30592 4.87564 5.40266 4.7606C5.50723 4.63249 5.60658 4.50177 5.67978 4.35275C5.88632 3.93183 6.22359 3.61025 6.51379 3.25469C7.07066 2.57494 7.6406 1.90565 8.20532 1.23113C8.24454 1.18407 8.2733 1.11609 8.35696 1.12655C8.28637 1.38276 8.16349 1.62067 8.06676 1.86643C7.36086 3.65731 6.78307 5.48741 6.36999 7.36718C6.20267 8.12275 6.06672 8.88094 5.96999 9.64958C5.90462 10.1672 5.86802 10.6849 5.83665 11.2078C5.81051 11.647 5.81574 12.0862 5.82096 12.5254C5.82619 12.8679 5.85495 13.2104 5.87325 13.5529C5.87064 13.5634 5.88371 13.5791 5.89155 13.5921Z" fill="#666666"/>
<path d="M8.35173 1.12391C8.2001 1.23633 8.10336 1.40104 7.98048 1.53961C7.71904 1.84027 7.46806 2.15138 7.21184 2.45727C6.86935 2.87035 6.53471 3.29127 6.17653 3.69389C5.94908 3.95011 5.77391 4.23508 5.6092 4.53051C5.54645 4.64293 5.44449 4.73182 5.37652 4.84424C5.29547 4.97496 5.20919 5.10045 5.22488 5.27301C5.23011 5.3436 5.16475 5.42203 5.10723 5.49C5.1203 5.40111 5.13076 5.31222 5.14645 5.22333C5.1569 5.16582 5.16213 5.11091 5.15167 5.05601C5.12815 4.93052 5.01572 4.88869 4.91115 4.9645C4.76474 5.06908 4.6314 5.18412 4.50853 5.31484C4.49023 5.33314 4.47192 5.36451 4.44317 5.34883C4.40656 5.32791 4.43271 5.29654 4.44317 5.27039C4.58173 4.93313 4.74382 4.61156 4.93468 4.29783C5.07324 4.06776 5.21181 3.84292 5.37652 3.63115C5.83143 3.04552 6.34908 2.52525 6.95563 2.09125C7.32688 1.82719 7.67198 1.52915 8.00402 1.21542C8.0563 1.16574 8.13735 1.14483 8.16088 1.0664C8.40925 0.883386 8.61318 0.653316 8.85632 0.462463C8.7073 0.695147 8.49814 0.886 8.35173 1.12391Z" fill="#666666"/>
<path d="M14.7022 2.3266C14.3571 2.53314 14.033 2.77628 13.7114 3.01942C13.4447 3.22073 13.1859 3.42989 12.9244 3.63643C12.9244 3.54754 12.9872 3.48479 13.029 3.41682C13.2852 3.01158 13.5728 2.6351 13.9101 2.29261C14.0094 2.19326 14.1192 2.09392 14.182 1.9632C14.2656 1.96842 14.3179 2.03379 14.3781 2.08084C14.4826 2.16189 14.5924 2.2351 14.7049 2.30568C14.7022 2.31091 14.7022 2.31876 14.7022 2.3266Z" fill="#666666"/>
<path d="M6.07723 15.119C6.08507 15.1033 6.09814 15.0876 6.09553 15.0745C5.99879 14.6562 5.95958 14.2274 5.8916 13.8065C5.90729 13.7804 5.91775 13.749 5.93605 13.7281C6.40664 13.2366 6.86678 12.7346 7.37921 12.2875C7.49163 12.2719 7.60667 12.2562 7.71909 12.2405C8.36223 12.9987 9.07859 13.6732 9.95181 14.1647C10.5165 14.4837 11.0995 14.7582 11.6956 15.0144C12.493 15.3569 13.3009 15.6811 14.0355 16.1569C14.1872 16.2562 14.3336 16.3687 14.4774 16.4758C14.514 16.502 14.5454 16.5308 14.5924 16.5255C14.5741 16.5517 14.5584 16.5778 14.5401 16.604C14.5218 16.6484 14.5035 16.6928 14.4878 16.7347C14.3127 16.7216 14.1427 16.7713 13.9728 16.7948C13.8395 16.8131 13.7061 16.821 13.5728 16.8314C13.2669 16.8576 12.9558 16.8732 12.6499 16.8576C12.161 16.8366 11.6747 16.8079 11.1884 16.7425C10.3753 16.6301 9.58056 16.4445 8.79884 16.2039C8.12694 15.9974 7.47072 15.749 6.82757 15.4641C6.58704 15.3569 6.3439 15.2497 6.10337 15.1425C6.09553 15.1346 6.08507 15.1268 6.07723 15.119Z" fill="#666666"/>
<path fill-rule="evenodd" clip-rule="evenodd" d="M14.1979 33.9617C14.1978 34.3232 14.1976 34.6847 14.1976 35.0461C14.1976 36.4396 14.1976 37.8357 14.2002 39.2213L14.2002 39.2293C14.2002 39.5456 14.2002 39.5489 14.5114 39.6449C15.429 39.9272 16.3702 40.0423 17.3245 39.9377C18.5036 39.8122 19.3794 39.224 19.7977 38.0919C20.2291 36.918 20.1951 35.7154 19.8213 34.5284C19.6565 34.0082 19.3324 33.5899 18.8408 33.3206C18.4068 33.0827 17.9362 33.0173 17.45 33.0513C16.914 33.0879 16.433 33.2683 16.0408 33.6552C16.0335 33.6625 16.0265 33.6719 16.0194 33.6814C15.9985 33.7093 15.9765 33.7388 15.9414 33.7232C15.9064 33.7096 15.9119 33.6728 15.9171 33.6387C15.9188 33.627 15.9205 33.6156 15.9205 33.6056C15.9205 32.6382 15.9205 31.6709 15.9231 30.7035C15.9231 30.599 15.9022 30.5624 15.7898 30.565C15.3061 30.5728 14.8225 30.5728 14.3388 30.565C14.2238 30.5624 14.195 30.5911 14.195 30.7062C14.1989 31.7924 14.1984 32.8773 14.1979 33.9617ZM15.9205 35.6736V36.8762C15.9205 36.9504 15.9206 37.0245 15.9206 37.0986C15.921 37.4688 15.9214 37.8384 15.9127 38.2044C15.9127 38.3063 15.9466 38.3508 16.0382 38.3848C16.3911 38.5129 16.7545 38.539 17.1205 38.4972C17.5493 38.4501 17.8604 38.2174 18.0565 37.8305C18.2107 37.5298 18.2683 37.2056 18.2944 36.8736C18.3388 36.3377 18.3362 35.8017 18.1637 35.284C17.9754 34.7167 17.5859 34.4631 16.9898 34.5128C16.3911 34.5625 15.9205 35.0749 15.9205 35.6736Z" fill="#666666"/>
<path fill-rule="evenodd" clip-rule="evenodd" d="M12.7361 38.9677C12.6734 38.288 12.676 37.6108 12.7152 36.9311C12.7544 36.3402 12.7884 35.7494 12.7623 35.1533C12.744 34.7088 12.6681 34.2774 12.4145 33.8984C12.0773 33.4016 11.5727 33.1977 11.0054 33.1271C10.3648 33.0461 9.72692 33.0853 9.09161 33.1872C8.61579 33.2631 8.15303 33.3755 7.70858 33.5637C7.70186 33.5667 7.69504 33.5694 7.68835 33.572C7.64819 33.5877 7.61297 33.6014 7.63538 33.6709C7.72891 33.9574 7.81955 34.2438 7.91052 34.5314C7.9416 34.6296 7.97272 34.7279 8.00401 34.8265C8.0197 34.8762 8.038 34.8866 8.08767 34.8657C8.44062 34.7114 8.8171 34.633 9.19619 34.5755C9.60666 34.5154 10.0197 34.4761 10.4328 34.5389C10.7727 34.5886 10.9662 34.7585 11.0341 35.0539C11.0733 35.216 11.0864 35.3834 11.076 35.5481C11.0555 35.8724 11.0551 35.8724 10.743 35.8674C10.7357 35.8673 10.7281 35.8671 10.7204 35.867C10.0145 35.8539 9.31123 35.8984 8.63409 36.1337C7.73734 36.4474 7.17262 37.0461 7.21446 38.0658C7.24583 38.8004 7.55694 39.3677 8.22362 39.6972C8.99488 40.0762 10.3413 40.0789 11.11 39.0122C11.1177 39.0017 11.1242 38.9893 11.1308 38.9769C11.1487 38.9432 11.1665 38.9097 11.2067 38.9154C11.2528 38.9231 11.2594 38.9633 11.2658 39.0027C11.2682 39.0169 11.2705 39.0311 11.2747 39.0435C11.3479 39.2762 11.4185 39.5089 11.4864 39.7442C11.5047 39.8096 11.5309 39.8357 11.6015 39.8357C12.0119 39.8331 12.4198 39.8331 12.8302 39.8357C12.9087 39.8357 12.9191 39.8174 12.8956 39.7468C12.8119 39.4932 12.7623 39.2318 12.7361 38.9677ZM11.0682 37.3834V37.3573C11.0682 37.3197 11.0676 37.2818 11.067 37.2441C11.0658 37.1688 11.0647 37.094 11.0682 37.0226C11.0708 36.952 11.0577 36.9233 10.9793 36.9181C10.7048 36.8998 10.4303 36.8945 10.1584 36.9259C9.85508 36.9625 9.55442 37.0148 9.29298 37.1873C9.06552 37.3364 8.96356 37.5455 8.99232 37.82C9.02108 38.1128 9.1518 38.3377 9.43938 38.4344C9.79495 38.5547 10.1531 38.5285 10.4773 38.3508C10.8459 38.1468 11.1518 37.8775 11.0682 37.3834Z" fill="#666666"/>
<path d="M3.69287 13.4405C3.88634 13.6157 4.07719 13.7882 4.27066 13.9634C4.2236 14 4.25497 14.0418 4.26543 14.081C4.33863 14.4157 4.4406 14.7451 4.54517 15.0719C4.64714 15.3935 4.76217 15.7124 4.88505 16.0288C4.72557 15.8379 4.59746 15.6262 4.4772 15.4092C4.1504 14.8131 3.89418 14.183 3.70856 13.5294C3.6981 13.5006 3.69549 13.4692 3.69287 13.4405Z" fill="#666666"/>
<path d="M2.69671 12.162C2.90848 12.4706 3.12286 12.7764 3.36078 13.0666C3.33725 13.2444 3.27712 13.4117 3.19607 13.5712C3.12286 13.7124 3.03136 13.7098 2.95031 13.5712C2.83005 13.3647 2.80129 13.1294 2.75946 12.9019C2.72024 12.6823 2.70194 12.4575 2.67841 12.2353C2.67318 12.2065 2.67318 12.1803 2.69671 12.162Z" fill="#666666"/>
</g>
</g>
</g>
</svg>
