<?xml version="1.0" encoding="UTF-8" ?>
<svg width="30" height="30" viewBox="0 0 30 30" fill="none" xmlns="http://www.w3.org/2000/svg">
<path opacity="0.6" d="M4.96967 12.7002L10.9697 12.6802C11.7197 12.6802 12.5597 13.2502 12.8397 13.9502L13.9797 16.8302C14.2397 17.4802 14.6497 17.4802 14.9097 16.8302L17.1997 11.0202C17.4197 10.4602 17.8297 10.4402 18.1097 10.9702L19.1497 12.9402C19.4597 13.5302 20.2597 14.0102 20.9197 14.0102H24.9797" stroke="#EC1C24" stroke-width="2" stroke-linecap="round" stroke-linejoin="round"/>
<path d="M15.7749 26.0127C15.3499 26.1627 14.6499 26.1627 14.2249 26.0127C10.5999 24.7752 2.49994 19.6127 2.49994 10.8627C2.49994 7.00021 5.61244 3.87521 9.44994 3.87521C11.7249 3.87521 13.7374 4.97521 14.9999 6.67521C16.2624 4.97521 18.2874 3.87521 20.5499 3.87521C24.3874 3.87521 27.4999 7.00021 27.4999 10.8627C27.4999 19.6127 19.3999 24.7752 15.7749 26.0127Z" stroke="#292D32" stroke-width="2" stroke-linecap="round" stroke-linejoin="round"/>
</svg>
