<?xml version="1.0" encoding="UTF-8"?><svg width="130" height="42" viewBox="0 0 130 42" fill="none" xmlns="http://www.w3.org/2000/svg">
<path d="M6.49753 29.3167V22.4033H10.0322V29.3687H6.49753V29.3167Z" fill="#8E8E93"/>
<path d="M0.155945 29.3169V13.5669H3.6906V29.3169H0.155945Z" fill="#8E8E93"/>
<path d="M36.5421 29.3168V26.7698C35.9703 27.5495 35.2945 28.2252 34.4109 28.797C33.5792 29.3688 32.5396 29.6287 31.2921 29.6287C30.3564 29.6287 29.4728 29.4727 28.6411 29.1089C27.8094 28.745 27.0297 28.2252 26.354 27.5495C25.6782 26.8737 25.1584 26.042 24.7426 25.0024C24.3267 24.0148 24.1188 22.8712 24.1188 21.5717C24.1188 20.2722 24.3267 19.1287 24.6906 18.141C25.1064 17.1534 25.6262 16.3217 26.302 15.594C26.9777 14.9183 27.7054 14.3985 28.5891 14.0346C29.4728 13.6707 30.3564 13.5148 31.2401 13.5148C32.4876 13.5148 33.5272 13.7747 34.3589 14.3465C35.1906 14.8663 35.8663 15.542 36.4381 16.2178V8.05688H39.9728V29.3688H36.5421V29.3168ZM36.2822 19.5965C36.0223 18.9727 35.7104 18.4529 35.2945 18.0371C34.8787 17.6212 34.4109 17.2574 33.8911 17.0495C33.3713 16.8415 32.7995 16.6856 32.2277 16.6856C31.604 16.6856 31.0842 16.7896 30.5124 16.9975C29.9926 17.2054 29.5247 17.5693 29.1089 17.9851C28.6931 18.4009 28.3812 18.9207 28.1733 19.5445C27.9653 20.1683 27.8094 20.844 27.8094 21.6237C27.8094 22.4034 27.9134 23.0792 28.1733 23.7029C28.3812 24.3267 28.745 24.8465 29.1089 25.2623C29.5247 25.6782 29.9926 26.042 30.5124 26.25C31.0322 26.4579 31.604 26.6138 32.2277 26.6138C32.7995 26.6138 33.3713 26.5099 33.8911 26.25C34.4109 26.042 34.9307 25.6782 35.2945 25.2623C35.6584 24.8465 36.0223 24.3267 36.2822 23.7029C36.5421 23.0792 36.646 22.4034 36.646 21.6757C36.646 20.948 36.4901 20.2203 36.2822 19.5965Z" fill="#8E8E93"/>
<path d="M46.8342 25.782C47.6139 26.4578 48.6015 26.7696 49.7451 26.7696C50.6287 26.7696 51.3564 26.6137 52.0322 26.3018C52.6559 25.9899 53.2797 25.5221 53.9035 24.9503L55.9827 26.7696C55.255 27.6533 54.3713 28.329 53.3317 28.8488C52.2921 29.3686 51.0965 29.6286 49.6931 29.6286C48.6015 29.6286 47.5619 29.4206 46.5743 29.0568C45.5866 28.6929 44.755 28.1211 44.0792 27.4454C43.3515 26.7696 42.8317 25.886 42.4158 24.8984C42 23.9107 41.7921 22.8191 41.7921 21.6236C41.7921 20.532 42 19.4924 42.3639 18.5048C42.7277 17.5172 43.2475 16.6855 43.9233 15.9578C44.599 15.23 45.3787 14.6583 46.3144 14.2424C47.25 13.8266 48.2376 13.6187 49.3292 13.6187C50.5767 13.6187 51.6163 13.8266 52.552 14.2944C53.4876 14.7622 54.2673 15.334 54.8391 16.1137C55.4629 16.8934 55.9307 17.7771 56.2426 18.7647C56.5545 19.7523 56.7104 20.8439 56.7104 21.9355C56.7104 22.0914 56.7104 22.2474 56.7104 22.4033C56.7104 22.5592 56.7104 22.7152 56.6584 22.9231H45.3267C45.5347 24.1706 46.0025 25.1063 46.8342 25.782ZM53.1757 20.532C53.1238 19.9602 52.9678 19.4404 52.8119 18.9206C52.604 18.4008 52.3441 17.985 52.0322 17.6211C51.7203 17.2573 51.3045 16.9974 50.8366 16.7375C50.3688 16.5295 49.849 16.4256 49.2772 16.4256C48.1856 16.4256 47.302 16.7894 46.5743 17.5691C45.8465 18.2969 45.4307 19.2845 45.2748 20.48H53.1757V20.532Z" fill="#8E8E93"/>
<path d="M72.1485 32.1756C70.6931 33.4231 68.6659 34.0469 66.0149 34.0469C63.4678 34.0469 61.1287 33.4231 59.1535 32.2276L60.453 29.5766C61.2847 30.0964 62.1164 30.4602 63 30.7721C63.8837 31.084 64.8713 31.188 65.9109 31.188C67.4703 31.188 68.6659 30.7721 69.5495 29.9924C70.3812 29.2127 70.7971 28.0172 70.7971 26.4578V25.2622C70.1733 26.0939 69.3936 26.7696 68.5619 27.3414C67.7302 27.8612 66.6386 28.1211 65.3911 28.1211C64.4555 28.1211 63.6238 27.9652 62.7401 27.6533C61.9084 27.3414 61.1807 26.8736 60.505 26.2498C59.8292 25.6261 59.3094 24.8464 58.9456 23.9627C58.5817 23.079 58.3738 22.0394 58.3738 20.8959C58.3738 19.7523 58.5817 18.7127 58.9456 17.829C59.3094 16.9454 59.8292 16.1657 60.505 15.5419C61.1807 14.9182 61.9084 14.4503 62.7401 14.1385C63.5718 13.8266 64.4555 13.6187 65.3391 13.6187C66.6386 13.6187 67.7302 13.8786 68.5619 14.3984C69.3936 14.9182 70.1213 15.5419 70.7451 16.2696V13.9305H74.2797V26.1979C74.2797 28.9008 73.552 30.8761 72.1485 32.1756ZM70.4852 19.1286C70.2253 18.6087 69.9134 18.1409 69.4975 17.7771C69.0817 17.4132 68.6139 17.1013 68.0421 16.9454C67.4703 16.7375 66.8985 16.6335 66.3268 16.6335C65.703 16.6335 65.1312 16.7375 64.6114 16.9454C64.0916 17.1533 63.6238 17.4132 63.2079 17.7771C62.7921 18.1409 62.4802 18.6087 62.2723 19.1286C62.0644 19.6484 61.9604 20.2201 61.9604 20.8439C61.9604 21.4677 62.0644 22.0394 62.3243 22.5592C62.5322 23.079 62.8441 23.5469 63.2599 23.9107C63.6238 24.2746 64.0916 24.5865 64.6634 24.7944C65.1832 25.0023 65.755 25.1063 66.3787 25.1063C67.0025 25.1063 67.5743 25.0023 68.0941 24.7944C68.6659 24.5865 69.1337 24.3266 69.5495 23.9107C69.9654 23.5469 70.2772 23.079 70.5371 22.5592C70.7971 22.0394 70.901 21.4677 70.901 20.8439C70.901 20.2201 70.6931 19.6484 70.4852 19.1286Z" fill="#8E8E93"/>
<path d="M80.9851 25.782C81.7648 26.4578 82.7525 26.7696 83.896 26.7696C84.7797 26.7696 85.5074 26.6137 86.1832 26.3018C86.8069 25.9899 87.4307 25.5221 88.0544 24.9503L90.1336 26.7696C89.4059 27.6533 88.5223 28.329 87.4827 28.8488C86.4431 29.3686 85.2475 29.6286 83.844 29.6286C82.7525 29.6286 81.7129 29.4206 80.7252 29.0568C79.7376 28.6929 78.9059 28.1211 78.2302 27.4454C77.5025 26.7696 76.9827 25.886 76.5668 24.8984C76.151 23.9107 75.9431 22.8191 75.9431 21.6236C75.9431 20.532 76.151 19.4924 76.5148 18.5048C76.8787 17.5172 77.3985 16.6855 78.0742 15.9578C78.75 15.23 79.5297 14.6583 80.4653 14.2424C81.401 13.8266 82.3886 13.6187 83.4802 13.6187C84.7277 13.6187 85.7673 13.8266 86.703 14.2944C87.6386 14.7622 88.4183 15.334 88.9901 16.1137C89.6138 16.8934 90.0817 17.7771 90.3935 18.7647C90.7054 19.7523 90.8614 20.8439 90.8614 21.9355C90.8614 22.0914 90.8614 22.2474 90.8614 22.4033C90.8614 22.5592 90.8614 22.7152 90.8094 22.9231H79.4777C79.6856 24.1706 80.2054 25.1063 80.9851 25.782ZM87.3267 20.532C87.2747 19.9602 87.1188 19.4404 86.9629 18.9206C86.7549 18.4008 86.495 17.985 86.1832 17.6211C85.8713 17.2573 85.4554 16.9974 84.9876 16.7375C84.5198 16.5295 84 16.4256 83.4282 16.4256C82.3366 16.4256 81.453 16.7894 80.7252 17.5691C79.9975 18.2969 79.5817 19.2845 79.4257 20.48H87.3267V20.532Z" fill="#8E8E93"/>
<path d="M96.0594 29.3169H92.5248V13.9308H96.0594V16.3218C96.3193 15.958 96.5792 15.5941 96.8911 15.2822C97.203 14.9704 97.5149 14.6585 97.9307 14.3986C98.3466 14.1387 98.7624 13.9308 99.2302 13.7748C99.698 13.6189 100.218 13.5669 100.842 13.5669C102.609 13.5669 103.96 14.0867 104.896 15.1783C105.832 16.2699 106.3 17.6733 106.3 19.4926V29.3169H102.765V20.5842C102.765 19.3887 102.505 18.453 101.933 17.8293C101.361 17.2055 100.582 16.8416 99.5421 16.8416C98.5025 16.8416 97.6708 17.1535 97.0471 17.8293C96.4233 18.505 96.1114 19.4407 96.1114 20.6362V29.3169H96.0594Z" fill="#8E8E93"/>
<path d="M112.849 25.782C113.629 26.4578 114.616 26.7696 115.76 26.7696C116.644 26.7696 117.371 26.6137 118.047 26.3018C118.671 25.9899 119.295 25.5221 119.918 24.9503L121.998 26.7696C121.27 27.6533 120.386 28.329 119.347 28.8488C118.307 29.3686 117.111 29.6286 115.708 29.6286C114.616 29.6286 113.577 29.4206 112.589 29.0568C111.602 28.6929 110.77 28.1211 110.094 27.4454C109.366 26.7696 108.847 25.886 108.431 24.8984C108.015 23.9107 107.807 22.8191 107.807 21.6236C107.807 20.532 108.015 19.4924 108.379 18.5048C108.743 17.5172 109.262 16.6855 109.938 15.9578C110.614 15.23 111.394 14.6583 112.329 14.2424C113.265 13.8266 114.252 13.6187 115.344 13.6187C116.592 13.6187 117.631 13.8266 118.567 14.2944C119.503 14.7622 120.282 15.334 120.854 16.1137C121.478 16.8934 121.946 17.7771 122.257 18.7647C122.569 19.7523 122.725 20.8439 122.725 21.9355C122.725 22.0914 122.725 22.2474 122.725 22.4033C122.725 22.5592 122.725 22.7152 122.673 22.9231H111.342C111.55 24.1706 112.069 25.1063 112.849 25.782ZM119.243 20.532C119.191 19.9602 119.035 19.4404 118.879 18.9206C118.671 18.4008 118.411 17.985 118.099 17.6211C117.787 17.2573 117.371 16.9974 116.903 16.7375C116.436 16.5295 115.916 16.4256 115.344 16.4256C114.252 16.4256 113.369 16.7894 112.641 17.5691C111.913 18.2969 111.498 19.2845 111.342 20.48H119.243V20.532Z" fill="#8E8E93"/>
<path d="M22.3044 29.3328V17.1174H18.7697V29.3328H22.3044Z" fill="#8E8E93"/>
<path d="M22.2475 13.5669H18.7129V17.1015H22.2475V13.5669Z" fill="#8E8E93"/>
<path d="M6.45621 22.3904H13.3696V18.8557H6.45621V22.3904Z" fill="#8E8E93"/>
<path d="M6.4944 17.0784H18.7097V13.5437H6.4944V17.0784Z" fill="#8E8E93"/>
<path d="M16.9537 29.3606V22.3953H13.4191V29.3606H16.9537Z" fill="#8E8E93"/>
<path d="M16.8936 18.8169H13.3589V22.3515H16.8936V18.8169Z" fill="#8E8E93"/>
<path d="M3.6906 8.31689H0.155945V11.8515H3.6906V8.31689Z" fill="#8E8E93"/>
<path d="M125.272 13.8788V13.6189H126.832V13.8788H126.208V15.4902H125.844V13.8788H125.272ZM128.755 13.5669H129.015V15.4382H128.703V14.1907L128.183 15.1783H127.975L127.455 14.2426V15.4902H127.144V13.6189H127.403L128.079 14.8664L128.755 13.5669Z" fill="#8E8E93"/>
</svg>
