<?xml version="1.0" encoding="UTF-8"?><svg width="121" height="42" viewBox="0 0 121 42" fill="none" xmlns="http://www.w3.org/2000/svg">
<path fill-rule="evenodd" clip-rule="evenodd" d="M13.7812 16.6868C13.7812 22.3247 12.7718 26.1869 10.7314 28.2642C8.69669 30.3347 5.1121 31.4111 0 31.5V26.4959C2.86511 26.4959 4.81949 25.8974 5.85319 24.7051C6.89359 23.5065 7.4092 20.8351 7.4092 16.6868V7.2694V4.97085H13.7812V16.6868ZM7.4092 4.29545V0H13.7812V4.29545H7.4092Z" fill="#8E8E93"/>
<path fill-rule="evenodd" clip-rule="evenodd" d="M95.7258 20.6283H100.398H100.778H100.908L100.92 20.7591L100.955 21.1427C100.999 21.6047 101.072 22.0379 101.175 22.4424C101.278 22.8433 101.412 23.218 101.576 23.5649C101.737 23.9034 101.926 24.2146 102.145 24.4982C102.365 24.7817 102.614 25.038 102.893 25.266C103.173 25.4949 103.484 25.6961 103.826 25.8692C104.168 26.0421 104.541 26.1878 104.947 26.3048C105.362 26.4247 105.81 26.5155 106.29 26.5754C106.771 26.6359 107.285 26.6662 107.833 26.6662C108.341 26.6662 108.818 26.6419 109.264 26.5933C109.711 26.5452 110.131 26.4723 110.522 26.3752C110.905 26.2796 111.262 26.161 111.592 26.0192C111.921 25.8776 112.223 25.7131 112.497 25.5262C112.763 25.3443 112.996 25.1466 113.194 24.9334C113.391 24.7222 113.555 24.4947 113.686 24.2508C113.815 24.01 113.912 23.7513 113.977 23.4757C114.042 23.1986 114.075 22.9038 114.075 22.591C114.075 22.3492 114.059 22.1261 114.028 21.9218L114.027 21.9215C113.996 21.7162 113.949 21.5274 113.886 21.355C113.827 21.1908 113.753 21.0392 113.663 20.8998C113.575 20.7621 113.472 20.6362 113.354 20.5227C113.229 20.4052 113.071 20.2903 112.88 20.1772C112.686 20.0623 112.456 19.9488 112.19 19.8373C111.909 19.7187 111.593 19.6047 111.243 19.4953C110.889 19.3848 110.505 19.2792 110.09 19.1795L110.082 19.1776L110.074 19.176L104.605 17.7506L104.587 17.7457C103.807 17.5564 103.087 17.3516 102.428 17.1331C101.761 16.9115 101.149 16.6736 100.594 16.4188C100.026 16.1581 99.52 15.8812 99.0757 15.5878V15.5872C98.6274 15.2914 98.2398 14.9786 97.9148 14.649L97.9099 14.6439L97.9084 14.6425V14.642C97.5794 14.3059 97.2915 13.9342 97.045 13.5284C96.7983 13.121 96.5923 12.6778 96.4276 12.199C96.2653 11.7273 96.1435 11.2246 96.0637 10.6923C95.9828 10.1591 95.9422 9.59395 95.9422 8.99719C95.9422 8.31073 96.0078 7.65662 96.139 7.03609C96.2698 6.4145 96.4666 5.82718 96.7284 5.27501C96.9902 4.72284 97.3181 4.20494 97.7116 3.72323C98.1037 3.24344 98.5607 2.79933 99.0821 2.39245C99.5969 1.99153 100.159 1.64008 100.767 1.33969C101.376 1.0393 102.03 0.789617 102.73 0.590289C103.425 0.393584 104.163 0.245837 104.944 0.147747C105.727 0.0491325 106.554 0 107.425 0C109.203 0 110.807 0.210693 112.239 0.632428C112.963 0.845568 113.641 1.11221 114.272 1.43184C114.906 1.75251 115.492 2.12634 116.031 2.55297L116.135 2.63532L116.134 2.63672C116.636 3.04324 117.08 3.48386 117.463 3.95718C117.875 4.46424 118.217 5.00994 118.492 5.59219C118.766 6.17461 118.972 6.79322 119.109 7.44698C119.247 8.10057 119.315 8.7886 119.315 9.50932V9.62122V10.0426V10.1863H119.172H118.753H114.025H113.636H113.503L113.493 10.0524L113.465 9.66092C113.44 9.31297 113.386 8.98478 113.304 8.67757C113.222 8.37176 113.111 8.08675 112.972 7.82256C112.835 7.56098 112.669 7.31847 112.474 7.09501C112.28 6.87155 112.056 6.66628 111.802 6.47937C111.544 6.28913 111.262 6.12215 110.955 5.97878C110.646 5.83505 110.312 5.71458 109.953 5.61806C109.587 5.5198 109.196 5.44549 108.779 5.39653C108.361 5.3474 107.916 5.32257 107.444 5.32257C106.962 5.32257 106.515 5.34303 106.103 5.38307C105.689 5.42381 105.305 5.48465 104.952 5.56543C104.612 5.64377 104.298 5.74151 104.013 5.85796C103.76 5.96094 103.53 6.07896 103.324 6.2108L103.252 6.25941C103.034 6.40751 102.845 6.57064 102.683 6.74898C102.523 6.92646 102.389 7.11984 102.283 7.32896C102.176 7.54 102.096 7.77063 102.042 8.01891C101.988 8.26912 101.961 8.53926 101.961 8.82916C101.961 9.02849 101.977 9.21435 102.01 9.3864C102.042 9.55828 102.091 9.71844 102.155 9.86654C102.217 10.0118 102.296 10.1477 102.39 10.2731C102.479 10.393 102.584 10.5049 102.704 10.6086L102.717 10.6194C102.857 10.7345 103.031 10.8474 103.238 10.9585C103.446 11.0705 103.688 11.181 103.965 11.2891C104.251 11.4007 104.573 11.5091 104.928 11.6136C105.277 11.7157 105.659 11.8149 106.075 11.9096H106.079L106.097 11.9135L110.817 13.0278H110.819L110.836 13.0316C111.686 13.2345 112.473 13.453 113.197 13.6865C113.923 13.9204 114.583 14.1687 115.176 14.431C115.782 14.699 116.324 14.984 116.799 15.2849C117.277 15.5878 117.688 15.9074 118.032 16.2424L118.035 16.2464L118.036 16.2478C118.381 16.5898 118.683 16.9675 118.941 17.3808C119.2 17.7952 119.416 18.2453 119.588 18.73C119.756 19.2054 119.883 19.7154 119.967 20.2601C120.051 20.8042 120.094 21.3796 120.094 21.9853C120.094 22.7828 120.023 23.5381 119.882 24.2508C119.74 24.9651 119.528 25.6361 119.245 26.2642C118.961 26.8942 118.605 27.4799 118.179 28.0213C117.767 28.544 117.288 29.0254 116.744 29.4639V29.4664L116.689 29.5101C116.128 29.9542 115.511 30.3427 114.838 30.6758C114.168 31.0078 113.442 31.2839 112.663 31.5041C111.892 31.7216 111.069 31.8851 110.195 31.9936C109.32 32.1022 108.394 32.1562 107.415 32.1562C106.458 32.1562 105.552 32.0982 104.699 31.9823C103.845 31.8664 103.045 31.6919 102.3 31.4598C101.546 31.2255 100.848 30.9311 100.205 30.5781C99.5609 30.2243 98.973 29.8108 98.4419 29.3386C97.9084 28.8647 97.4394 28.3374 97.0356 27.7571C96.6316 27.1771 96.2929 26.5447 96.0196 25.8606C95.7495 25.1847 95.5433 24.4571 95.4008 23.6794C95.2589 22.9038 95.1804 22.078 95.1662 21.2023L95.1587 20.7739L95.1562 20.6283H95.3012H95.7258Z" fill="#8E8E93"/>
<path fill-rule="evenodd" clip-rule="evenodd" d="M46.5938 26.8908V31.5H54.1373C53.2312 31.5 52.4899 30.7789 52.4899 29.8972V24.722V6.57526L52.4903 6.5341L52.4924 6.49311L52.4949 6.45263L52.4984 6.41216L52.5034 6.37203L52.5089 6.33207L52.5159 6.29246L52.5234 6.25353L52.5324 6.21444L52.542 6.17586L52.5526 6.13779L52.5641 6.10007L52.5766 6.06253L52.5901 6.02601V6.0255L52.6048 5.98933V5.98881L52.6198 5.95316V5.95264L52.6357 5.91699L52.6529 5.88186L52.671 5.84724L52.6895 5.81314L52.709 5.77886L52.7292 5.7458L52.7502 5.71307L52.7722 5.68086L52.7948 5.649C52.8104 5.62799 52.826 5.60749 52.8424 5.58752V5.587L52.8676 5.5572L52.8927 5.52792V5.52741L52.9192 5.49916L52.9463 5.47091L52.9739 5.44353L53.0021 5.41666V5.41615L53.0311 5.39031L53.0606 5.36448L53.0907 5.3395L53.1213 5.31556H53.1219C53.1424 5.29955 53.1634 5.28439 53.185 5.26923L53.2178 5.24719L53.2509 5.22583L53.2845 5.20533L53.319 5.1857L53.3537 5.16675L53.3887 5.14867L53.4243 5.1311L53.4609 5.1144L53.4972 5.0989H53.4976L53.5347 5.08426L53.5719 5.06996H53.5724L53.6099 5.05687H53.6105L53.6487 5.04464L53.6873 5.03345H53.6878L53.7269 5.02311L53.766 5.01347L53.8062 5.00503L53.8462 4.99728L53.8869 4.99091L53.9279 4.98557L53.9692 4.98075L54.0107 4.9773L54.0523 4.97437L54.0946 4.97282L54.1373 4.97231H55.5167H67.2069H67.9941L68.0362 4.97282L68.0783 4.97437L68.1204 4.9773L68.1617 4.98075L68.2032 4.98557L68.2438 4.99091L68.2845 4.99728L68.3252 5.00503L68.3648 5.01347L68.4044 5.02311L68.4436 5.03345L68.4827 5.04464L68.5207 5.05687L68.5589 5.06996L68.5964 5.08426L68.6336 5.0989L68.6702 5.1144L68.7063 5.1311L68.7419 5.14867L68.7771 5.16675H68.7775L68.8122 5.1857L68.8463 5.20533L68.8799 5.22583L68.913 5.24719L68.9456 5.26923L68.9778 5.29162L69.0093 5.31556L69.0399 5.3395L69.0705 5.36448L69.1001 5.39031L69.1287 5.41615L69.1572 5.44353L69.1848 5.47091L69.2119 5.49916L69.2381 5.52741L69.2636 5.5572L69.2887 5.587L69.3128 5.61783L69.3358 5.649L69.3584 5.68086L69.3806 5.71307L69.4016 5.7458L69.4221 5.77886L69.4418 5.81314L69.4602 5.84724L69.4779 5.88186L69.4949 5.91699L69.511 5.95264L69.5266 5.98881L69.5405 6.0255L69.5542 6.06253L69.5666 6.10007L69.5782 6.13779L69.5887 6.17586L69.5988 6.21444L69.6073 6.25353L69.6152 6.29246L69.6218 6.33207L69.6278 6.37203L69.6324 6.41216L69.6363 6.45263L69.6389 6.49311L69.6403 6.5341L69.6409 6.57526V24.722V29.8972C69.6409 30.7789 68.8999 31.5 67.9941 31.5H75.4688V27.8389V15.7414V3.64389V0H68.9713H67.1754H66.8539H66.5324H66.2108H65.8893H65.5672H65.2457H64.9241H64.6026H64.2811H63.9595H63.638H63.3164H62.9949H62.6734H62.3513H62.0298H61.7082H61.3867H61.0651H60.7436H60.4221H60.1005H59.779H59.4574H59.1354H58.8144H58.4923H58.1708H57.8492H57.5277H57.2061H56.8846H56.5631H56.2415H55.92H55.5984H55.2764H54.9548H54.6333H54.3118H53.9902H53.6687H53.3471H53.0256H52.9384H46.5938V4.37191V4.59202V26.8908ZM67.7256 1.93966H54.1261V4.53932C60.3849 4.53932 63.5707 4.53932 67.7256 4.53932V1.93966Z" fill="#8E8E93"/>
<path fill-rule="evenodd" clip-rule="evenodd" d="M35.7869 31.5C40.2297 31.5 44.2527 29.7393 47.1655 26.8919V31.4981H54.665C53.7642 31.4981 53.0273 30.7775 53.0273 29.8964V24.7246V6.58998L53.0276 6.54885L53.0297 6.50788L53.0322 6.46743L53.0357 6.42699L53.0406 6.38688L53.0461 6.34695L53.0531 6.30737L53.0605 6.26847L53.0695 6.2294L53.079 6.19084L53.0895 6.15281L53.101 6.11511L53.1135 6.07759L53.1269 6.0411V6.04059L53.1414 6.00444V6.00393L53.1564 5.9683V5.96778L53.1722 5.93215L53.1893 5.89704L53.2072 5.86245L53.2257 5.82837L53.2451 5.79412L53.2651 5.76107L53.2861 5.72837L53.3079 5.69618L53.3304 5.66434C53.3459 5.64334 53.3614 5.62286 53.3777 5.6029V5.60238L53.4027 5.5726L53.4277 5.54334V5.54283L53.4541 5.5146L53.481 5.48637L53.5084 5.45901L53.5364 5.43216V5.43164L53.5653 5.40582L53.5946 5.38001L53.6246 5.35505L53.655 5.33112H53.6555C53.6759 5.31512 53.6969 5.29997 53.7183 5.28482L53.7509 5.26279L53.7838 5.24145L53.8172 5.22097L53.8515 5.20135L53.886 5.18242L53.9208 5.16434L53.9562 5.14679L53.9926 5.13009L54.0287 5.1146H54.029L54.066 5.09997L54.1029 5.08569H54.1034L54.1407 5.07261H54.1413L54.1792 5.06039L54.2176 5.0492H54.2181L54.257 5.03887L54.2959 5.02923L54.3358 5.0208L54.3756 5.01305L54.416 5.00669L54.4569 5.00135L54.4979 4.99653L54.5392 4.99309L54.5805 4.99016L54.6226 4.98861L54.665 4.9881H56.0363H67.5906H68.3724L68.4148 4.98861L68.4567 4.99016L68.4982 4.99309L68.5396 4.99653L68.5804 5.00135L68.6208 5.00669L68.6613 5.01305H68.6618L68.7016 5.0208L68.741 5.02923L68.7804 5.03887L68.8193 5.0492H68.8198L68.8582 5.06039L68.8962 5.07261H68.8967L68.934 5.08569L68.9715 5.09997L69.0084 5.1146L69.0448 5.13009L69.0807 5.14679L69.1166 5.16434L69.1514 5.18242L69.1859 5.20135L69.2202 5.22097L69.2536 5.24145L69.2865 5.26279L69.3191 5.28482L69.3504 5.3072H69.3509L69.3819 5.33112L69.4129 5.35505L69.4428 5.38001L69.4721 5.40582L69.501 5.43164L69.529 5.45901L69.5564 5.48637L69.5833 5.5146L69.6092 5.54283L69.6347 5.5726L69.6597 5.60238L69.6836 5.63319L69.707 5.66434L69.7295 5.69618L69.7513 5.72837L69.7723 5.76107L69.7923 5.79412L69.8117 5.82837L69.8302 5.86245L69.8476 5.89704H69.8481L69.8646 5.93215L69.881 5.96778L69.896 6.00393L69.91 6.04059L69.9234 6.07759L69.9359 6.11511L69.9479 6.15281L69.9584 6.19084L69.9677 6.2294L69.9767 6.26847L69.9843 6.30737L69.9913 6.34695L69.9968 6.38688L70.0017 6.42699L70.0052 6.46743L70.0077 6.50788L70.0098 6.54885L70.0101 6.58998V24.7246V29.8964C70.0101 30.7775 69.2732 31.4981 68.3724 31.4981H75.8719V27.8394V15.75H75.9586C75.9586 10.2223 80.5391 5.74042 86.1899 5.74042C88.2933 5.74042 90.2487 6.3621 91.875 7.42767V1.01135C90.1071 0.358174 88.1911 0 86.1899 0C82.2632 0 78.666 1.3759 75.8719 3.66057V0.0191049H69.3439H67.5586H67.2389H66.9193H66.5996H66.2799H65.9603H65.6406H65.3889H65.0692H64.7495H64.4299H64.1102H63.7906H63.4709H63.1512H62.831H62.5114H62.1917H61.8721H61.5524H61.2327H60.9131H60.5934H60.2737H59.9541H59.6339H59.3148H58.9946H58.6749H58.3553H58.0356H57.7159H57.3963H57.0766H56.7569H56.4373H56.1176H55.7974H55.4778H55.1581H54.8385H54.5188H54.1991H53.8795H53.5598H53.4731H47.1655V4.3881V4.60806C44.2527 1.76075 40.2297 0 35.7869 0C26.8951 0 19.6875 7.05142 19.6875 15.75C19.6875 24.4486 26.8951 31.5 35.7869 31.5ZM68.1057 1.95748H54.9217V4.5554C61.1439 4.5554 63.9755 4.5554 68.1057 4.5554V1.95748ZM35.7869 25.7596C41.4371 25.7596 46.0176 21.2779 46.0176 15.75C46.0176 10.2223 41.4371 5.74042 35.7869 5.74042C30.1362 5.74042 25.5556 10.2223 25.5556 15.75C25.5556 21.2779 30.1362 25.7596 35.7869 25.7596Z" fill="#8E8E93"/>
<path fill-rule="evenodd" clip-rule="evenodd" d="M3.48025 41.0406C3.48025 40.7899 3.48025 40.5886 3.48523 40.4381C3.49038 40.2622 3.53869 40.1769 3.67014 40.1519C3.72804 40.1417 3.76215 40.1369 3.80105 40.1369C3.83515 40.1369 3.86446 40.1264 3.86446 40.0963C3.86446 40.0563 3.83018 40.0464 3.7673 40.0464C3.60672 40.0464 3.34934 40.0614 3.19836 40.0614C3.0527 40.0614 2.74665 40.0464 2.49389 40.0464C2.42532 40.0464 2.39175 40.0563 2.39175 40.0963C2.39175 40.1264 2.42088 40.1369 2.46476 40.1369C2.53261 40.1369 2.61521 40.1417 2.65393 40.1519C2.81468 40.1868 2.85838 40.2676 2.863 40.4381C2.86797 40.5886 2.86797 40.7795 2.86797 41.0307V41.5026C2.86797 41.5885 2.84843 41.6535 2.77543 41.6889C2.65908 41.744 2.48891 41.744 2.36244 41.744C1.33682 41.744 0.671254 40.9355 0.671254 39.8555C0.671254 39.2379 0.845861 38.8613 1.11834 38.6251C1.45814 38.3336 1.81322 38.314 2.08055 38.314C2.62977 38.314 3.0186 38.5448 3.16461 38.7056C3.2909 38.846 3.31506 39.0068 3.32962 39.1224C3.33478 39.1625 3.34437 39.1874 3.37812 39.1874C3.41737 39.1874 3.43194 39.1625 3.43194 39.0823C3.43194 38.4544 3.46569 38.314 3.46569 38.2582C3.46569 38.2233 3.45609 38.2031 3.39766 38.1983C3.28593 38.1932 3.11576 38.1629 3.01345 38.1427C2.91629 38.1229 2.48891 38.0625 2.15355 38.0625C1.74519 38.0625 1.31267 38.0974 0.845861 38.3888C0.403214 38.6651 0 39.228 0 40.0313C0 41.4173 1.05493 42 2.24556 42C2.6248 42 3.1012 41.9448 3.41737 41.7742C3.47528 41.7388 3.48025 41.7289 3.48025 41.5931V41.0406ZM8.18205 41.9849C9.28565 41.9849 9.97555 41.2165 9.97555 40.2373C9.97555 39.2577 9.30483 38.6401 8.22592 38.6401C6.92835 38.6401 6.43242 39.5844 6.43242 40.3127C6.43242 41.0707 6.93795 41.9849 8.18205 41.9849ZM8.35719 41.7539C7.55005 41.7539 7.06424 41.0608 7.06424 40.1822C7.06424 39.127 7.62305 38.8659 8.09945 38.8659C8.78971 38.8659 9.33911 39.4486 9.33911 40.3929C9.33911 41.6081 8.65844 41.7539 8.35719 41.7539ZM14.3617 41.9849C15.4648 41.9849 16.1552 41.2165 16.1552 40.2373C16.1552 39.2577 15.4845 38.6401 14.4054 38.6401C13.1073 38.6401 12.6119 39.5844 12.6119 40.3127C12.6119 41.0707 13.1174 41.9849 14.3617 41.9849ZM14.5363 41.7539C13.7297 41.7539 13.2439 41.0608 13.2439 40.1822C13.2439 39.127 13.8027 38.8659 14.2791 38.8659C14.9694 38.8659 15.5188 39.4486 15.5188 40.3929C15.5188 41.6081 14.8379 41.7539 14.5363 41.7539ZM19.1122 40.6893C19.1122 41.0812 19.1122 41.4173 19.0926 41.5984C19.0781 41.7238 19.0539 41.8043 18.9662 41.8242C18.9274 41.8346 18.8786 41.8392 18.8157 41.8392C18.7622 41.8392 18.7477 41.8647 18.7477 41.8846C18.7477 41.9147 18.777 41.9297 18.8303 41.9297C18.9178 41.9297 19.0246 41.9246 19.1269 41.9198C19.2285 41.9198 19.3212 41.9147 19.3696 41.9147C19.4768 41.9147 19.6324 41.9246 19.8021 41.9396C19.9722 41.9501 20.157 41.9651 20.3126 41.9651C21.1002 41.9651 21.5522 41.6634 21.7466 41.4626C21.9894 41.2165 22.2134 40.8096 22.2134 40.2721C22.2134 39.7648 22.0235 39.4086 21.8096 39.1874C21.3433 38.7005 20.6238 38.7005 20.0891 38.7005C19.8312 38.7005 19.5252 38.7104 19.3937 38.7104C19.2724 38.7104 19.0004 38.7005 18.777 38.7005C18.7134 38.7005 18.6793 38.7104 18.6793 38.7405C18.6793 38.7706 18.7084 38.7858 18.7523 38.7858C18.8157 38.7858 18.8887 38.791 18.9225 38.8009C19.0583 38.8409 19.0976 38.8862 19.1072 39.0318C19.1122 39.1676 19.1122 39.2878 19.1122 39.9361V40.6893ZM19.6857 39.8706C19.6857 39.5339 19.6857 39.1826 19.6903 39.0371C19.6903 38.9866 19.7049 38.9668 19.7442 38.9518C19.7779 38.9314 19.919 38.9215 20.0065 38.9215C20.3419 38.9215 20.8085 38.9668 21.2023 39.3278C21.3917 39.4991 21.6005 39.8507 21.6005 40.3929C21.6005 40.8351 21.513 41.2165 21.2361 41.4527C20.9787 41.6738 20.6918 41.744 20.303 41.744C19.9676 41.744 19.7975 41.6535 19.7442 41.5735C19.7099 41.5281 19.7003 41.3772 19.6953 41.2715C19.6903 41.1864 19.6857 40.86 19.6857 40.408V39.8706ZM25.7727 41.9849C26.0013 41.9849 26.2832 41.96 26.4871 41.8091C26.7983 41.5832 26.9152 41.3273 26.9152 41.0103C26.9152 40.6238 26.7398 40.2977 26.176 39.9761L26.0013 39.8757C25.6171 39.6545 25.5492 39.5037 25.5492 39.3133C25.5492 39.0219 25.8261 38.8559 26.1322 38.8559C26.4096 38.8559 26.5455 38.9767 26.6086 39.0567C26.7011 39.1676 26.7208 39.2983 26.7208 39.3383C26.7208 39.3882 26.7349 39.4137 26.7642 39.4137C26.7983 39.4137 26.818 39.3684 26.818 39.2779C26.818 38.9413 26.8326 38.8211 26.8326 38.7655C26.8326 38.7354 26.8128 38.7201 26.7741 38.7104C26.6624 38.6801 26.4434 38.6401 26.1665 38.6401C25.5734 38.6401 25.0874 38.9767 25.0874 39.4991C25.0874 39.8757 25.2526 40.1618 25.7581 40.4684L26.0062 40.6187C26.3849 40.8497 26.4288 41.0359 26.4288 41.2216C26.4288 41.523 26.2052 41.7638 25.8361 41.7638C25.5687 41.7638 25.2476 41.6586 25.1554 41.3424C25.1312 41.2669 25.1167 41.1765 25.1167 41.1212C25.1167 41.0911 25.1115 41.0511 25.0728 41.0511C25.0391 41.0511 25.0193 41.0962 25.0193 41.1614C25.0144 41.2315 24.9952 41.498 24.9952 41.7289C24.9952 41.8242 25.0099 41.8444 25.0778 41.8746C25.2627 41.96 25.5249 41.9849 25.7727 41.9849ZM29.9981 41.9147C30.183 41.9147 30.2997 41.7689 30.2997 41.5931C30.2997 41.4173 30.1684 41.3018 30.0032 41.3018C29.7941 41.3018 29.7066 41.4828 29.7066 41.6081C29.7066 41.7493 29.7941 41.9147 29.9981 41.9147ZM36.9264 42C37.1838 42 37.4561 41.9547 37.6989 41.7939C38.0488 41.5582 38.1559 41.2117 38.1559 40.9204C38.1559 40.4434 37.9471 40.0963 37.3589 39.6395L37.2225 39.5339C36.8191 39.2175 36.7074 39.0417 36.7074 38.8108C36.7074 38.5094 36.9264 38.2936 37.2859 38.2936C37.6016 38.2936 37.7426 38.4439 37.8156 38.5397C37.9179 38.6702 37.9421 38.8258 37.9421 38.871C37.9421 38.9314 37.9567 38.9617 37.9909 38.9617C38.0297 38.9617 38.0442 38.9215 38.0442 38.8108C38.0442 38.4189 38.0634 38.2732 38.0634 38.2082C38.0634 38.1728 38.0392 38.1578 37.9954 38.1478C37.8691 38.1124 37.6652 38.0625 37.3488 38.0625C36.6736 38.0625 36.226 38.4595 36.226 39.0116C36.226 39.4183 36.4109 39.7702 36.9456 40.2019L37.1691 40.383C37.5724 40.7092 37.6454 40.9402 37.6454 41.1864C37.6454 41.4527 37.4314 41.7592 36.9944 41.7592C36.6928 41.7592 36.4063 41.6234 36.299 41.2519C36.2749 41.1665 36.2553 41.0608 36.2553 40.9953C36.2553 40.9553 36.2507 40.91 36.2068 40.91C36.1676 40.91 36.1536 40.9657 36.1486 41.0406C36.1434 41.1212 36.1244 41.4226 36.1244 41.6988C36.1244 41.8091 36.139 41.8346 36.2164 41.8693C36.4255 41.9651 36.6445 42 36.9264 42ZM41.2783 40.6893C41.2783 41.0812 41.2783 41.4173 41.2586 41.5984C41.244 41.7238 41.2198 41.8043 41.1323 41.8242C41.0935 41.8346 41.0447 41.8392 40.9816 41.8392C40.9284 41.8392 40.9138 41.8647 40.9138 41.8846C40.9138 41.9147 40.9424 41.9297 40.9964 41.9297C41.0834 41.9297 41.1907 41.9246 41.2923 41.9198C41.3946 41.9198 41.4872 41.9147 41.5357 41.9147C41.662 41.9147 41.8225 41.9198 42.0316 41.9246C42.2405 41.935 42.4982 41.9396 42.819 41.9396C42.9791 41.9396 43.018 41.9396 43.0471 41.8293C43.0718 41.744 43.1055 41.4527 43.1055 41.3569C43.1055 41.3123 43.1009 41.257 43.0668 41.257C43.0375 41.257 43.0279 41.2768 43.018 41.322C42.9887 41.498 42.9403 41.5885 42.8336 41.6384C42.7219 41.6889 42.5416 41.6935 42.4298 41.6935C41.9927 41.6935 41.8614 41.6285 41.8518 41.3372C41.8467 41.2117 41.8518 40.8498 41.8518 40.704V40.3626C41.8518 40.3377 41.8563 40.3175 41.876 40.3175C41.9828 40.3175 42.4691 40.3278 42.5467 40.3377C42.7073 40.3527 42.7606 40.4179 42.7847 40.5032C42.7943 40.5588 42.7943 40.6139 42.7993 40.6592C42.7993 40.6791 42.8089 40.6941 42.8382 40.6941C42.8769 40.6941 42.8819 40.6337 42.8819 40.5988C42.8819 40.5687 42.8915 40.3981 42.9016 40.3127C42.9258 40.0963 42.9354 40.026 42.9354 40.0011C42.9354 39.9761 42.9208 39.9559 42.9016 39.9559C42.8819 39.9559 42.8673 39.9809 42.8336 40.011C42.7899 40.0515 42.7315 40.0666 42.6291 40.0765C42.532 40.0864 41.9781 40.0864 41.8804 40.0864C41.8563 40.0864 41.8518 40.0666 41.8518 40.0413V38.9866C41.8518 38.9617 41.8614 38.9464 41.8804 38.9464C41.968 38.9464 42.4787 38.9563 42.5517 38.9668C42.7652 38.9866 42.7993 39.047 42.8336 39.1224C42.8577 39.1724 42.8629 39.2478 42.8629 39.2779C42.8629 39.3133 42.8673 39.3332 42.8966 39.3332C42.9308 39.3332 42.9403 39.283 42.9455 39.2629C42.9549 39.2124 42.9645 39.0266 42.9697 38.9813C42.9791 38.7858 43.0038 38.7354 43.0038 38.7056C43.0038 38.6853 42.9988 38.6651 42.9746 38.6651C42.9549 38.6651 42.9307 38.6801 42.9061 38.6853C42.8725 38.6906 42.8045 38.7056 42.7263 38.7104C42.6439 38.7155 41.6962 38.7104 41.5598 38.7104C41.4383 38.7104 41.1666 38.7005 40.9424 38.7005C40.8795 38.7005 40.8452 38.7104 40.8452 38.7405C40.8452 38.7706 40.8745 38.7858 40.9182 38.7858C40.9816 38.7858 41.0546 38.791 41.0884 38.8009C41.2245 38.8409 41.2637 38.8862 41.2733 39.0318C41.2783 39.1676 41.2783 39.2878 41.2783 39.9361V40.6893ZM46.1401 40.6893C46.1401 41.0812 46.1401 41.4173 46.1211 41.5984C46.1064 41.7238 46.0822 41.8043 45.9946 41.8242C45.9554 41.8346 45.9071 41.8392 45.8437 41.8392C45.7902 41.8392 45.7756 41.8647 45.7756 41.8846C45.7756 41.9147 45.8048 41.9297 45.8582 41.9297C46.0284 41.9297 46.3009 41.9147 46.3835 41.9147C46.4469 41.9147 46.8013 41.9297 47.0496 41.9297C47.1029 41.9297 47.1366 41.9147 47.1366 41.8846C47.1366 41.8647 47.1174 41.8392 47.0833 41.8392C47.0299 41.8392 46.9373 41.8346 46.8743 41.8242C46.7428 41.8043 46.7238 41.7238 46.7092 41.5984C46.6895 41.4173 46.6845 41.0858 46.6845 40.6893V40.6291C46.6845 40.6042 46.6991 40.5937 46.7186 40.5937L47.1029 40.6042C47.1322 40.6042 47.1563 40.6088 47.1805 40.6337C47.2338 40.6992 47.4141 40.9854 47.5837 41.2165C47.8219 41.5479 47.9825 41.7493 48.1674 41.8444C48.2791 41.9047 48.3955 41.9297 48.634 41.9297H49.0418C49.0958 41.9297 49.1244 41.9198 49.1244 41.8846C49.1244 41.8647 49.1054 41.8392 49.0711 41.8392C49.0374 41.8392 49.0127 41.8392 48.9694 41.8293C48.901 41.8143 48.7504 41.7939 48.5122 41.5479C48.255 41.282 47.9533 40.8949 47.5741 40.4131C47.9921 40.0666 48.1674 39.7852 48.1674 39.4688C48.1674 39.1826 47.9876 38.9668 47.8658 38.8809C47.6377 38.7254 47.3265 38.7005 47.054 38.7005C46.9231 38.7005 46.5339 38.7104 46.3884 38.7104C46.3009 38.7104 46.0284 38.7005 45.8048 38.7005C45.7419 38.7005 45.7076 38.7104 45.7076 38.7405C45.7076 38.7706 45.7369 38.7858 45.7806 38.7858C45.8437 38.7858 45.9167 38.791 45.9509 38.8009C46.0868 38.8409 46.1256 38.8862 46.1357 39.0318C46.1401 39.1676 46.1401 39.2878 46.1401 39.9361V40.6893ZM46.6845 38.9969C46.6845 38.9617 46.6945 38.9464 46.7238 38.9367C46.7675 38.9262 46.8693 38.9215 46.9766 38.9215C47.2293 38.9215 47.6276 39.0771 47.6276 39.6795C47.6276 40.0313 47.4821 40.2171 47.3507 40.3127C47.2776 40.368 47.2192 40.383 47.0496 40.383C46.9423 40.383 46.8158 40.3731 46.7238 40.343C46.6945 40.3278 46.6845 40.3127 46.6845 40.2676V38.9969ZM52.1889 41.7289C52.2715 41.9297 52.3052 41.9849 52.3637 41.9849C52.4219 41.9849 52.4608 41.9198 52.5676 41.6738C52.6653 41.4578 52.864 40.9907 53.1365 40.368C53.3696 39.8456 53.4815 39.6145 53.6516 39.2124C53.7633 38.9413 53.8218 38.8763 53.8751 38.8361C53.9481 38.7805 54.0403 38.7858 54.0841 38.7858C54.1278 38.7858 54.1525 38.7706 54.1525 38.7405C54.1525 38.7104 54.1183 38.7005 54.065 38.7005C53.9335 38.7005 53.734 38.7104 53.6616 38.7104C53.6077 38.7104 53.4184 38.7005 53.2044 38.7005C53.1219 38.7005 53.083 38.7104 53.083 38.7405C53.083 38.7706 53.1168 38.7858 53.156 38.7858C53.2095 38.7858 53.2774 38.791 53.3259 38.806C53.3651 38.8211 53.3841 38.8361 53.3841 38.8809C53.3841 38.9163 53.3651 38.9813 53.3454 39.0371C53.2433 39.3179 52.6944 40.6941 52.5097 41.1363H52.4949L51.7755 39.2228C51.7171 39.072 51.6784 38.9563 51.6784 38.9013C51.6784 38.8613 51.6929 38.8361 51.7221 38.8159C51.7558 38.791 51.8192 38.7858 51.8872 38.7858C51.926 38.7858 51.9553 38.7706 51.9553 38.7405C51.9553 38.7104 51.907 38.7005 51.8535 38.7005C51.6395 38.7005 51.416 38.7104 51.3087 38.7104C51.1581 38.7104 50.9149 38.7005 50.6868 38.7005C50.6234 38.7005 50.5796 38.7056 50.5796 38.7405C50.5796 38.7655 50.5897 38.7858 50.6284 38.7858C50.6622 38.7858 50.7307 38.7858 50.7936 38.8009C50.9492 38.8409 51.0121 38.8809 51.1098 39.1171L52.1889 41.7289ZM56.7688 40.6893C56.7688 41.101 56.7688 41.4428 56.7496 41.6181C56.7351 41.744 56.7109 41.8043 56.6233 41.8242C56.5841 41.8346 56.5356 41.8392 56.4722 41.8392C56.4189 41.8392 56.4043 41.8647 56.4043 41.8846C56.4043 41.9147 56.4334 41.9297 56.4873 41.9297C56.6571 41.9297 56.9486 41.9147 57.0463 41.9147C57.1626 41.9147 57.4546 41.9297 57.736 41.9297C57.7848 41.9297 57.8191 41.9147 57.8191 41.8846C57.8191 41.8647 57.7994 41.8392 57.7506 41.8392C57.6877 41.8392 57.5905 41.8346 57.5321 41.8242C57.4058 41.8043 57.3765 41.7388 57.3619 41.6234C57.3424 41.4428 57.3424 41.101 57.3424 40.6893V39.9361C57.3424 39.2878 57.3424 39.1676 57.3523 39.0318C57.3619 38.8809 57.3962 38.8211 57.5125 38.8009C57.5614 38.791 57.5951 38.7858 57.6388 38.7858C57.6827 38.7858 57.7074 38.7759 57.7074 38.7354C57.7074 38.7104 57.6731 38.7005 57.6196 38.7005C57.4546 38.7005 57.1772 38.7104 57.0704 38.7104C56.9486 38.7104 56.6571 38.7005 56.4969 38.7005C56.429 38.7005 56.3947 38.7104 56.3947 38.7354C56.3947 38.7759 56.4189 38.7858 56.4626 38.7858C56.516 38.7858 56.5699 38.791 56.6182 38.806C56.7109 38.8361 56.7542 38.8862 56.7642 39.0318C56.7688 39.1676 56.7688 39.2878 56.7688 39.9361V40.6893ZM62.3944 41.9849C62.6714 41.9849 62.9971 41.96 63.1675 41.8897C63.2399 41.8596 63.2595 41.8392 63.2792 41.7638C63.3225 41.6181 63.3714 41.2466 63.3714 41.1966C63.3714 41.1614 63.3517 41.1212 63.3225 41.1212C63.2888 41.1212 63.2792 41.141 63.2691 41.2066C63.2545 41.2868 63.1961 41.4073 63.1236 41.4927C62.9534 41.6889 62.7444 41.719 62.3653 41.719C61.7918 41.719 61.0335 41.2368 61.0335 40.2222C61.0335 39.8054 61.1111 39.3934 61.4273 39.1125C61.6216 38.9413 61.8598 38.871 62.2339 38.871C62.6277 38.871 62.9147 38.9767 63.0602 39.1224C63.1675 39.2326 63.2208 39.3836 63.2254 39.5189C63.2254 39.5745 63.2353 39.6094 63.2691 39.6094C63.3083 39.6094 63.3225 39.564 63.3275 39.5037C63.3325 39.4183 63.3325 39.1826 63.3421 39.0417C63.3517 38.8914 63.3618 38.8409 63.3618 38.806C63.3618 38.7805 63.3472 38.7607 63.2984 38.7555C63.1719 38.7405 63.0309 38.7104 62.8708 38.6853C62.6765 38.6603 62.5159 38.6401 62.2484 38.6401C61.6116 38.6401 61.2036 38.8108 60.8926 39.0922C60.4842 39.4688 60.3915 39.971 60.3915 40.2622C60.3915 40.6743 60.5032 41.1561 60.9264 41.523C61.3155 41.8596 61.8109 41.9849 62.3944 41.9849ZM66.4447 40.6893C66.4447 41.0812 66.4447 41.4173 66.4257 41.5984C66.4109 41.7238 66.3863 41.8043 66.2992 41.8242C66.26 41.8346 66.2117 41.8392 66.1482 41.8392C66.0948 41.8392 66.0802 41.8647 66.0802 41.8846C66.0802 41.9147 66.1093 41.9297 66.1628 41.9297C66.2504 41.9297 66.3571 41.9246 66.4593 41.9198C66.5616 41.9198 66.6538 41.9147 66.7026 41.9147C66.8289 41.9147 66.9891 41.9198 67.1985 41.9246C67.4074 41.935 67.6648 41.9396 67.9854 41.9396C68.1462 41.9396 68.1849 41.9396 68.214 41.8293C68.2382 41.744 68.2725 41.4527 68.2725 41.3569C68.2725 41.3123 68.2675 41.257 68.2338 41.257C68.2045 41.257 68.195 41.2768 68.1849 41.322C68.1556 41.498 68.1073 41.5885 68.0002 41.6384C67.8883 41.6889 67.7085 41.6935 67.5968 41.6935C67.1593 41.6935 67.0284 41.6285 67.0183 41.3372C67.0136 41.2117 67.0183 40.8498 67.0183 40.704V40.3626C67.0183 40.3377 67.0232 40.3175 67.0429 40.3175C67.1497 40.3175 67.6355 40.3278 67.7137 40.3377C67.8737 40.3527 67.9275 40.4179 67.9517 40.5032C67.9613 40.5588 67.9613 40.6139 67.9664 40.6592C67.9664 40.6791 67.9758 40.6941 68.0052 40.6941C68.0439 40.6941 68.0489 40.6337 68.0489 40.5988C68.0489 40.5687 68.0584 40.3981 68.068 40.3127C68.0927 40.0963 68.1023 40.026 68.1023 40.0011C68.1023 39.9761 68.0877 39.9559 68.068 39.9559C68.0488 39.9559 68.0343 39.9809 68.0002 40.011C67.9563 40.0515 67.8984 40.0666 67.7961 40.0765C67.6989 40.0864 67.1446 40.0864 67.0474 40.0864C67.0232 40.0864 67.0183 40.0666 67.0183 40.0413V38.9866C67.0183 38.9617 67.0284 38.9464 67.0474 38.9464C67.1351 38.9464 67.6456 38.9563 67.7181 38.9668C67.9321 38.9866 67.9664 39.047 68.0002 39.1224C68.0247 39.1724 68.0293 39.2478 68.0293 39.2779C68.0293 39.3133 68.0343 39.3332 68.0636 39.3332C68.0973 39.3332 68.1073 39.283 68.1119 39.2629C68.1219 39.2124 68.1314 39.0266 68.1366 38.9813C68.1462 38.7858 68.1703 38.7354 68.1703 38.7056C68.1703 38.6853 68.1657 38.6651 68.141 38.6651C68.1219 38.6651 68.0973 38.6801 68.0732 38.6853C68.0394 38.6906 67.9714 38.7056 67.8934 38.7104C67.8108 38.7155 66.8632 38.7104 66.7268 38.7104C66.6054 38.7104 66.333 38.7005 66.1093 38.7005C66.0465 38.7005 66.0122 38.7104 66.0122 38.7405C66.0122 38.7706 66.0415 38.7858 66.0852 38.7858C66.1482 38.7858 66.2212 38.791 66.2553 38.8009C66.3914 38.8409 66.4301 38.8862 66.4403 39.0318C66.4447 39.1676 66.4447 39.2878 66.4447 39.9361V40.6893ZM71.8661 41.9849C72.0947 41.9849 72.3766 41.96 72.5805 41.8091C72.8917 41.5832 73.0086 41.3273 73.0086 41.0103C73.0086 40.6238 72.8332 40.2977 72.2693 39.9761L72.0947 39.8757C71.7105 39.6545 71.6424 39.5037 71.6424 39.3133C71.6424 39.0219 71.9194 38.8559 72.2256 38.8559C72.503 38.8559 72.6389 38.9767 72.7018 39.0567C72.7945 39.1676 72.8137 39.2983 72.8137 39.3383C72.8137 39.3882 72.8283 39.4137 72.8574 39.4137C72.8917 39.4137 72.9114 39.3684 72.9114 39.2779C72.9114 38.9413 72.9254 38.8211 72.9254 38.7655C72.9254 38.7354 72.9062 38.7201 72.8675 38.7104C72.7558 38.6801 72.5368 38.6401 72.2599 38.6401C71.6666 38.6401 71.1808 38.9767 71.1808 39.4991C71.1808 39.8757 71.346 40.1618 71.8515 40.4684L72.0991 40.6187C72.4783 40.8497 72.522 41.0359 72.522 41.2216C72.522 41.523 72.2986 41.7638 71.9295 41.7638C71.6621 41.7638 71.3408 41.6586 71.2488 41.3424C71.2246 41.2669 71.2099 41.1765 71.2099 41.1212C71.2099 41.0911 71.2049 41.0511 71.1662 41.0511C71.1319 41.0511 71.1127 41.0962 71.1127 41.1614C71.1078 41.2315 71.0886 41.498 71.0886 41.7289C71.0886 41.8242 71.1032 41.8444 71.1712 41.8746C71.3559 41.96 71.6183 41.9849 71.8661 41.9849ZM76.0915 41.9147C76.2764 41.9147 76.3931 41.7689 76.3931 41.5931C76.3931 41.4173 76.2616 41.3018 76.0966 41.3018C75.8875 41.3018 75.8 41.4828 75.8 41.6081C75.8 41.7493 75.8875 41.9147 76.0915 41.9147ZM82.5772 40.4729C82.5772 40.9355 82.5772 41.3319 82.553 41.5432C82.5335 41.6889 82.5093 41.7992 82.4122 41.8194C82.3683 41.8293 82.3098 41.8392 82.2368 41.8392C82.1784 41.8392 82.1594 41.8543 82.1594 41.8792C82.1594 41.9147 82.1931 41.9297 82.2566 41.9297C82.3537 41.9297 82.48 41.9198 82.5919 41.9198C82.7086 41.9147 82.8154 41.9147 82.8688 41.9147C82.9907 41.9147 83.1603 41.9297 83.3451 41.9448C83.5298 41.96 83.7293 41.975 83.904 41.975C84.8032 41.975 85.3087 41.6181 85.5324 41.3824C85.8047 41.0962 86.062 40.6139 86.062 39.9809C86.062 39.3836 85.834 38.9668 85.5908 38.7056C85.0611 38.1328 84.2494 38.1328 83.6417 38.1328C83.3502 38.1328 83.044 38.1478 82.893 38.1478C82.7569 38.1478 82.4509 38.1328 82.1931 38.1328C82.1205 38.1328 82.0864 38.1427 82.0864 38.1781C82.0864 38.213 82.1155 38.2233 82.1688 38.2233C82.2368 38.2233 82.3194 38.2286 82.3587 38.2383C82.5189 38.2732 82.5576 38.354 82.5676 38.5247C82.5772 38.6853 82.5772 38.8258 82.5772 39.589V40.4729ZM83.185 39.509C83.185 39.1125 83.185 38.6755 83.1895 38.5043C83.1895 38.4492 83.204 38.4241 83.2479 38.4039C83.2866 38.3841 83.4669 38.369 83.5641 38.369C83.9433 38.369 84.4971 38.4294 84.9442 38.871C85.1531 39.0771 85.411 39.4886 85.411 40.1264C85.411 40.6442 85.3139 41.101 85.0027 41.3772C84.7112 41.6384 84.3803 41.7388 83.8849 41.7388C83.5007 41.7388 83.3113 41.6333 83.2479 41.538C83.2092 41.4828 83.1996 41.282 83.1946 41.1561C83.1894 41.0608 83.185 40.6743 83.185 40.1416V39.509ZM88.995 40.6893C88.995 41.0812 88.995 41.4173 88.9753 41.5984C88.9607 41.7238 88.9366 41.8043 88.849 41.8242C88.8101 41.8346 88.7613 41.8392 88.6984 41.8392C88.6451 41.8392 88.6303 41.8647 88.6303 41.8846C88.6303 41.9147 88.6597 41.9297 88.713 41.9297C88.8007 41.9297 88.9074 41.9246 89.0096 41.9198C89.1114 41.9198 89.2039 41.9147 89.2522 41.9147C89.3787 41.9147 89.5393 41.9198 89.7482 41.9246C89.9572 41.935 90.215 41.9396 90.5358 41.9396C90.6958 41.9396 90.7351 41.9396 90.7644 41.8293C90.7885 41.744 90.8223 41.4527 90.8223 41.3569C90.8223 41.3123 90.8177 41.257 90.7834 41.257C90.7542 41.257 90.7446 41.2768 90.7351 41.322C90.7059 41.498 90.6571 41.5885 90.5503 41.6384C90.4386 41.6889 90.2588 41.6935 90.1469 41.6935C89.7094 41.6935 89.578 41.6285 89.5684 41.3372C89.5634 41.2117 89.5684 40.8498 89.5684 40.704V40.3626C89.5684 40.3377 89.573 40.3175 89.5926 40.3175C89.6993 40.3175 90.1858 40.3278 90.2633 40.3377C90.4239 40.3527 90.4773 40.4179 90.5015 40.5032C90.5116 40.5588 90.5116 40.6139 90.516 40.6592C90.516 40.6791 90.5256 40.6941 90.5548 40.6941C90.5942 40.6941 90.5986 40.6337 90.5986 40.5988C90.5986 40.5687 90.6088 40.3981 90.6184 40.3127C90.6425 40.0963 90.6521 40.026 90.6521 40.0011C90.6521 39.9761 90.6374 39.9559 90.6184 39.9559C90.5986 39.9559 90.5841 39.9809 90.5503 40.011C90.5064 40.0515 90.4482 40.0666 90.3459 40.0765C90.2487 40.0864 89.6949 40.0864 89.5977 40.0864C89.573 40.0864 89.5684 40.0666 89.5684 40.0413V38.9866C89.5684 38.9617 89.578 38.9464 89.5977 38.9464C89.6847 38.9464 90.1954 38.9563 90.2684 38.9668C90.4823 38.9866 90.516 39.047 90.5503 39.1224C90.5745 39.1724 90.5795 39.2478 90.5795 39.2779C90.5795 39.3133 90.5841 39.3332 90.6132 39.3332C90.6475 39.3332 90.6571 39.283 90.6621 39.2629C90.6716 39.2124 90.6812 39.0266 90.6862 38.9813C90.6958 38.7858 90.7205 38.7354 90.7205 38.7056C90.7205 38.6853 90.7155 38.6651 90.6914 38.6651C90.6716 38.6651 90.6475 38.6801 90.6233 38.6853C90.5891 38.6906 90.5212 38.7056 90.443 38.7104C90.3604 38.7155 89.4128 38.7104 89.2764 38.7104C89.1551 38.7104 88.8831 38.7005 88.6597 38.7005C88.5962 38.7005 88.5625 38.7104 88.5625 38.7405C88.5625 38.7706 88.5911 38.7858 88.635 38.7858C88.6984 38.7858 88.7714 38.791 88.8051 38.8009C88.941 38.8409 88.9805 38.8862 88.9899 39.0318C88.995 39.1676 88.995 39.2878 88.995 39.9361V40.6893ZM94.4309 39.9361C94.4309 39.2878 94.4309 39.1676 94.4404 39.0318C94.45 38.8809 94.4842 38.8211 94.6006 38.8009C94.6494 38.791 94.7173 38.7858 94.7661 38.7858C94.8196 38.7858 94.8438 38.7706 94.8438 38.7405C94.8438 38.7104 94.8146 38.7005 94.7516 38.7005C94.5864 38.7005 94.2361 38.7104 94.1343 38.7104C94.0174 38.7104 93.7451 38.7005 93.5462 38.7005C93.4828 38.7005 93.4536 38.7104 93.4536 38.7405C93.4536 38.7706 93.4782 38.7858 93.5266 38.7858C93.5799 38.7858 93.6332 38.791 93.6675 38.8009C93.8036 38.8409 93.8428 38.8862 93.8524 39.0318C93.8569 39.1676 93.8569 39.2878 93.8569 39.9361V40.6893C93.8569 41.0812 93.8569 41.4173 93.8377 41.5984C93.8231 41.7238 93.799 41.8043 93.7114 41.8242C93.6727 41.8346 93.6238 41.8392 93.5608 41.8392C93.5075 41.8392 93.4924 41.8647 93.4924 41.8846C93.4924 41.9147 93.5215 41.9297 93.5755 41.9297C93.6625 41.9297 93.7698 41.9246 93.8714 41.9198C93.9737 41.9198 94.0663 41.9147 94.1146 41.9147C94.2899 41.9147 94.4697 41.9198 94.6837 41.9246C94.897 41.935 95.1454 41.9396 95.4514 41.9396C95.6751 41.9396 95.6942 41.9198 95.7234 41.8242C95.7577 41.6988 95.7868 41.3824 95.7868 41.3319C95.7868 41.282 95.7772 41.2368 95.7481 41.2368C95.7138 41.2368 95.7042 41.2618 95.6992 41.3018C95.6896 41.3824 95.6459 41.5026 95.5925 41.5582C95.4852 41.6738 95.3201 41.6784 95.0915 41.6784C94.7612 41.6784 94.596 41.6535 94.523 41.5885C94.431 41.5077 94.4309 41.2368 94.4309 40.6893V39.9361ZM98.7002 40.6893C98.7002 41.101 98.7002 41.4428 98.6805 41.6181C98.6659 41.744 98.6418 41.8043 98.554 41.8242C98.5153 41.8346 98.4665 41.8392 98.4036 41.8392C98.3501 41.8392 98.3356 41.8647 98.3356 41.8846C98.3356 41.9147 98.3649 41.9297 98.4182 41.9297C98.5883 41.9297 98.8798 41.9147 98.9771 41.9147C99.0938 41.9147 99.3853 41.9297 99.6674 41.9297C99.7157 41.9297 99.75 41.9147 99.75 41.8846C99.75 41.8647 99.7303 41.8392 99.682 41.8392C99.6186 41.8392 99.5214 41.8346 99.463 41.8242C99.3367 41.8043 99.3074 41.7388 99.2928 41.6234C99.2736 41.4428 99.2736 41.101 99.2736 40.6893V39.9361C99.2736 39.2878 99.2736 39.1676 99.2832 39.0318C99.2928 38.8809 99.3271 38.8211 99.4438 38.8009C99.4921 38.791 99.5264 38.7858 99.5697 38.7858C99.6136 38.7858 99.6381 38.7759 99.6381 38.7354C99.6381 38.7104 99.604 38.7005 99.5505 38.7005C99.3853 38.7005 99.1084 38.7104 99.0013 38.7104C98.8798 38.7104 98.5883 38.7005 98.4277 38.7005C98.3597 38.7005 98.3256 38.7104 98.3256 38.7354C98.3256 38.7759 98.3501 38.7858 98.3935 38.7858C98.4475 38.7858 98.5007 38.791 98.5491 38.806C98.6418 38.8361 98.6855 38.8862 98.6951 39.0318C98.7002 39.1676 98.7002 39.2878 98.7002 39.9361V40.6893Z" fill="#8E8E93"/>
<path fill-rule="evenodd" clip-rule="evenodd" d="M102.686 41.7469C102.77 41.9454 102.804 42 102.863 42C102.922 42 102.961 41.9356 103.069 41.6925C103.167 41.479 103.368 41.0173 103.643 40.4018C103.878 39.8855 103.991 39.6572 104.162 39.2597C104.275 38.9918 104.334 38.9275 104.388 38.8878C104.462 38.8329 104.555 38.8381 104.599 38.8381C104.643 38.8381 104.668 38.8231 104.668 38.7933C104.668 38.7636 104.633 38.7538 104.58 38.7538C104.447 38.7538 104.246 38.7636 104.173 38.7636C104.119 38.7636 103.927 38.7538 103.711 38.7538C103.628 38.7538 103.589 38.7636 103.589 38.7933C103.589 38.8231 103.623 38.8381 103.662 38.8381C103.716 38.8381 103.785 38.8432 103.834 38.8581C103.873 38.8729 103.893 38.8878 103.893 38.9321C103.893 38.9671 103.873 39.0313 103.854 39.0865C103.751 39.364 103.197 40.7242 103.01 41.1612H102.995L102.269 39.27C102.21 39.1209 102.171 39.0066 102.171 38.9522C102.171 38.9127 102.186 38.8878 102.215 38.8679C102.25 38.8432 102.313 38.8381 102.382 38.8381C102.421 38.8381 102.451 38.8231 102.451 38.7933C102.451 38.7636 102.402 38.7538 102.348 38.7538C102.132 38.7538 101.907 38.7636 101.799 38.7636C101.646 38.7636 101.401 38.7538 101.171 38.7538C101.107 38.7538 101.062 38.7588 101.062 38.7933C101.062 38.818 101.073 38.8381 101.112 38.8381C101.146 38.8381 101.215 38.8381 101.278 38.853C101.436 38.8925 101.499 38.9321 101.598 39.1656L102.686 41.7469ZM107.309 40.7195C107.309 41.1068 107.309 41.4389 107.289 41.618C107.274 41.7419 107.25 41.8215 107.161 41.8411C107.122 41.8514 107.073 41.856 107.009 41.856C106.955 41.856 106.94 41.8812 106.94 41.9008C106.94 41.9305 106.97 41.9454 107.024 41.9454C107.112 41.9454 107.22 41.9403 107.323 41.9356C107.426 41.9356 107.519 41.9305 107.568 41.9305C107.696 41.9305 107.858 41.9356 108.069 41.9403C108.28 41.9507 108.54 41.9552 108.863 41.9552C109.025 41.9552 109.064 41.9552 109.094 41.8462C109.118 41.7618 109.152 41.4739 109.152 41.3792C109.152 41.3352 109.147 41.2805 109.113 41.2805C109.084 41.2805 109.074 41.3001 109.064 41.3448C109.035 41.5187 108.986 41.6082 108.878 41.6575C108.765 41.7074 108.583 41.7119 108.47 41.7119C108.029 41.7119 107.897 41.6477 107.887 41.3598C107.882 41.2357 107.887 40.878 107.887 40.734V40.3966C107.887 40.3719 107.892 40.3519 107.912 40.3519C108.019 40.3519 108.51 40.3621 108.588 40.3719C108.75 40.3868 108.804 40.4512 108.829 40.5355C108.838 40.5905 108.838 40.6449 108.843 40.6897C108.843 40.7093 108.853 40.7242 108.883 40.7242C108.922 40.7242 108.927 40.6645 108.927 40.63C108.927 40.6003 108.937 40.4316 108.947 40.3472C108.971 40.1333 108.981 40.0639 108.981 40.0392C108.981 40.0145 108.966 39.9946 108.947 39.9946C108.927 39.9946 108.912 40.0192 108.878 40.049C108.834 40.0891 108.775 40.104 108.672 40.1138C108.574 40.1235 108.015 40.1235 107.916 40.1235C107.892 40.1235 107.887 40.104 107.887 40.0789V39.0366C107.887 39.0119 107.897 38.9968 107.916 38.9968C108.005 38.9968 108.52 39.0066 108.593 39.017C108.809 39.0366 108.843 39.0963 108.878 39.1708C108.902 39.2202 108.907 39.2947 108.907 39.3245C108.907 39.3595 108.912 39.3791 108.942 39.3791C108.976 39.3791 108.986 39.3295 108.991 39.3096C109.001 39.2597 109.01 39.0761 109.015 39.0313C109.025 38.8381 109.05 38.7882 109.05 38.7588C109.05 38.7387 109.045 38.7188 109.02 38.7188C109.001 38.7188 108.976 38.7336 108.951 38.7387C108.917 38.744 108.849 38.7588 108.77 38.7636C108.686 38.7686 107.73 38.7636 107.593 38.7636C107.47 38.7636 107.196 38.7538 106.97 38.7538C106.906 38.7538 106.872 38.7636 106.872 38.7933C106.872 38.8231 106.901 38.8381 106.945 38.8381C107.009 38.8381 107.082 38.8432 107.117 38.853C107.254 38.8925 107.294 38.9373 107.303 39.0812C107.309 39.2154 107.309 39.3343 107.309 39.975V40.7195ZM112.215 40.7195C112.215 41.1068 112.215 41.4389 112.195 41.618C112.181 41.7419 112.156 41.8215 112.068 41.8411C112.028 41.8514 111.979 41.856 111.915 41.856C111.862 41.856 111.847 41.8812 111.847 41.9008C111.847 41.9305 111.876 41.9454 111.93 41.9454C112.102 41.9454 112.377 41.9305 112.46 41.9305C112.524 41.9305 112.882 41.9454 113.132 41.9454C113.186 41.9454 113.22 41.9305 113.22 41.9008C113.22 41.8812 113.201 41.856 113.166 41.856C113.113 41.856 113.019 41.8514 112.956 41.8411C112.823 41.8215 112.804 41.7419 112.789 41.618C112.769 41.4389 112.764 41.1113 112.764 40.7195V40.66C112.764 40.6353 112.779 40.625 112.799 40.625L113.186 40.6353C113.216 40.6353 113.24 40.6398 113.264 40.6645C113.318 40.7293 113.5 41.0121 113.671 41.2405C113.912 41.5681 114.074 41.7671 114.26 41.861C114.373 41.9207 114.49 41.9454 114.731 41.9454H115.143C115.197 41.9454 115.226 41.9356 115.226 41.9008C115.226 41.8812 115.207 41.856 115.172 41.856C115.138 41.856 115.113 41.856 115.07 41.8462C115.001 41.8313 114.849 41.8112 114.608 41.5681C114.349 41.3052 114.044 40.9226 113.662 40.4464C114.084 40.104 114.26 39.8259 114.26 39.5131C114.26 39.2303 114.079 39.017 113.956 38.9321C113.726 38.7784 113.412 38.7538 113.137 38.7538C113.005 38.7538 112.612 38.7636 112.465 38.7636C112.377 38.7636 112.102 38.7538 111.876 38.7538C111.813 38.7538 111.778 38.7636 111.778 38.7933C111.778 38.8231 111.808 38.8381 111.852 38.8381C111.915 38.8381 111.989 38.8432 112.024 38.853C112.161 38.8925 112.2 38.9373 112.21 39.0812C112.215 39.2154 112.215 39.3343 112.215 39.975V40.7195ZM112.764 39.0467C112.764 39.0119 112.774 38.9968 112.804 38.9872C112.848 38.9769 112.95 38.9722 113.059 38.9722C113.314 38.9722 113.716 39.126 113.716 39.7214C113.716 40.0691 113.569 40.2527 113.436 40.3472C113.362 40.4018 113.303 40.4167 113.132 40.4167C113.024 40.4167 112.897 40.4069 112.804 40.3772C112.774 40.3621 112.764 40.3472 112.764 40.3026V39.0467ZM118.127 41.1957C118.127 41.2651 118.127 41.4389 118.112 41.618C118.103 41.7419 118.068 41.8215 117.98 41.8411C117.94 41.8514 117.887 41.856 117.828 41.856C117.779 41.856 117.759 41.8812 117.759 41.9008C117.759 41.9356 117.794 41.9454 117.852 41.9454C118.014 41.9454 118.303 41.9305 118.411 41.9305C118.529 41.9305 118.818 41.9454 119.088 41.9454C119.147 41.9454 119.182 41.9305 119.182 41.9008C119.182 41.8812 119.157 41.856 119.108 41.856C119.049 41.856 118.956 41.8514 118.892 41.8411C118.764 41.8215 118.725 41.7419 118.715 41.618C118.706 41.4389 118.706 41.2651 118.706 41.1957V40.8584C118.706 40.7195 118.696 40.5905 118.759 40.4363C118.838 40.2578 119.456 39.255 119.598 39.0865C119.691 38.9722 119.731 38.9321 119.824 38.8878C119.888 38.8581 119.966 38.8381 120.01 38.8381C120.059 38.8381 120.094 38.818 120.094 38.7882C120.094 38.7636 120.064 38.7538 120.015 38.7538C119.932 38.7538 119.647 38.7636 119.554 38.7636C119.427 38.7636 119.275 38.7538 119.132 38.7538C119.083 38.7538 119.059 38.7636 119.059 38.7933C119.059 38.8283 119.098 38.8329 119.137 38.8432C119.211 38.8581 119.231 38.8976 119.231 38.9373C119.231 38.9918 119.211 39.0663 119.167 39.161C119.103 39.2894 118.578 40.193 118.524 40.2923C118.45 40.1734 117.887 39.1857 117.808 39.0565C117.774 38.9968 117.754 38.947 117.754 38.9127C117.754 38.8777 117.779 38.8581 117.813 38.8477C117.882 38.8283 117.911 38.8283 117.911 38.7933C117.911 38.7636 117.887 38.7538 117.847 38.7538C117.651 38.7538 117.45 38.7636 117.357 38.7636C117.214 38.7636 116.891 38.7538 116.818 38.7538C116.763 38.7538 116.734 38.7636 116.734 38.7933C116.734 38.8231 116.763 38.8381 116.798 38.8381C116.852 38.8381 116.925 38.8628 116.979 38.8925C117.062 38.9373 117.151 39.0366 117.258 39.1902C117.411 39.4139 117.999 40.3421 118.029 40.4069C118.088 40.5308 118.127 40.6199 118.127 40.8486V41.1957Z" fill="#8E8E93"/>
</svg>
