<?xml version="1.0" encoding="utf-8"?>
<svg width="119" height="40" viewBox="0 0 119 40" fill="none" xmlns="http://www.w3.org/2000/svg">
<g style="mix-blend-mode:luminosity">
<mask id="mask0_5582_23131" style="mask-type:alpha" maskUnits="userSpaceOnUse" x="0" y="0" width="119" height="40">
<rect width="118.57" height="40" fill="#666666"/>
</mask>
<g mask="url(#mask0_5582_23131)">
<g style="mix-blend-mode:luminosity">
<path d="M0.00639045 39.2403C0.109348 39.1216 0.171832 39.0413 0.242127 38.9697C2.69322 36.4707 5.14337 33.9717 7.59257 31.4727C7.73773 31.317 7.94324 31.2351 8.15351 31.2491C10.3185 31.2549 12.4848 31.2896 14.6498 31.2426C17.9806 31.1702 20.8677 29.9859 23.1498 27.463C28.0087 22.0931 26.8562 12.3286 18.4634 9.40707C17.2517 8.98479 15.9808 8.7649 14.7002 8.75591C12.6531 8.73927 10.6053 8.75084 8.55824 8.75012H8.28558V9.20955C8.28558 14.358 8.28298 19.5068 8.27777 24.6558C8.27777 24.8374 8.21173 25.0696 8.09174 25.1926C5.46692 27.8879 2.83405 30.576 0.193134 33.2569C0.14201 33.3075 0.0894664 33.3538 0 33.4356V0.759674C0.112898 0.753886 0.236447 0.74231 0.360706 0.74231C5.01154 0.74231 9.66213 0.74231 14.3125 0.74231C18.4045 0.750268 22.275 1.65683 25.7748 3.87656C30.5925 6.93338 33.4995 11.3287 34.2791 17.0741C35.0374 22.6582 33.7679 27.7379 30.2176 32.1231C27.3121 35.7103 23.5155 37.8128 19.0819 38.7722C17.517 39.1016 15.9225 39.2639 14.3246 39.2562C9.6742 39.2615 5.02361 39.2615 0.372777 39.2562C0.268399 39.2562 0.166862 39.2475 0.00639045 39.2403Z" fill="#666666"/>
<path d="M99.2216 25.5985L93.75 20.0188C91.9358 18.1695 90.1202 16.3209 88.2499 14.4152V39.2229H79.9331V0.76041C80.0567 0.754622 80.1809 0.743046 80.3059 0.742322C82.0327 0.742322 83.7603 0.747387 85.4892 0.73581C85.7241 0.727732 85.9503 0.826651 86.1063 1.00568C90.377 5.36652 94.6508 9.72446 98.9277 14.0795C99.0193 14.1728 99.0945 14.2835 99.1996 14.4145C99.3416 14.2785 99.441 14.183 99.5383 14.0838C103.814 9.72735 108.089 5.36989 112.362 1.01147C112.528 0.825765 112.766 0.724987 113.012 0.736534C114.728 0.747387 116.443 0.741599 118.159 0.741599H118.551C118.559 0.88196 118.57 0.976739 118.57 1.07152C118.57 2.59089 118.576 4.11026 118.563 5.62963C118.557 5.80313 118.49 5.96876 118.375 6.09702C112.065 12.5396 105.75 18.9789 99.4304 25.4147C99.3714 25.4676 99.3075 25.5204 99.2216 25.5985Z" fill="#666666"/>
<path d="M73.3184 5.86044L67.6601 11.629C64.7403 8.83551 61.2859 7.69526 57.3153 8.42166C54.4538 8.94476 52.122 10.4381 50.3348 12.7736C46.7776 17.4215 47.1499 24.0356 51.2053 28.2386C53.4484 30.5669 56.1991 31.7599 59.4043 31.7838C62.6095 31.8077 65.3496 30.6132 67.6366 28.379L73.2943 34.1395C69.1561 38.6253 61.7098 41.4253 54.1386 39.2454C46.1874 36.9554 40.4019 29.7869 39.8942 21.2603C39.3447 12.0103 44.8689 4.27233 52.4664 1.32041C60.1747 -1.67564 68.3829 0.676487 73.3184 5.86044Z" fill="#666666"/>
<path d="M118.548 11.7266V39.2366H110.271C110.265 39.1042 110.255 38.9769 110.255 38.8503C110.255 32.7246 110.257 26.6003 110.262 20.4775C110.265 20.2818 110.335 20.0934 110.461 19.9457C113.071 17.2687 115.687 14.5985 118.31 11.935C118.375 11.8655 118.453 11.8091 118.548 11.7266Z" fill="#666666"/>
</g>
</g>
</g>
</svg>
