<?xml version="1.0" encoding="UTF-8"?><svg width="71" height="42" viewBox="0 0 71 42" fill="none" xmlns="http://www.w3.org/2000/svg">
<g clip-path="url(#clip0_2_98)">
<path d="M15.8858 14.0685C15.8858 12.7715 15.2119 12.3033 13.9657 12.3033H13.1866L10.5914 21.1294L11.4734 21.1815C14.5888 21.2335 15.8858 16.665 15.8858 14.0685ZM52.1243 18.4822C52.1243 17.7551 51.6053 17.2881 50.9302 17.2881C49.321 17.2881 48.75 19.9353 48.4378 21.1294H51.5533C51.7602 20.2474 52.1243 19.3642 52.1243 18.4822ZM20.4035 15.2107C20.4035 20.9226 16.302 22.4797 11.4213 22.4797H10.2272L8.56599 27.6193H4.20556L8.61802 12.3553V12.3033H6.69672L7.06089 11.0063L7.11292 10.9543H15.1079C18.0152 10.9543 20.4035 11.9404 20.4035 15.2107ZM44.7525 16.4569L38.0026 26.3211L42 26.3731L41.585 27.6193H31.9289L38.6777 17.8071H34.7322L35.1472 16.4569H44.7525ZM56.0698 20.1954C56.0698 20.9734 55.9137 21.7525 55.7056 22.4797H48.0228C47.7107 23.4137 47.3477 24.5558 47.3477 25.5431C47.3477 26.3731 47.8147 26.7881 48.5939 26.7881C49.995 26.7881 50.5152 24.7119 50.8782 23.6738H55.3427C54.5127 26.4771 51.5013 28.1903 48.698 28.1903C45.7386 28.1903 43.4543 26.6853 43.4543 23.5178C43.4543 19.3642 46.7766 15.9378 50.9822 15.9378C53.6294 15.9378 56.0698 17.184 56.0698 20.1954ZM70.8655 20.9734C70.8655 5.55456 47.5038 -3.05176e-05 35.3553 -3.05176e-05C23.4658 -3.05176e-05 0 5.50254 0 20.8185C0 29.3845 7.83885 35.1992 15.0038 38.1586H15.0558L21.8566 14.7437C23.3109 9.76013 25.4391 4.56851 31.5127 4.56851C33.6421 4.56851 36.4454 5.50254 36.4454 8.09896C36.4454 9.55203 35.3553 10.9023 33.849 10.9023C32.604 10.9023 31.5647 9.91621 31.5647 8.67002C31.5647 7.16371 32.7069 6.43778 34.0571 6.38576C33.6421 5.55456 32.6548 5.24362 31.7728 5.24362C27.6193 5.24362 26.6853 13.6536 25.8541 16.4569H33.382L30.1637 27.6193H25.802L28.6574 17.8591H25.4391L21.0787 32.6548C20.4035 34.9911 19.5203 37.2234 19.1053 39.6117C24.2969 41.2208 29.7995 42 35.2513 42C47.3477 42 70.8655 36.7043 70.8655 20.9734ZM68.8414 18.3782C68.8414 19.6764 67.8033 20.7665 66.5051 20.7665C65.415 20.7665 64.4277 19.7792 64.4277 18.6891C64.4277 18.4822 64.4797 18.2221 64.5317 18.014H64.4277C62.1954 19.6764 61.1574 25.5939 60.5343 27.6193H56.1738L59.0292 17.8591L57.316 17.8071L57.783 16.4569H63.7018L63.1307 18.4302C63.9087 17.236 65.1548 16.25 66.6611 16.25C67.8553 16.25 68.8414 17.184 68.8414 18.3782Z" fill="#8E8E93"/>
</g>
<defs>
<clipPath id="clip0_2_98">
<rect width="71" height="42" fill="white"/>
</clipPath>
</defs>
</svg>
