<?xml version="1.0" encoding="UTF-8" ?>
<svg width="30" height="30" viewBox="0 0 30 30" fill="none" xmlns="http://www.w3.org/2000/svg">
<path opacity="0.6" d="M26.1374 13.9002C26.1374 20.0127 21.6999 25.7377 15.6374 27.4127C15.2249 27.5252 14.7749 27.5252 14.3624 27.4127C8.29989 25.7377 3.8624 20.0127 3.8624 13.9002V8.41267C3.8624 7.38767 4.63741 6.22517 5.59991 5.83767L12.5624 2.98771C14.1249 2.35021 15.8874 2.35021 17.4499 2.98771L24.4124 5.83767C25.3624 6.22517 26.1499 7.38767 26.1499 8.41267L26.1374 13.9002Z" stroke="#EC1C24" stroke-width="2" stroke-linecap="round" stroke-linejoin="round"/>
<path d="M12.5499 2.98771C14.1124 2.35021 15.8749 2.35021 17.4374 2.98771L24.3999 5.83767C25.3499 6.22517 26.1374 7.38767 26.1374 8.41267V13.9002C26.1374 20.0127 21.6999 25.7377 15.6374 27.4127C15.2249 27.5252 14.7749 27.5252 14.3624 27.4127C8.29989 25.7377 3.8624 20.0127 3.8624 13.9002" stroke="#292D32" stroke-width="2" stroke-linecap="round" stroke-linejoin="round"/>
<g opacity="0.6">
<path d="M14.9999 15.6251C16.3807 15.6251 17.4999 14.5058 17.4999 13.1251C17.4999 11.7444 16.3807 10.6251 14.9999 10.6251C13.6192 10.6251 12.4999 11.7444 12.4999 13.1251C12.4999 14.5058 13.6192 15.6251 14.9999 15.6251Z" stroke="#EC1C24" stroke-width="2" stroke-miterlimit="10" stroke-linecap="round" stroke-linejoin="round"/>
<path d="M14.9999 15.6251V19.3751" stroke="#EC1C24" stroke-width="2" stroke-miterlimit="10" stroke-linecap="round" stroke-linejoin="round"/>
</g>
</svg>
