<?xml version="1.0" encoding="UTF-8"?><svg width="158" height="42" viewBox="0 0 158 42" fill="none" xmlns="http://www.w3.org/2000/svg">
<path d="M19.6465 23.5594C19.3731 23.3594 19.0681 23.2069 18.7441 23.1082C18.4126 23.0046 18.066 22.9575 17.7188 22.9687C17.4592 22.9708 17.2007 23.001 16.9477 23.059C16.6962 23.1131 16.4533 23.2014 16.2258 23.3215C16.0078 23.4353 15.8086 23.582 15.6352 23.7562C15.4648 23.9272 15.3357 24.1348 15.2578 24.3633C15.2525 24.0661 15.1519 23.7786 14.9707 23.543C14.8068 23.3416 14.5913 23.1886 14.3473 23.1C14.0842 23.0053 13.8065 22.9581 13.527 22.9605C13.215 22.9623 12.9042 22.9981 12.6 23.0672V24.3551C12.7761 24.3385 12.9537 24.3524 13.125 24.3961C13.2371 24.4246 13.3341 24.4951 13.3957 24.593C13.4535 24.6991 13.4871 24.8168 13.4941 24.9375C13.4941 25.0769 13.4941 25.241 13.4941 25.4215V31.5H15.3727V26.6683C15.3779 26.3636 15.4508 26.0638 15.5859 25.7906C15.693 25.5526 15.8529 25.3422 16.0535 25.1754C16.2561 25.0073 16.4904 24.8818 16.7426 24.8062C17.008 24.7229 17.2847 24.6814 17.5629 24.6832C18.0331 24.6809 18.497 24.7905 18.9164 25.0031L19.6465 23.5594Z" fill="#8E8E93"/>
<path d="M27.9399 30.1629C27.8256 30.1247 27.7292 30.0459 27.6692 29.9414C27.6052 29.8229 27.5714 29.6905 27.5707 29.5559C27.5707 29.4082 27.5707 29.236 27.5707 29.0391V23.7317C27.0289 23.4914 26.4659 23.3019 25.8891 23.1657C25.3135 23.0326 24.7244 22.9665 24.1336 22.9688C23.4926 22.9502 22.8534 23.0475 22.2469 23.2559C21.6974 23.4497 21.1946 23.7564 20.7708 24.1562C20.3469 24.556 20.0115 25.0401 19.786 25.5774C19.5358 26.172 19.4075 26.8108 19.4086 27.4559C19.4059 28.0116 19.486 28.5645 19.6465 29.0965C19.7913 29.5843 20.0311 30.0387 20.352 30.4336C20.6575 30.8181 21.0477 31.1269 21.4922 31.336C22.0106 31.5564 22.5696 31.6654 23.1328 31.6559C23.7516 31.6608 24.3595 31.4932 24.8883 31.1719C25.4157 30.8682 25.8237 30.3936 26.0449 29.8266C26.0254 30.1829 26.0959 30.5383 26.25 30.8602C26.3764 31.0974 26.5706 31.2916 26.8078 31.418C27.0619 31.5465 27.3434 31.6112 27.6281 31.6067C27.9252 31.6134 28.2222 31.5887 28.5141 31.5328V30.1957C28.3228 30.2316 28.1258 30.2203 27.9399 30.1629ZM25.7414 27.3C25.747 27.9842 25.5439 28.6539 25.159 29.2196C24.9725 29.4748 24.7239 29.6781 24.4368 29.8102C24.1496 29.9423 23.8335 29.9987 23.5184 29.9743C23.1964 29.9997 22.8728 29.9508 22.5727 29.8313C22.2726 29.7118 22.0039 29.525 21.7875 29.2852C21.3889 28.7613 21.1884 28.1133 21.2215 27.4559C21.2438 27.0416 21.3353 26.6341 21.4922 26.25C21.6202 25.9054 21.8122 25.5881 22.0582 25.3149C22.286 25.0593 22.5657 24.8552 22.8785 24.716C23.2244 24.574 23.5957 24.5042 23.9695 24.511C24.2448 24.516 24.5191 24.5435 24.7899 24.593C25.0981 24.6453 25.3985 24.7362 25.684 24.8637L25.7414 27.3Z" fill="#8E8E93"/>
<path d="M36.9797 24.0023C36.6961 23.6764 36.3429 23.4185 35.9461 23.2476C35.4736 23.0506 34.9649 22.9555 34.4531 22.9687C34.1778 22.9714 33.9032 22.9989 33.6328 23.0508C33.351 23.1018 33.0758 23.1844 32.8125 23.2969C32.5543 23.4042 32.3159 23.5539 32.107 23.7398C31.8982 23.9258 31.733 24.1554 31.623 24.4125C31.6416 24.0904 31.5552 23.7709 31.3769 23.5019C31.2252 23.2933 31.009 23.1405 30.7617 23.0672C30.4953 22.9911 30.218 22.9606 29.9414 22.9769C29.6328 22.9933 29.3258 23.0317 29.0226 23.0918V24.3961C29.186 24.3738 29.3515 24.3738 29.5148 24.3961C29.624 24.4161 29.7212 24.4779 29.7855 24.5684C29.853 24.6798 29.8898 24.8072 29.8922 24.9375C29.8922 25.0934 29.8922 25.2984 29.8922 25.5363V31.5H31.8035V26.7422C31.7991 26.4283 31.8548 26.1164 31.9676 25.8234C32.0683 25.5575 32.2218 25.3148 32.4187 25.1098C32.6068 24.9132 32.8329 24.757 33.0832 24.6504C33.3427 24.5406 33.6218 24.4848 33.9035 24.4863C34.4326 24.4808 34.9426 24.6842 35.3226 25.0523C35.5176 25.2546 35.6674 25.4959 35.7621 25.7603C35.8568 26.0248 35.8944 26.3063 35.8723 26.5863V31.5082H37.7836V26.5863C37.79 26.098 37.7236 25.6114 37.5867 25.1426C37.4657 24.7245 37.259 24.3361 36.9797 24.0023Z" fill="#8E8E93"/>
<path d="M45.4289 27.136C45.0736 26.9518 44.6916 26.8245 44.2969 26.7586C43.8785 26.6766 43.4766 26.611 43.009 26.5453C42.5158 26.4992 42.029 26.4002 41.557 26.25C41.4071 26.2037 41.2763 26.1098 41.1846 25.9825C41.0928 25.8552 41.045 25.7014 41.0484 25.5446C41.0364 25.3716 41.0795 25.1993 41.1715 25.0524C41.27 24.8985 41.4053 24.7716 41.5652 24.6832C41.7415 24.5792 41.9323 24.5018 42.1313 24.4535C42.3403 24.3997 42.5552 24.3722 42.7711 24.3715C42.9962 24.3712 43.2211 24.3877 43.4438 24.4207C43.654 24.4501 43.8586 24.5109 44.0508 24.6012C44.2204 24.681 44.3713 24.7956 44.4938 24.9375C44.6102 25.0873 44.671 25.2729 44.666 25.4625H46.3066C46.3254 25.0812 46.2343 24.7025 46.0441 24.3715C45.8567 24.0401 45.5922 23.7587 45.2731 23.5512C44.9203 23.328 44.5319 23.167 44.1246 23.0754C43.6764 22.9874 43.2194 22.9516 42.7629 22.9688C42.318 22.9676 41.8746 23.02 41.4422 23.1246C41.0367 23.2179 40.6508 23.3818 40.302 23.6086C39.9721 23.8192 39.6922 24.0991 39.4816 24.4289C39.2712 24.7802 39.1658 25.1845 39.1781 25.5938C39.1649 26.0001 39.2891 26.399 39.5309 26.7258C39.7646 27.0084 40.0628 27.2306 40.4004 27.3739C40.778 27.5364 41.175 27.6495 41.5816 27.7102L42.9023 27.8906C43.3665 27.937 43.822 28.0475 44.2559 28.2188C44.4195 28.2815 44.5588 28.395 44.6533 28.5426C44.7478 28.6902 44.7925 28.8642 44.7809 29.0391C44.7786 29.2644 44.7102 29.484 44.584 29.6707C44.4635 29.839 44.3027 29.9744 44.1164 30.0645C43.9157 30.1582 43.7032 30.2245 43.4848 30.2614C43.2545 30.3013 43.0212 30.3205 42.7875 30.3188C42.5585 30.3203 42.33 30.2955 42.1066 30.2449C41.8966 30.195 41.6949 30.1149 41.5078 30.0071C41.3344 29.908 41.1835 29.7739 41.0648 29.6133C40.9463 29.448 40.8806 29.2507 40.8762 29.0473H39.0141C39.0152 29.5066 39.1398 29.9571 39.375 30.3516C39.6029 30.687 39.9027 30.9672 40.2527 31.1719C40.6229 31.387 41.0285 31.5342 41.4504 31.6067C41.8996 31.6888 42.3554 31.73 42.8121 31.7297C43.2678 31.7305 43.722 31.6782 44.1656 31.5739C44.578 31.4822 44.9718 31.3213 45.3305 31.0981C45.6631 30.891 45.9437 30.6104 46.1508 30.2778C46.3651 29.9157 46.4732 29.5007 46.4625 29.0801C46.4931 28.6675 46.4049 28.2547 46.2082 27.8906C46.0184 27.5757 45.7498 27.3155 45.4289 27.136Z" fill="#8E8E93"/>
<path d="M66.6176 24.0025C66.346 23.6812 66.0071 23.4236 65.625 23.2478C65.1576 23.0529 64.6547 22.9579 64.1484 22.9689C63.8731 22.9715 63.5985 22.999 63.3281 23.0509C63.0463 23.1017 62.7711 23.1842 62.5078 23.297C62.2496 23.4043 62.0112 23.554 61.8023 23.74C61.5938 23.9261 61.4285 24.1557 61.3183 24.4126C61.3375 24.0904 61.2511 23.7708 61.0723 23.5021C60.9206 23.2934 60.7043 23.1406 60.457 23.0673C60.1906 22.9913 59.9133 22.9608 59.6367 22.9771C59.3281 22.9933 59.0211 23.0317 58.718 23.0919V24.3962C58.8812 24.3731 59.0469 24.3731 59.2101 24.3962C59.3194 24.4162 59.4165 24.478 59.4808 24.5685C59.5473 24.6804 59.584 24.8075 59.5875 24.9376C59.5875 25.0935 59.5875 25.2985 59.5875 25.5364V31.5001H61.4988V26.7423C61.4944 26.4284 61.5501 26.1165 61.6629 25.8236C61.7642 25.558 61.9176 25.3153 62.1141 25.1099C62.3025 24.9137 62.5284 24.7575 62.7785 24.6505C63.038 24.5407 63.3171 24.4849 63.5988 24.4864C64.1251 24.4831 64.6317 24.6863 65.0098 25.0525C65.2047 25.2547 65.3545 25.496 65.4492 25.7605C65.544 26.0249 65.5815 26.3064 65.5594 26.5864V31.5083H67.4707V26.5864C67.4771 26.0981 67.4107 25.6115 67.2738 25.1427C67.1389 24.7202 66.9152 24.3314 66.6176 24.0025Z" fill="#8E8E93"/>
<path d="M69.9562 19.4251C69.6585 19.4185 69.3679 19.5173 69.1359 19.704C69.0171 19.8037 68.9234 19.9298 68.8621 20.0723C68.8008 20.2147 68.7738 20.3696 68.7832 20.5243C68.7773 20.6795 68.8068 20.8339 68.8693 20.976C68.9318 21.1181 69.0258 21.2442 69.1441 21.3447C69.374 21.5345 69.6667 21.6311 69.9644 21.6154C70.2439 21.6019 70.5116 21.4983 70.7273 21.32C70.9418 21.1008 71.0619 20.8064 71.0619 20.4997C71.0619 20.1931 70.9418 19.8986 70.7273 19.6794C70.5065 19.5098 70.2346 19.4202 69.9562 19.4251Z" fill="#8E8E93"/>
<path d="M70.8996 23.1245H69.0047V31.4917H70.8996V23.1245Z" fill="#8E8E93"/>
<path d="M79.7098 24.0187C79.2884 23.6512 78.7974 23.3722 78.266 23.1984C77.7207 23.0356 77.1534 22.9582 76.5844 22.9687C76.0398 22.9689 75.4991 23.0604 74.9848 23.2394C74.473 23.4185 74.0018 23.6974 73.5985 24.0597C73.1767 24.4413 72.8412 24.9083 72.6141 25.4297C72.3521 26.0235 72.2233 26.6675 72.2367 27.3164C72.2237 27.9767 72.3553 28.6318 72.6223 29.2359C72.8568 29.7573 73.1976 30.2239 73.6231 30.6058C74.0313 30.9701 74.5082 31.249 75.0258 31.4262C76.0889 31.7924 77.244 31.7924 78.307 31.4262C78.8266 31.2478 79.306 30.9691 79.718 30.6058C80.1464 30.2247 80.4901 29.7581 80.727 29.2359C81.2307 28.0086 81.2307 26.6323 80.727 25.4051C80.4983 24.8713 80.1504 24.397 79.7098 24.0187ZM78.9715 28.4566C78.8375 28.764 78.6453 29.0425 78.4055 29.2769C78.1712 29.5026 77.8915 29.676 77.5852 29.7855C77.2924 29.8998 76.9807 29.9582 76.6664 29.9578C76.3448 29.9584 76.0256 29.9029 75.7231 29.7937C75.4184 29.6845 75.1393 29.5142 74.9027 29.2933C74.6542 29.0629 74.4559 28.7836 74.3203 28.473C74.167 28.0955 74.0916 27.6909 74.0988 27.2836C74.0891 26.8882 74.1588 26.4949 74.3039 26.1269C74.4281 25.8162 74.6185 25.5363 74.8617 25.3066C75.0996 25.0915 75.3787 24.9268 75.682 24.8226C75.9698 24.7047 76.2743 24.6328 76.5844 24.6094C76.9074 24.5987 77.2296 24.6459 77.536 24.7488C77.8404 24.8506 78.1199 25.0155 78.3563 25.2328C78.6078 25.4624 78.8089 25.7417 78.9469 26.0531C79.1068 26.426 79.1851 26.8287 79.1766 27.2344C79.1954 27.6517 79.1255 28.0683 78.9715 28.4566Z" fill="#8E8E93"/>
<path d="M4.46246 21.1313V19.343H13.4859V21.1313H9.95856V31.5H7.98981V21.1313H4.46246Z" fill="#8E8E93"/>
<path d="M47.9308 27.4149V19.343H49.9406V27.3657C49.9406 28.9653 51.1383 29.8266 52.6805 29.8266C53.0237 29.8611 53.3704 29.8231 53.6979 29.7149C54.0255 29.6068 54.3267 29.431 54.582 29.199C54.8372 28.9669 55.0409 28.6838 55.1796 28.3679C55.3184 28.0521 55.3892 27.7106 55.3875 27.3657V19.343H57.4219V27.4231C57.4219 30.1301 55.3055 31.6559 52.7133 31.6559C50.1211 31.6559 47.9308 30.1219 47.9308 27.4149Z" fill="#8E8E93"/>
<path d="M90.4641 29.5313V28.2188V26.5781C90.4695 26.0898 90.4032 25.6034 90.2672 25.1344C90.146 24.7164 89.9393 24.3281 89.6602 23.9942C89.3766 23.6682 89.0234 23.4103 88.6266 23.2395C88.1592 23.0446 87.6563 22.9496 87.15 22.9606C86.8747 22.9631 86.6001 22.9905 86.3297 23.0426C86.0479 23.0936 85.7727 23.1761 85.5094 23.2887C85.2508 23.3952 85.0122 23.545 84.8039 23.7317C84.5957 23.9181 84.4306 24.1477 84.3199 24.4043C84.3385 24.0822 84.2521 23.7627 84.0738 23.4938C83.9217 23.2856 83.7056 23.1329 83.4586 23.059C83.1922 22.983 82.9149 22.9525 82.6383 22.9688C82.3297 22.985 82.0227 23.0234 81.7195 23.0836V24.3879C81.8828 24.3647 82.0485 24.3647 82.2117 24.3879C82.3209 24.4079 82.4181 24.4697 82.4824 24.5602C82.5489 24.6721 82.5856 24.7992 82.5891 24.9293C82.5891 25.0852 82.5891 25.2902 82.5891 25.5281V31.5H84.4922V26.7422C84.4878 26.4283 84.5435 26.1164 84.6563 25.8235C84.757 25.5576 84.9105 25.3148 85.1074 25.1098C85.2957 24.9134 85.5217 24.7572 85.7719 24.6504C86.0313 24.5404 86.3104 24.4846 86.5922 24.4863C87.1185 24.483 87.6251 24.6862 88.0031 25.0524C88.2044 25.2501 88.3611 25.4885 88.4629 25.7516C88.5648 26.0147 88.6094 26.2965 88.5938 26.5781V29.4V29.6051C88.5938 31.6395 89.8653 31.8527 91.4977 31.5328V30.3516C90.6281 30.4008 90.4641 30.1711 90.4641 29.5313Z" fill="#8E8E93"/>
<path d="M95.4105 5.74214C93.8658 5.73169 92.3458 6.12985 91.0046 6.89626C89.6634 7.66267 88.5487 8.77007 87.7734 10.1062C87.4999 10.4977 87.3366 10.9555 87.3005 11.4317C87.2644 11.9079 87.3569 12.385 87.5683 12.8132C87.8276 13.1593 88.1707 13.4336 88.5655 13.6102C88.9602 13.7867 89.3934 13.8597 89.8242 13.8222H90.9398L90.5379 15.0937C90.4137 15.4476 90.372 15.8253 90.4161 16.1978C90.4602 16.5703 90.5888 16.9278 90.7922 17.2429C90.9987 17.5112 91.2668 17.7259 91.5738 17.8686C91.8807 18.0114 92.2176 18.0782 92.5558 18.0632C93.0951 18.0716 93.6298 17.9624 94.1226 17.7433C93.9877 17.55 93.8775 17.3405 93.7945 17.1199C93.7191 16.913 93.6668 16.6984 93.6387 16.48C93.3129 16.5989 92.9682 16.6573 92.6215 16.6523C92.4989 16.6559 92.377 16.632 92.2648 16.5824C92.1527 16.5327 92.0531 16.4585 91.9734 16.3652C91.9018 16.2423 91.8574 16.1055 91.8432 15.964C91.8291 15.8224 91.8455 15.6795 91.8914 15.5449L92.441 13.8386H94.1637L94.623 12.4195H92.9414L93.6961 10.0898H92.1867L91.432 12.4195H89.857C89.3566 12.4195 89.0367 12.2882 88.8891 12.0339C88.7414 11.7796 88.889 11.1398 89.291 10.3933C90.2439 8.97262 91.6607 7.92693 93.2991 7.43496C94.9375 6.94298 96.6959 7.03524 98.2739 7.69598C99.8518 8.35672 101.151 9.54492 101.95 11.0575C102.749 12.5702 102.998 14.3133 102.655 15.9891C102.311 17.6649 101.396 19.1694 100.066 20.2454C98.7361 21.3214 97.0738 21.9022 95.3631 21.8884C93.6525 21.8747 91.9997 21.2674 90.6872 20.1702C89.3747 19.073 88.484 17.5541 88.1672 15.873L86.7726 16.1601C87.0853 17.7932 87.8558 19.3037 88.9943 20.5155C90.1327 21.7274 91.5923 22.5905 93.2027 23.0044C94.8131 23.4183 96.508 23.3658 98.0897 22.853C99.6713 22.3402 101.075 21.3884 102.136 20.1084C103.197 18.8284 103.873 17.2731 104.084 15.6238C104.295 13.9745 104.032 12.2992 103.327 10.7933C102.622 9.28742 101.504 8.01299 100.102 7.11865C98.7004 6.22431 97.0733 5.74692 95.4105 5.74214Z" fill="#8E8E93"/>
<path d="M100.989 16.8573C100.612 16.8809 100.236 16.7955 99.9058 16.6112C99.7546 16.5066 99.6489 16.3481 99.6105 16.1683C99.5905 16.033 99.6046 15.8948 99.6516 15.7663L100.734 12.4276H99.2578L98.3309 15.3151C98.2007 15.6834 97.9677 16.0066 97.6595 16.2465C97.3513 16.4864 96.9807 16.6329 96.5918 16.6687C96.4895 16.6717 96.3879 16.6519 96.2943 16.6107C96.2006 16.5696 96.1173 16.5081 96.0504 16.4308C95.9847 16.3328 95.9443 16.2201 95.9329 16.1027C95.9214 15.9853 95.9393 15.8669 95.9848 15.7581L97.0676 12.4194H95.5582L94.6312 15.3069C94.5106 15.6339 94.4685 15.9847 94.5084 16.331C94.5483 16.6773 94.6691 17.0093 94.8609 17.3003C95.0492 17.5579 95.2964 17.7668 95.5817 17.9094C95.8671 18.0521 96.1825 18.1245 96.5016 18.1206C97.2623 18.0943 97.9901 17.8043 98.5605 17.3003C98.752 17.6 99.0422 17.8234 99.3808 17.9319C99.7476 18.0564 100.134 18.1121 100.521 18.096C100.648 18.0934 100.775 18.0769 100.898 18.0468L100.989 17.9073L101.145 17.6284L101.292 17.3495L101.423 17.0542L101.505 16.8491C101.333 16.8609 101.161 16.8636 100.989 16.8573Z" fill="#8E8E93"/>
<path d="M92.4082 30.5237C92.3949 30.3686 92.414 30.2124 92.4642 30.0651C92.5145 29.9178 92.5948 29.7825 92.7001 29.6678C92.8053 29.5531 92.9333 29.4616 93.0758 29.3989C93.2183 29.3363 93.3723 29.304 93.5279 29.304C93.6836 29.304 93.8376 29.3363 93.9801 29.3989C94.1226 29.4616 94.2506 29.5531 94.3558 29.6678C94.4611 29.7825 94.5414 29.9178 94.5916 30.0651C94.6419 30.2124 94.661 30.3686 94.6477 30.5237C94.661 30.6788 94.6419 30.835 94.5916 30.9823C94.5414 31.1297 94.4611 31.265 94.3558 31.3796C94.2506 31.4943 94.1226 31.5859 93.9801 31.6485C93.8376 31.7111 93.6836 31.7435 93.5279 31.7435C93.3723 31.7435 93.2183 31.7111 93.0758 31.6485C92.9333 31.5859 92.8053 31.4943 92.7001 31.3796C92.5948 31.265 92.5145 31.1297 92.4642 30.9823C92.414 30.835 92.3949 30.6788 92.4082 30.5237ZM94.459 30.5237C94.4711 30.3952 94.4563 30.2656 94.4154 30.1432C94.3746 30.0207 94.3086 29.9082 94.2217 29.8127C94.1348 29.7172 94.029 29.641 93.9109 29.5888C93.7929 29.5366 93.6652 29.5097 93.5361 29.5097C93.4071 29.5097 93.2794 29.5366 93.1614 29.5888C93.0433 29.641 92.9375 29.7172 92.8506 29.8127C92.7637 29.9082 92.6977 30.0207 92.6569 30.1432C92.616 30.2656 92.6012 30.3952 92.6133 30.5237C92.6012 30.6522 92.616 30.7818 92.6569 30.9043C92.6977 31.0267 92.7637 31.1393 92.8506 31.2347C92.9375 31.3302 93.0433 31.4064 93.1614 31.4586C93.2794 31.5108 93.4071 31.5378 93.5361 31.5378C93.6652 31.5378 93.7929 31.5108 93.9109 31.4586C94.029 31.4064 94.1348 31.3302 94.2217 31.2347C94.3086 31.1393 94.3746 31.0267 94.4154 30.9043C94.4563 30.7818 94.4711 30.6522 94.459 30.5237ZM94.0324 31.0405H93.8602L93.5813 30.6632H93.3434V31.0405H93.1711V29.9823H93.6141C93.6631 29.9777 93.7125 29.9835 93.7592 29.9991C93.8058 30.0148 93.8487 30.04 93.885 30.0733C93.9213 30.1065 93.9503 30.1469 93.97 30.192C93.9897 30.2371 93.9998 30.2858 93.9996 30.335C94.0032 30.411 93.9795 30.4858 93.9329 30.5459C93.8863 30.6061 93.8198 30.6476 93.7453 30.6632L94.0324 31.0405ZM93.3434 30.5483H93.6059C93.6355 30.5519 93.6656 30.549 93.694 30.5398C93.7223 30.5306 93.7484 30.5153 93.7703 30.495C93.7921 30.4747 93.8093 30.4499 93.8206 30.4223C93.8319 30.3946 93.837 30.3649 93.8356 30.335C93.8345 30.3063 93.8277 30.278 93.8155 30.252C93.8033 30.226 93.7859 30.2027 93.7645 30.1835C93.743 30.1643 93.7179 30.1497 93.6906 30.1405C93.6634 30.1313 93.6346 30.1277 93.6059 30.13H93.3434V30.5483Z" fill="#8E8E93"/>
<path d="M112.744 19.2036C113.991 19.148 115.22 19.5263 116.22 20.274C117.221 21.0217 117.932 22.0928 118.232 23.3052H116.287C116 22.6097 115.502 22.0215 114.864 21.6229C114.225 21.2243 113.478 21.0353 112.727 21.0821C110.266 21.0821 108.626 22.8868 108.626 25.4708C108.593 26.0291 108.675 26.5881 108.867 27.1135C109.059 27.6389 109.355 28.1196 109.74 28.5261C110.124 28.9325 110.587 29.2561 111.101 29.4769C111.615 29.6977 112.168 29.8112 112.727 29.8102C113.516 29.8565 114.298 29.6401 114.951 29.1949C115.604 28.7496 116.092 28.1006 116.337 27.3493H118.297C117.69 30.3188 115.188 31.6231 112.727 31.6231C111.907 31.6545 111.089 31.5155 110.325 31.215C109.562 30.9144 108.868 30.4587 108.29 29.8768C107.711 29.2948 107.259 28.5992 106.962 27.8338C106.666 27.0684 106.531 26.2498 106.567 25.4298C106.531 24.6068 106.666 23.7854 106.963 23.0172C107.261 22.249 107.713 21.5505 108.294 20.9658C108.874 20.381 109.569 19.9226 110.334 19.6194C111.1 19.3161 111.921 19.1745 112.744 19.2036Z" fill="#8E8E93"/>
<path d="M124.688 29.8676V31.5082H118.781V29.8676H120.709V20.959H118.945V19.3184H124.499V20.959H122.727V29.8676H124.688Z" fill="#8E8E93"/>
<path d="M133.276 25.1098C133.865 25.2909 134.377 25.6621 134.731 26.1654C135.086 26.6687 135.264 27.2755 135.237 27.8907C135.237 30.0645 133.744 31.4672 131.381 31.4672H125.951V19.343H130.873C133.079 19.343 134.695 20.475 134.695 22.7637C134.718 23.2514 134.595 23.7349 134.343 24.1527C134.09 24.5705 133.719 24.9037 133.276 25.1098ZM127.969 21.0985V24.4454H130.75C131.914 24.4454 132.71 23.9942 132.727 22.8047C132.743 21.6153 131.906 21.0903 130.75 21.0903L127.969 21.0985ZM127.969 26.0942V29.72H131.25C131.501 29.744 131.754 29.7152 131.994 29.6354C132.233 29.5555 132.453 29.4264 132.639 29.2564C132.825 29.0863 132.974 28.8791 133.075 28.6481C133.176 28.4172 133.228 28.1675 133.227 27.9153C133.241 27.643 133.191 27.3712 133.083 27.1208C132.975 26.8705 132.811 26.6484 132.604 26.4715C132.133 26.1717 131.576 26.0361 131.02 26.086L127.969 26.0942Z" fill="#8E8E93"/>
<path d="M141.914 29.8676V31.5082H136.049V29.8676H137.977V20.959H136.172V19.3184H141.725V20.959H139.954V29.8676H141.914Z" fill="#8E8E93"/>
<path d="M145.253 29.6707H150.478V31.5H143.218V19.343H145.253V29.6707Z" fill="#8E8E93"/>
<path d="M151.43 30.5237C151.416 30.3686 151.435 30.2124 151.486 30.0651C151.536 29.9178 151.616 29.7825 151.722 29.6678C151.827 29.5531 151.955 29.4616 152.097 29.3989C152.24 29.3363 152.394 29.304 152.549 29.304C152.705 29.304 152.859 29.3363 153.002 29.3989C153.144 29.4616 153.272 29.5531 153.377 29.6678C153.483 29.7825 153.563 29.9178 153.613 30.0651C153.663 30.2124 153.682 30.3686 153.669 30.5237C153.682 30.6788 153.663 30.835 153.613 30.9823C153.563 31.1297 153.483 31.265 153.377 31.3796C153.272 31.4943 153.144 31.5859 153.002 31.6485C152.859 31.7111 152.705 31.7435 152.549 31.7435C152.394 31.7435 152.24 31.7111 152.097 31.6485C151.955 31.5859 151.827 31.4943 151.722 31.3796C151.616 31.265 151.536 31.1297 151.486 30.9823C151.435 30.835 151.416 30.6788 151.43 30.5237ZM153.48 30.5237C153.493 30.3952 153.478 30.2656 153.437 30.1432C153.396 30.0207 153.33 29.9082 153.243 29.8127C153.156 29.7172 153.05 29.641 152.932 29.5888C152.814 29.5366 152.687 29.5097 152.558 29.5097C152.429 29.5097 152.301 29.5366 152.183 29.5888C152.065 29.641 151.959 29.7172 151.872 29.8127C151.785 29.9082 151.719 30.0207 151.678 30.1432C151.637 30.2656 151.623 30.3952 151.635 30.5237C151.623 30.6522 151.637 30.7818 151.678 30.9043C151.719 31.0267 151.785 31.1393 151.872 31.2347C151.959 31.3302 152.065 31.4064 152.183 31.4586C152.301 31.5108 152.429 31.5378 152.558 31.5378C152.687 31.5378 152.814 31.5108 152.932 31.4586C153.05 31.4064 153.156 31.3302 153.243 31.2347C153.33 31.1393 153.396 31.0267 153.437 30.9043C153.478 30.7818 153.493 30.6522 153.48 30.5237ZM153.054 31.0405H152.882L152.578 30.6796H152.34V31.0569H152.168V29.9823H152.611C152.66 29.9777 152.709 29.9835 152.756 29.9991C152.803 30.0148 152.846 30.04 152.882 30.0733C152.918 30.1065 152.947 30.1469 152.967 30.192C152.987 30.2371 152.997 30.2858 152.996 30.335C153 30.411 152.976 30.4858 152.93 30.5459C152.883 30.6061 152.817 30.6476 152.742 30.6632L153.054 31.0405ZM152.365 30.5483H152.627C152.657 30.5519 152.687 30.549 152.715 30.5398C152.744 30.5306 152.77 30.5153 152.792 30.495C152.814 30.4747 152.831 30.4499 152.842 30.4223C152.853 30.3946 152.858 30.3649 152.857 30.335C152.856 30.3063 152.849 30.278 152.837 30.252C152.825 30.226 152.807 30.2027 152.786 30.1835C152.764 30.1643 152.739 30.1497 152.712 30.1405C152.685 30.1313 152.656 30.1277 152.627 30.13H152.365V30.5483Z" fill="#8E8E93"/>
</svg>
