<?xml version="1.0" encoding="UTF-8"?>
<svg width="40" height="40" viewBox="0 0 40 40" fill="none" xmlns="http://www.w3.org/2000/svg">
<circle cx="20" cy="20" r="20" fill="#E26D5E"/>
<mask id="mask0_120_894" style="mask-type:alpha" maskUnits="userSpaceOnUse" x="0" y="0" width="40" height="40">
<circle cx="20" cy="20" r="20" fill="#C4C4C4"/>
</mask>
<g mask="url(#mask0_120_894)">
<g clip-path="url(#clip0_120_894)">
<path d="M33.883 30.8353C30.6818 30.5271 27.8378 32.8628 27.5307 36.0522C27.2236 39.2417 29.5697 42.0772 32.7709 42.3854C35.9721 42.6937 38.8161 40.358 39.1232 37.1685C39.4303 33.979 37.0842 31.1435 33.883 30.8353Z" fill="white"/>
<path d="M2.36764 -4.34659C-6.54768 2.97524 -7.81302 16.1163 -0.45857 25.0047C6.89588 33.8931 20.0851 35.1631 29.0005 27.8413C37.9158 20.5194 39.1811 7.37842 31.8267 -1.51001C24.4722 -10.3984 11.283 -11.6684 2.36764 -4.34659Z" fill="white"/>
<path d="M3.998 -2.37612C-3.8258 4.04928 -4.93622 15.5814 1.51782 23.3816C7.97185 31.1818 19.5463 32.2963 27.3701 25.8709C35.1939 19.4455 36.3043 7.91338 29.8503 0.113171C23.3963 -7.68704 11.8218 -8.80153 3.998 -2.37612Z" fill="#222020"/>
<path d="M5.65123 -0.378193C-1.06579 5.13826 -2.01913 15.039 3.52189 21.7358C9.06291 28.4326 19 29.3894 25.717 23.8729C32.4341 18.3565 33.3874 8.45572 27.8464 1.75896C22.3053 -4.93781 12.3682 -5.89464 5.65123 -0.378193Z" fill="white"/>
</g>
</g>
<defs>
<clipPath id="clip0_120_894">
<rect width="48" height="50.8235" fill="white" transform="translate(39.7791 44.1901) rotate(-174.5)"/>
</clipPath>
</defs>
</svg>
