<?xml version="1.0" encoding="UTF-8" ?>
<svg width="30" height="30" viewBox="0 0 30 30" fill="none" xmlns="http://www.w3.org/2000/svg">
<path opacity="0.6" d="M7.03749 16.3503L7.02499 22.2128C7.02499 23.8003 8.24999 25.5003 9.74999 26.0003L13.7375 27.3253C14.425 27.5503 15.5625 27.5503 16.2625 27.3253L20.25 26.0003C21.75 25.5003 22.975 23.8003 22.975 22.2128V16.4128" stroke="#ED1B24" stroke-width="2" stroke-linecap="round" stroke-linejoin="round"/>
<path opacity="0.6" d="M26.75 18.7502V11.2502" stroke="#ED1B24" stroke-width="2" stroke-linecap="round" stroke-linejoin="round"/>
<path d="M12.5625 3.1628L5.03752 8.0753C2.62502 9.6503 2.62502 13.1753 5.03752 14.7503L12.5625 19.6628C13.9125 20.5503 16.1375 20.5503 17.4875 19.6628L24.975 14.7503C27.375 13.1753 27.375 9.6628 24.975 8.0878L17.4875 3.1753C16.1375 2.2753 13.9125 2.2753 12.5625 3.1628Z" stroke="#292D32" stroke-width="2" stroke-linecap="round" stroke-linejoin="round"/>
</svg>
