<?xml version="1.0" encoding="UTF-8" ?>
<svg width="30" height="30" viewBox="0 0 30 30" fill="none" xmlns="http://www.w3.org/2000/svg">
<path opacity="0.6" d="M12.325 23.7499L14.425 21.9749C14.7375 21.7124 15.2625 21.7124 15.5875 21.9749L17.675 23.7499C18.1625 23.9999 18.7625 23.7499 18.9375 23.2249L19.3375 22.0249C19.4375 21.7374 19.3375 21.3124 19.125 21.0999L17.075 19.0374C16.925 18.8874 16.8125 18.5999 16.8125 18.3999V16.0874C16.8125 15.5624 17.2 15.3124 17.6875 15.5124L21.875 17.3124C22.5625 17.6124 23.1375 17.2374 23.1375 16.4874V15.3249C23.1375 14.7249 22.6875 14.0249 22.125 13.7874L17.2 11.6624C16.9875 11.5749 16.825 11.3124 16.825 11.0874V8.4999C16.825 7.6499 16.2 6.6499 15.45 6.2624C15.175 6.1249 14.8625 6.1249 14.5875 6.2624C13.825 6.6374 13.2125 7.6499 13.2125 8.4999V11.0874C13.2125 11.3124 13.0375 11.5749 12.8375 11.6624L7.91249 13.7874C7.36249 14.0249 6.89999 14.7249 6.89999 15.3249V16.4874C6.89999 17.2374 7.46249 17.6124 8.16249 17.3124L12.35 15.5124C12.825 15.2999 13.225 15.5624 13.225 16.0874V18.3999C13.225 18.6124 13.1 18.8999 12.9625 19.0374L10.875 21.0874C10.6625 21.2999 10.5625 21.7249 10.6625 22.0124L11.0625 23.2124C11.2375 23.7499 11.825 23.9999 12.325 23.7499Z" stroke="#EC1C24" stroke-width="2" stroke-linecap="round" stroke-linejoin="round"/>
<path d="M11.25 27.4999H18.75C25 27.4999 27.5 24.9999 27.5 18.7499V11.2499C27.5 4.99991 25 2.49991 18.75 2.49991H11.25C4.99997 2.49991 2.49997 4.99991 2.49997 11.2499V18.7499C2.49997 24.9999 4.99997 27.4999 11.25 27.4999Z" stroke="#292D32" stroke-width="2" stroke-linecap="round" stroke-linejoin="round"/>
</svg>
