<?xml version="1.0" encoding="UTF-8" ?>
<svg width="14" height="14" viewBox="0 0 14 14" fill="none" xmlns="http://www.w3.org/2000/svg">
<path d="M10.135 9.068C9.99121 9.35823 9.78709 9.614 9.53651 9.81801C9.44733 9.8889 9.34447 9.94037 9.23446 9.96914C9.12446 9.99791 9.00971 10.0034 8.8975 9.98516C7.73808 9.78497 6.67287 9.21648 5.85794 8.36298C5.02131 7.5 4.46942 6.39854 4.27746 5.20864C4.25774 5.09178 4.26172 4.97211 4.28918 4.85684C4.31663 4.74157 4.36699 4.63309 4.43721 4.53791C4.6316 4.28072 4.87949 4.06936 5.16355 3.91861C5.19117 3.88984 5.22426 3.86695 5.26085 3.85132C5.29745 3.83569 5.3368 3.82764 5.37656 3.82764C5.41631 3.82764 5.45566 3.83569 5.49226 3.85132C5.52885 3.86695 5.56194 3.88984 5.58956 3.91861L6.57576 4.96006C6.6364 5.02551 6.67012 5.11166 6.67012 5.20114C6.67012 5.29061 6.6364 5.37676 6.57576 5.44221L5.87072 6.21151C6.16893 6.86938 7.27654 8.01583 7.91129 8.32441L8.65468 7.59368C8.68518 7.56265 8.7215 7.53801 8.76154 7.52119C8.80158 7.50438 8.84453 7.49572 8.88791 7.49572C8.9313 7.49572 8.97425 7.50438 9.01429 7.52119C9.05432 7.53801 9.09065 7.56265 9.12115 7.59368L10.1265 8.62227C10.1855 8.68077 10.2193 8.76012 10.2209 8.84339C10.2225 8.92666 10.1917 9.00726 10.135 9.068Z" fill="#ED1B24"/>
<path d="M6.71422 1.01903C5.77028 1.09639 4.8594 1.40443 4.06068 1.9164C3.26196 2.42838 2.59957 3.1288 2.13106 3.95682C1.66254 4.78485 1.40206 5.71544 1.37225 6.66775C1.34244 7.62006 1.54419 8.56529 1.95999 9.42134C2.00594 9.51725 2.03243 9.62142 2.03792 9.72775C2.0434 9.83408 2.02777 9.94045 1.99194 10.0406L1.00573 12.8628C0.999437 12.8807 0.99819 12.9 1.00213 12.9186C1.00607 12.9372 1.01504 12.9543 1.02805 12.968C1.04107 12.9818 1.05761 12.9917 1.07585 12.9965C1.09409 13.0014 1.11332 13.0011 1.13141 12.9957L4.09641 12.0914C4.28548 12.0317 4.48991 12.0455 4.66939 12.13C5.47493 12.5183 6.35853 12.7147 7.2517 12.7041C8.14487 12.6935 9.02361 12.4761 9.8198 12.0688C10.616 11.6614 11.3083 11.0751 11.8429 10.3552C12.3776 9.63536 12.7403 8.8013 12.9029 7.91769C13.0655 7.03408 13.0237 6.12467 12.7806 5.25994C12.5376 4.39522 12.0999 3.59841 11.5014 2.9313C10.903 2.26419 10.1599 1.74469 9.32968 1.41307C8.49949 1.08145 7.60455 0.946619 6.71422 1.01903V1.01903Z" stroke="#ED1B24" stroke-miterlimit="10" stroke-linecap="round"/>
</svg>
